0
SECTION
2
HEADER
9
$INSUNITS
70
4
9
$ACADVER
1
AC1014
9
$HANDSEED
5
FFFF
0
ENDSEC
0
SECTION
2
TABLES
0
TABLE
2
VPORT
5
8
100
AcDbSymbolTable
0
ENDTAB
0
TABLE
2
LTYPE
5
5
100
AcDbSymbolTable
0
LTYPE
5
14
100
AcDbSymbolTableRecord
100
AcDbLinetypeTableRecord
2
BYBLOCK
70
0
0
LTYPE
5
15
100
AcDbSymbolTableRecord
100
AcDbLinetypeTableRecord
2
BYLAYER
70
0
0
ENDTAB
0
TABLE
2
LAYER
5
2
100
AcDbSymbolTable
70
2
0
LAYER
5
50
100
AcDbSymbolTableRecord
100
AcDbLayerTableRecord
2
0
70
0
6
CONTINUOUS
0
ENDTAB
0
TABLE
2
STYLE
5
3
100
AcDbSymbolTable
70
1
0
STYLE
5
11
100
AcDbSymbolTableRecord
100
AcDbTextStyleTableRecord
2
STANDARD
70
0
0
ENDTAB
0
TABLE
2
VIEW
5
6
100
AcDbSymbolTable
70
0
0
ENDTAB
0
TABLE
2
UCS
5
7
100
AcDbSymbolTable
70
0
0
ENDTAB
0
TABLE
2
APPID
5
9
100
AcDbSymbolTable
70
2
0
APPID
5
12
100
AcDbSymbolTableRecord
100
AcDbRegAppTableRecord
2
ACAD
70
0
0
ENDTAB
0
TABLE
2
DIMSTYLE
5
A
100
AcDbSymbolTable
70
1
0
ENDTAB
0
TABLE
2
BLOCK_RECORD
5
1
100
AcDbSymbolTable
70
1
0
BLOCK_RECORD
5
1F
100
AcDbSymbolTableRecord
100
AcDbBlockTableRecord
2
*MODEL_SPACE
0
BLOCK_RECORD
5
1B
100
AcDbSymbolTableRecord
100
AcDbBlockTableRecord
2
*PAPER_SPACE
0
ENDTAB
0
ENDSEC
0
SECTION
2
BLOCKS
0
BLOCK
5
20
100
AcDbEntity
100
AcDbBlockBegin
2
*MODEL_SPACE
0
ENDBLK
5
21
100
AcDbEntity
100
AcDbBlockEnd
0
BLOCK
5
1C
100
AcDbEntity
100
AcDbBlockBegin
2
*PAPER_SPACE
0
ENDBLK
5
1D
100
AcDbEntity
100
AcDbBlockEnd
0
ENDSEC
0
SECTION
2
ENTITIES
0
LWPOLYLINE
5
100
100
AcDbEntity
8
0
100
AcDbPolyline
90
28
70
1
43
0.0
10
290
20
95
10
290
20
25
10
288
20
25
10
288
20
0
10
255
20
0
10
255
20
-3.0000000000000004
10
205
20
-3.0000000000000004
10
205
20
0
10
175
20
0
10
175
20
-3.0000000000000004
10
115
20
-3.0000000000000004
10
115
20
0
10
85
20
0
10
85
20
-3.0000000000000004
10
35
20
-3.0000000000000004
10
35
20
0
10
3.0000000000000004
20
0
10
3.0000000000000004
20
25
10
0
20
25
10
0
20
95
10
3.0000000000000004
20
95
10
2.9999999999999982
20
120
10
50
20
120
10
50
20
123
10
240
20
123
10
240
20
120
10
288
20
120
10
288
20
95
0
CIRCLE
5
101
100
AcDbEntity
8
0
100
AcDbCircle
10
9
20
6.0000000000000009
30
0
40
1.6000000000000012
210
0
220
0
230
1
0
CIRCLE
5
102
100
AcDbEntity
8
0
100
AcDbCircle
10
9
20
114
30
0
40
1.6000000000000032
210
0
220
0
230
1
0
CIRCLE
5
103
100
AcDbEntity
8
0
100
AcDbCircle
10
281
20
6.0000000000000009
30
0
40
1.5999999999999883
210
0
220
0
230
1
0
CIRCLE
5
104
100
AcDbEntity
8
0
100
AcDbCircle
10
281
20
114
30
0
40
1.600000000000017
210
0
220
0
230
1
0
CIRCLE
5
105
100
AcDbEntity
8
0
100
AcDbCircle
10
281
20
15
30
0
40
2.0999999999999903
210
0
220
0
230
1
0
CIRCLE
5
106
100
AcDbEntity
8
0
100
AcDbCircle
10
281
20
105
30
0
40
2.1000000000000032
210
0
220
0
230
1
0
CIRCLE
5
107
100
AcDbEntity
8
0
100
AcDbCircle
10
9
20
105
30
0
40
2.0999999999999961
210
0
220
0
230
1
0
CIRCLE
5
108
100
AcDbEntity
8
0
100
AcDbCircle
10
9
20
15
30
0
40
2.1000000000000001
210
0
220
0
230
1
0
LWPOLYLINE
5
109
100
AcDbEntity
8
0
100
AcDbPolyline
90
8
70
1
43
0.0
10
89.000000000000057
20
105
10
26
20
105
42
0.41421356237309398
10
19.999999999999993
20
99
10
20
20
20.999999999999996
42
0.41421356237309592
10
25.999999999999996
20
15
10
89
20
15
42
0.41421356237309503
10
95
20
20.999999999999996
10
95
20
99.000000000000057
42
0.41421356237309503
0
LWPOLYLINE
5
110
100
AcDbEntity
8
0
100
AcDbPolyline
90
4
70
1
43
0.0
10
123
20
107.30000000000001
10
123
20
104.09999999999999
10
188
20
104.09999999999999
10
188
20
107.30000000000001
0
LWPOLYLINE
5
111
100
AcDbEntity
8
0
100
AcDbPolyline
90
4
70
1
43
0.0
10
125
20
15.9
10
125
20
12.699999999999998
10
190
20
12.699999999999998
10
190
20
15.899999999999999
0
LWPOLYLINE
5
112
100
AcDbEntity
8
0
100
AcDbPolyline
90
4
70
1
43
0.0
10
110.00000000000001
20
95
10
107.00000000000001
20
95
10
107.00000000000001
20
70.000000000000014
10
110.00000000000001
20
70.000000000000014
0
LWPOLYLINE
5
113
100
AcDbEntity
8
0
100
AcDbPolyline
90
4
70
1
43
0.0
10
110.00000000000001
20
50
10
107.00000000000001
20
50
10
107.00000000000001
20
25
10
110.00000000000001
20
25
0
CIRCLE
5
114
100
AcDbEntity
8
0
100
AcDbCircle
10
220
20
70
30
0
40
25.000000000000014
210
0
220
0
230
1
0
LWPOLYLINE
5
115
100
AcDbEntity
8
0
100
AcDbPolyline
90
4
70
1
43
0.0
10
203
20
104.09999999999999
10
203
20
107.30000000000001
10
268
20
107.30000000000001
10
268
20
104.09999999999999
0
LWPOLYLINE
5
116
100
AcDbEntity
8
0
100
AcDbPolyline
90
4
70
1
43
0.0
10
205
20
12.699999999999998
10
205
20
15.899999999999999
10
270
20
15.9
10
270
20
12.699999999999998
0
CIRCLE
5
117
100
AcDbEntity
8
0
100
AcDbCircle
10
199
20
91
30
0
40
1.6000000000000003
210
0
220
0
230
1
0
CIRCLE
5
118
100
AcDbEntity
8
0
100
AcDbCircle
10
199
20
49
30
0
40
1.6000000000000116
210
0
220
0
230
1
0
CIRCLE
5
119
100
AcDbEntity
8
0
100
AcDbCircle
10
240.99999999999997
20
48.999999999999993
30
0
40
1.6000000000000116
210
0
220
0
230
1
0
CIRCLE
5
120
100
AcDbEntity
8
0
100
AcDbCircle
10
240.99999999999997
20
91
30
0
40
1.5999999999999943
210
0
220
0
230
1
0
CIRCLE
5
121
100
AcDbEntity
8
0
100
AcDbCircle
10
108.50000000000001
20
107
30
0
40
1.599999999999997
210
0
220
0
230
1
0
CIRCLE
5
122
100
AcDbEntity
8
0
100
AcDbCircle
10
108.50000000000001
20
12.999999999999998
30
0
40
1.5999999999999968
210
0
220
0
230
1
0
ENDSEC
0
SECTION
2
OBJECTS
0
DICTIONARY
5
C
100
AcDbDictionary
3
ACAD_GROUP
350
D
3
ACAD_MLINESTYLE
350
17
0
DICTIONARY
5
D
100
AcDbDictionary
0
DICTIONARY
5
1A
330
C
100
AcDbDictionary
0
DICTIONARY
5
17
100
AcDbDictionary
0
ENDSEC
0
EOF
