0
SECTION
2
HEADER
9
$INSUNITS
70
4
9
$ACADVER
1
AC1014
9
$HANDSEED
5
FFFF
0
ENDSEC
0
SECTION
2
TABLES
0
TABLE
2
VPORT
5
8
100
AcDbSymbolTable
0
ENDTAB
0
TABLE
2
LTYPE
5
5
100
AcDbSymbolTable
0
LTYPE
5
14
100
AcDbSymbolTableRecord
100
AcDbLinetypeTableRecord
2
BYBLOCK
70
0
0
LTYPE
5
15
100
AcDbSymbolTableRecord
100
AcDbLinetypeTableRecord
2
BYLAYER
70
0
0
ENDTAB
0
TABLE
2
LAYER
5
2
100
AcDbSymbolTable
70
2
0
LAYER
5
50
100
AcDbSymbolTableRecord
100
AcDbLayerTableRecord
2
0
70
0
6
CONTINUOUS
0
ENDTAB
0
TABLE
2
STYLE
5
3
100
AcDbSymbolTable
70
1
0
STYLE
5
11
100
AcDbSymbolTableRecord
100
AcDbTextStyleTableRecord
2
STANDARD
70
0
0
ENDTAB
0
TABLE
2
VIEW
5
6
100
AcDbSymbolTable
70
0
0
ENDTAB
0
TABLE
2
UCS
5
7
100
AcDbSymbolTable
70
0
0
ENDTAB
0
TABLE
2
APPID
5
9
100
AcDbSymbolTable
70
2
0
APPID
5
12
100
AcDbSymbolTableRecord
100
AcDbRegAppTableRecord
2
ACAD
70
0
0
ENDTAB
0
TABLE
2
DIMSTYLE
5
A
100
AcDbSymbolTable
70
1
0
ENDTAB
0
TABLE
2
BLOCK_RECORD
5
1
100
AcDbSymbolTable
70
1
0
BLOCK_RECORD
5
1F
100
AcDbSymbolTableRecord
100
AcDbBlockTableRecord
2
*MODEL_SPACE
0
BLOCK_RECORD
5
1B
100
AcDbSymbolTableRecord
100
AcDbBlockTableRecord
2
*PAPER_SPACE
0
ENDTAB
0
ENDSEC
0
SECTION
2
BLOCKS
0
BLOCK
5
20
100
AcDbEntity
100
AcDbBlockBegin
2
*MODEL_SPACE
0
ENDBLK
5
21
100
AcDbEntity
100
AcDbBlockEnd
0
BLOCK
5
1C
100
AcDbEntity
100
AcDbBlockBegin
2
*PAPER_SPACE
0
ENDBLK
5
1D
100
AcDbEntity
100
AcDbBlockEnd
0
ENDSEC
0
SECTION
2
ENTITIES
0
LWPOLYLINE
5
100
100
AcDbEntity
8
0
100
AcDbPolyline
90
102
70
1
43
0.0
10
-3.0000000000000004
20
25
10
0
20
25
10
0
20
19.000000312924389
10
3.0000000000000004
20
19.000000312924389
10
3.0000000000000004
20
15.500000312924387
10
6.0000000000000009
20
15.500000312924387
10
6.0000000000000009
20
14.600000312924386
10
14.000000000000004
20
14.600000312924386
10
14.000000000000004
20
11.400000312924385
10
6.0000000000000009
20
11.400000312924385
10
6.0000000000000009
20
10.500000238418581
10
3.0000000000000004
20
10.500000238418581
10
3.0000000000000004
20
7.000000312924386
10
0
20
7.000000312924386
10
0
20
0
10
17
20
0
10
17
20
-3.0000000000000004
10
52
20
-3.0000000000000004
10
52
20
0
10
61.000000000000014
20
-6.7168492989821971e-14
10
61.000000000000014
20
3.0000000447034836
10
64.500000000000014
20
3.0000000447034836
10
64.500000000000014
20
6.0000000894069672
10
65.400000000000006
20
6.0000000894069672
10
65.400000000000006
20
14.000000089406967
10
68.600000000000009
20
14.000000089406967
10
68.600000000000009
20
6.0000000894069672
10
69.500000000000014
20
6.0000000894069672
10
69.500000000000014
20
3.0000000447034836
10
73.000000000000014
20
3.0000000447034836
10
73.000000000000014
20
-5.7592819872084722e-14
10
82
20
-1.6653345369377348e-15
10
82
20
-3.0000000000000022
10
162.88999999999999
20
-3.0000000000000071
10
162.88999999999999
20
-1.6653345369377348e-15
10
166.88999999999996
20
0
10
166.88999999999996
20
3.0000000447034836
10
170.38999999999999
20
3.0000000447034836
10
170.38999999999999
20
6.0000000447034836
10
171.28999999999996
20
6.0000000447034836
10
171.28999999999996
20
14.000000044703484
10
174.48999999999998
20
14.000000044703484
10
174.48999999999998
20
6.0000000447034836
10
175.38999999999999
20
6.0000000447034836
10
175.38999999999999
20
3.0000000447034836
10
178.88999999999996
20
3.0000000447034836
10
178.88999999999996
20
0
10
182
20
0
10
182
20
7.0000000000000009
10
185
20
7.0000000000000009
10
185
20
0
10
191
20
-5.8783046359072627e-16
10
195
20
0
10
195
20
17
42
0.4142135623730937
10
192
20
19.999999999999993
10
187.00000000000003
20
20
10
182
20
20
10
182
20
100
10
187.00000000000003
20
100
10
192
20
100
42
0.41421356237309331
10
195
20
103
10
195
20
120
10
191
20
120
10
185
20
120
10
185
20
113
10
182
20
113
10
182
20
120
10
147
20
120
10
147
20
112
10
133
20
112
10
133
20
108.99999999999999
10
129.5
20
108.99999999999999
10
129.5
20
105.99999999999997
10
128.60000000000002
20
105.99999999999997
10
128.60000000000002
20
97.999999999999972
10
125.40000000000001
20
97.999999999999972
10
125.40000000000001
20
105.99999999999997
10
124.50000000000001
20
105.99999999999997
10
124.50000000000001
20
108.99999999999999
10
121.00000000000001
20
108.99999999999999
10
121.00000000000001
20
112
10
107.00000000000001
20
112
10
107.00000000000001
20
120
10
0
20
120
10
0
20
113.00000171363352
10
3.0000000000000004
20
113.00000171363352
10
3.0000000000000004
20
109.50000171363354
10
6.0000000000000009
20
109.50000171363354
10
6.0000000000000009
20
108.60000171363353
10
14.000000000000002
20
108.60000171363353
10
14.000000000000002
20
105.40000171363353
10
6.0000000000000009
20
105.40000171363353
10
6.0000000000000009
20
104.50000163912773
10
3.0000000000000004
20
104.50000163912773
10
3.0000000000000004
20
101.00000171363354
10
1.22464679914735e-16
20
101.00000171363354
10
0
20
95
10
-3.0000000000000004
20
95
10
-3.0000000000000004
20
70
10
-9.8607613152626511e-31
20
70
10
0
20
50
10
-3.0000000000000004
20
50
0
LWPOLYLINE
5
101
100
AcDbEntity
8
0
100
AcDbPolyline
90
8
70
1
43
0.0
10
83
20
70
10
22
20
70
42
0.41421356237309048
10
20.000000000000004
20
68
10
19.999999999999996
20
56.999999999999993
42
0.41421356237309309
10
22.000000000000011
20
55
10
83
20
55.000000000000007
42
0.41421356237310025
10
85
20
57
10
85
20
68
42
0.41421356237310025
0
LWPOLYLINE
5
102
100
AcDbEntity
8
0
100
AcDbPolyline
90
8
70
1
43
0.0
10
83
20
75
10
22.000000000000007
20
75
42
-0.41421356237309503
10
20.000000000000004
20
77
10
20.000000000000004
20
78
42
-0.41421356237309503
10
22.000000000000011
20
80
10
83.000000000000028
20
80
42
-0.41421356237309243
10
85
20
78
10
85
20
77
42
-0.41421356237309503
0
LWPOLYLINE
5
103
100
AcDbEntity
8
0
100
AcDbPolyline
90
8
70
1
43
0.0
10
83
20
85
10
22
20
85
42
-0.41421356237309503
10
20
20
87
10
20.000000000000007
20
88
42
-0.41421356237309503
10
22
20
90
10
83
20
90
42
-0.41421356237309503
10
85
20
88
10
85
20
87.000000000000014
42
-0.41421356237309764
0
LWPOLYLINE
5
104
100
AcDbEntity
8
0
100
AcDbPolyline
90
8
70
1
43
0.0
10
83
20
95
10
22
20
95
42
-0.41421356237309764
10
20.000000000000004
20
97.000000000000014
10
20.000000000000007
20
98.000000000000043
42
-0.41421356237308982
10
22
20
100
10
83
20
100
42
-0.41421356237309503
10
85
20
98
10
85
20
97
42
-0.41421356237309503
0
LWPOLYLINE
5
105
100
AcDbEntity
8
0
100
AcDbPolyline
90
8
70
1
43
0.0
10
83
20
50
10
22.000000000000007
20
50
42
0.4142135623730937
10
20.000000000000004
20
48.000000000000007
10
20.000000000000004
20
47
42
0.41421356237309503
10
22.000000000000011
20
45
10
83.000000000000028
20
45.000000000000014
42
0.41421356237309243
10
85
20
47
10
85
20
48.000000000000007
42
0.4142135623730937
0
LWPOLYLINE
5
106
100
AcDbEntity
8
0
100
AcDbPolyline
90
8
70
1
43
0.0
10
83
20
40
10
22
20
40
42
0.4142135623730957
10
19.999999999999996
20
37.999999999999993
10
20.000000000000004
20
37.000000000000014
42
0.41421356237309631
10
22
20
35
10
83
20
34.999999999999993
42
0.41421356237309698
10
85
20
37
10
85
20
38
42
0.41421356237309503
0
ENDSEC
0
SECTION
2
OBJECTS
0
DICTIONARY
5
C
100
AcDbDictionary
3
ACAD_GROUP
350
D
3
ACAD_MLINESTYLE
350
17
0
DICTIONARY
5
D
100
AcDbDictionary
0
DICTIONARY
5
1A
330
C
100
AcDbDictionary
0
DICTIONARY
5
17
100
AcDbDictionary
0
ENDSEC
0
EOF
