0
SECTION
2
HEADER
9
$INSUNITS
70
4
9
$ACADVER
1
AC1014
9
$HANDSEED
5
FFFF
0
ENDSEC
0
SECTION
2
TABLES
0
TABLE
2
VPORT
5
8
100
AcDbSymbolTable
0
ENDTAB
0
TABLE
2
LTYPE
5
5
100
AcDbSymbolTable
0
LTYPE
5
14
100
AcDbSymbolTableRecord
100
AcDbLinetypeTableRecord
2
BYBLOCK
70
0
0
LTYPE
5
15
100
AcDbSymbolTableRecord
100
AcDbLinetypeTableRecord
2
BYLAYER
70
0
0
ENDTAB
0
TABLE
2
LAYER
5
2
100
AcDbSymbolTable
70
2
0
LAYER
5
50
100
AcDbSymbolTableRecord
100
AcDbLayerTableRecord
2
0
70
0
6
CONTINUOUS
0
ENDTAB
0
TABLE
2
STYLE
5
3
100
AcDbSymbolTable
70
1
0
STYLE
5
11
100
AcDbSymbolTableRecord
100
AcDbTextStyleTableRecord
2
STANDARD
70
0
0
ENDTAB
0
TABLE
2
VIEW
5
6
100
AcDbSymbolTable
70
0
0
ENDTAB
0
TABLE
2
UCS
5
7
100
AcDbSymbolTable
70
0
0
ENDTAB
0
TABLE
2
APPID
5
9
100
AcDbSymbolTable
70
2
0
APPID
5
12
100
AcDbSymbolTableRecord
100
AcDbRegAppTableRecord
2
ACAD
70
0
0
ENDTAB
0
TABLE
2
DIMSTYLE
5
A
100
AcDbSymbolTable
70
1
0
ENDTAB
0
TABLE
2
BLOCK_RECORD
5
1
100
AcDbSymbolTable
70
1
0
BLOCK_RECORD
5
1F
100
AcDbSymbolTableRecord
100
AcDbBlockTableRecord
2
*MODEL_SPACE
0
BLOCK_RECORD
5
1B
100
AcDbSymbolTableRecord
100
AcDbBlockTableRecord
2
*PAPER_SPACE
0
ENDTAB
0
ENDSEC
0
SECTION
2
BLOCKS
0
BLOCK
5
20
100
AcDbEntity
100
AcDbBlockBegin
2
*MODEL_SPACE
0
ENDBLK
5
21
100
AcDbEntity
100
AcDbBlockEnd
0
BLOCK
5
1C
100
AcDbEntity
100
AcDbBlockBegin
2
*PAPER_SPACE
0
ENDBLK
5
1D
100
AcDbEntity
100
AcDbBlockEnd
0
ENDSEC
0
SECTION
2
ENTITIES
0
LWPOLYLINE
5
100
100
AcDbEntity
8
0
100
AcDbPolyline
90
16
70
1
43
0.0
10
200
20
120
10
200
20
0
10
160
20
0
10
160
20
-3.0000000000000004
10
35
20
-3.0000000000000004
10
35.000000000000007
20
0
10
0
20
0
10
0
20
25
10
2.9999999999999982
20
25
10
2.9999999999999982
20
95
10
0
20
95
10
0
20
120
10
35
20
120
10
35
20
123
10
160
20
123
10
160
20
120
0
CIRCLE
5
101
100
AcDbEntity
8
0
100
AcDbCircle
10
17
20
100
30
0
40
1.599999999999995
210
0
220
0
230
1
0
CIRCLE
5
102
100
AcDbEntity
8
0
100
AcDbCircle
10
17
20
20
30
0
40
1.5999999999999996
210
0
220
0
230
1
0
CIRCLE
5
103
100
AcDbEntity
8
0
100
AcDbCircle
10
171
20
20
30
0
40
1.6000000000000014
210
0
220
0
230
1
0
CIRCLE
5
104
100
AcDbEntity
8
0
100
AcDbCircle
10
171
20
100
30
0
40
1.6000000000000014
210
0
220
0
230
1
0
LINE
5
105
100
AcDbEntity
8
0
100
AcDbLine
10
36.499999866084615
20
60.000684619492112
30
0
11
36.499999866084607
21
95.00068461949212
31
0
0
LINE
5
106
100
AcDbEntity
8
0
100
AcDbLine
10
33.015154924309897
20
95.230495472149471
30
0
11
33.000000214112134
21
60.000630316510701
31
0
0
ARC
5
107
100
AcDbEntity
8
0
100
AcDbCircle
10
34.749999866084607
20
95.00068461949212
30
0
40
1.7499999999999982
210
0
220
0
230
1
100
AcDbArc
50
0
51
187.49661142498701
0
ARC
5
108
100
AcDbEntity
8
0
100
AcDbCircle
10
34.750000052199304
20
59.999877525085729
30
0
40
1.7500000000000129
210
0
220
0
230
1
100
AcDbArc
50
-180.02464672732566
51
0.026424631293100555
0
ARC
5
109
100
AcDbEntity
8
0
100
AcDbCircle
10
41.750000052199297
20
59.999877525085729
30
0
40
1.7500000000000129
210
0
220
0
230
1
100
AcDbArc
50
-180.02464672732566
51
0.026424631293100555
0
LINE
5
110
100
AcDbEntity
8
0
100
AcDbLine
10
40.015154924309897
20
95.230495472149471
30
0
11
40.000000214112134
21
60.000630316510701
31
0
0
LINE
5
111
100
AcDbEntity
8
0
100
AcDbLine
10
43.499999866084607
20
60.000684619492112
30
0
11
43.4999998660846
21
95.00068461949212
31
0
0
ARC
5
112
100
AcDbEntity
8
0
100
AcDbCircle
10
41.749999866084607
20
95.00068461949212
30
0
40
1.7499999999999982
210
0
220
0
230
1
100
AcDbArc
50
0
51
187.49661142498692
0
ARC
5
113
100
AcDbEntity
8
0
100
AcDbCircle
10
48.750000052199297
20
59.999877525085729
30
0
40
1.750000000000004
210
0
220
0
230
1
100
AcDbArc
50
-180.02464672732566
51
0.026424631293100555
0
LINE
5
114
100
AcDbEntity
8
0
100
AcDbLine
10
47.01515492430989
20
95.230495472149471
30
0
11
47.000000214112134
21
60.000630316510701
31
0
0
LINE
5
115
100
AcDbEntity
8
0
100
AcDbLine
10
50.499999866084607
20
60.000684619492112
30
0
11
50.499999866084607
21
95.00068461949212
31
0
0
ARC
5
116
100
AcDbEntity
8
0
100
AcDbCircle
10
48.749999866084593
20
95.00068461949212
30
0
40
1.7500000000000071
210
0
220
0
230
1
100
AcDbArc
50
0
51
187.49661142498701
0
ARC
5
117
100
AcDbEntity
8
0
100
AcDbCircle
10
55.750000052199297
20
59.999877525085729
30
0
40
1.7500000000000129
210
0
220
0
230
1
100
AcDbArc
50
-180.02464672732566
51
0.026424631293100555
0
LINE
5
118
100
AcDbEntity
8
0
100
AcDbLine
10
54.015154924309883
20
95.230495472149471
30
0
11
54.000000214112127
21
60.000630316510701
31
0
0
LINE
5
119
100
AcDbEntity
8
0
100
AcDbLine
10
57.499999866084607
20
60.000684619492112
30
0
11
57.499999866084593
21
95.00068461949212
31
0
0
ARC
5
120
100
AcDbEntity
8
0
100
AcDbCircle
10
55.7499998660846
20
95.00068461949212
30
0
40
1.7499999999999982
210
0
220
0
230
1
100
AcDbArc
50
0
51
187.49661142498701
0
ARC
5
121
100
AcDbEntity
8
0
100
AcDbCircle
10
62.750000052199297
20
59.999877525085729
30
0
40
1.7500000000000218
210
0
220
0
230
1
100
AcDbArc
50
-180.02464672732566
51
0.026424631293100555
0
LINE
5
122
100
AcDbEntity
8
0
100
AcDbLine
10
61.015154924309883
20
95.230495472149471
30
0
11
61.00000021411212
21
60.000630316510701
31
0
0
LINE
5
123
100
AcDbEntity
8
0
100
AcDbLine
10
64.499999866084607
20
60.000684619492112
30
0
11
64.499999866084593
21
95.00068461949212
31
0
0
ARC
5
124
100
AcDbEntity
8
0
100
AcDbCircle
10
62.7499998660846
20
95.00068461949212
30
0
40
1.7499999999999893
210
0
220
0
230
1
100
AcDbArc
50
0
51
187.49661142498692
0
ARC
5
125
100
AcDbEntity
8
0
100
AcDbCircle
10
69.750000052199283
20
59.999877525085729
30
0
40
1.7500000000000129
210
0
220
0
230
1
100
AcDbArc
50
-180.02464672732566
51
0.026424631306893168
0
LINE
5
126
100
AcDbEntity
8
0
100
AcDbLine
10
68.015154924309883
20
95.230495472149471
30
0
11
68.00000021411212
21
60.000630316510701
31
0
0
LINE
5
127
100
AcDbEntity
8
0
100
AcDbLine
10
71.499999866084607
20
60.000684619492112
30
0
11
71.499999866084593
21
95.00068461949212
31
0
0
ARC
5
128
100
AcDbEntity
8
0
100
AcDbCircle
10
69.749999866084593
20
95.00068461949212
30
0
40
1.7499999999999982
210
0
220
0
230
1
100
AcDbArc
50
0
51
187.49661142498692
0
ARC
5
129
100
AcDbEntity
8
0
100
AcDbCircle
10
76.750000052199283
20
59.999877525085729
30
0
40
1.750000000000004
210
0
220
0
230
1
100
AcDbArc
50
-180.02464672732566
51
0.026424631293100555
0
LINE
5
130
100
AcDbEntity
8
0
100
AcDbLine
10
75.015154924309883
20
95.230495472149471
30
0
11
75.00000021411212
21
60.000630316510701
31
0
0
LINE
5
131
100
AcDbEntity
8
0
100
AcDbLine
10
78.499999866084593
20
60.000684619492112
30
0
11
78.499999866084593
21
95.00068461949212
31
0
0
ARC
5
132
100
AcDbEntity
8
0
100
AcDbCircle
10
76.749999866084579
20
95.00068461949212
30
0
40
1.7500000000000071
210
0
220
0
230
1
100
AcDbArc
50
0
51
187.49661142498704
0
ARC
5
133
100
AcDbEntity
8
0
100
AcDbCircle
10
83.750000052199297
20
59.999877525085729
30
0
40
1.7500000000000218
210
0
220
0
230
1
100
AcDbArc
50
-180.02464672732566
51
0.026424631293100555
0
LINE
5
134
100
AcDbEntity
8
0
100
AcDbLine
10
82.015154924309883
20
95.230495472149471
30
0
11
82.00000021411212
21
60.000630316510701
31
0
0
LINE
5
135
100
AcDbEntity
8
0
100
AcDbLine
10
85.499999866084607
20
60.000684619492112
30
0
11
85.499999866084579
21
95.00068461949212
31
0
0
ARC
5
136
100
AcDbEntity
8
0
100
AcDbCircle
10
83.749999866084593
20
95.00068461949212
30
0
40
1.7499999999999893
210
0
220
0
230
1
100
AcDbArc
50
0
51
187.49661142498701
0
ARC
5
137
100
AcDbEntity
8
0
100
AcDbCircle
10
90.750000052199283
20
59.999877525085729
30
0
40
1.7500000000000218
210
0
220
0
230
1
100
AcDbArc
50
-180.02464672732566
51
0.026424631293100555
0
LINE
5
138
100
AcDbEntity
8
0
100
AcDbLine
10
89.015154924309883
20
95.230495472149471
30
0
11
89.000000214112106
21
60.000630316510701
31
0
0
LINE
5
139
100
AcDbEntity
8
0
100
AcDbLine
10
92.499999866084593
20
60.000684619492112
30
0
11
92.499999866084579
21
95.00068461949212
31
0
0
ARC
5
140
100
AcDbEntity
8
0
100
AcDbCircle
10
90.749999866084593
20
95.00068461949212
30
0
40
1.7499999999999893
210
0
220
0
230
1
100
AcDbArc
50
0
51
187.49661142498692
0
ARC
5
141
100
AcDbEntity
8
0
100
AcDbCircle
10
97.750000052199283
20
59.999877525085729
30
0
40
1.7500000000000218
210
0
220
0
230
1
100
AcDbArc
50
-180.02464672732566
51
0.026424631293100555
0
LINE
5
142
100
AcDbEntity
8
0
100
AcDbLine
10
96.015154924309883
20
95.230495472149471
30
0
11
96.000000214112106
21
60.000630316510701
31
0
0
LINE
5
143
100
AcDbEntity
8
0
100
AcDbLine
10
99.499999866084593
20
60.000684619492112
30
0
11
99.499999866084579
21
95.00068461949212
31
0
0
ARC
5
144
100
AcDbEntity
8
0
100
AcDbCircle
10
97.749999866084579
20
95.00068461949212
30
0
40
1.7499999999999893
210
0
220
0
230
1
100
AcDbArc
50
0
51
187.49661142498701
0
ARC
5
145
100
AcDbEntity
8
0
100
AcDbCircle
10
104.75000005219927
20
59.999877525085729
30
0
40
1.750000000000004
210
0
220
0
230
1
100
AcDbArc
50
-180.02464672732566
51
0.026424631293100555
0
LINE
5
146
100
AcDbEntity
8
0
100
AcDbLine
10
103.01515492430987
20
95.230495472149471
30
0
11
103.00000021411211
21
60.000630316510701
31
0
0
LINE
5
147
100
AcDbEntity
8
0
100
AcDbLine
10
106.49999986608458
20
60.000684619492112
30
0
11
106.49999986608458
21
95.00068461949212
31
0
0
ARC
5
148
100
AcDbEntity
8
0
100
AcDbCircle
10
104.74999986608458
20
95.00068461949212
30
0
40
1.7500000000000071
210
0
220
0
230
1
100
AcDbArc
50
0
51
187.49661142498701
0
ARC
5
149
100
AcDbEntity
8
0
100
AcDbCircle
10
111.75000005219928
20
59.999877525085729
30
0
40
1.7500000000000218
210
0
220
0
230
1
100
AcDbArc
50
-180.02464672732566
51
0.026424631293100555
0
LINE
5
150
100
AcDbEntity
8
0
100
AcDbLine
10
110.01515492430985
20
95.230495472149471
30
0
11
110.00000021411211
21
60.000630316510701
31
0
0
LINE
5
151
100
AcDbEntity
8
0
100
AcDbLine
10
113.49999986608459
20
60.000684619492112
30
0
11
113.49999986608458
21
95.00068461949212
31
0
0
ARC
5
152
100
AcDbEntity
8
0
100
AcDbCircle
10
111.74999986608458
20
95.00068461949212
30
0
40
1.7499999999999893
210
0
220
0
230
1
100
AcDbArc
50
0
51
187.49661142498701
0
ARC
5
153
100
AcDbEntity
8
0
100
AcDbCircle
10
118.75000005219928
20
59.999877525085729
30
0
40
1.7500000000000218
210
0
220
0
230
1
100
AcDbArc
50
-180.02464672732566
51
0.026424631306893168
0
LINE
5
154
100
AcDbEntity
8
0
100
AcDbLine
10
117.01515492430985
20
95.230495472149471
30
0
11
117.00000021411211
21
60.000630316510701
31
0
0
LINE
5
155
100
AcDbEntity
8
0
100
AcDbLine
10
120.49999986608458
20
60.000684619492112
30
0
11
120.49999986608456
21
95.00068461949212
31
0
0
ARC
5
156
100
AcDbEntity
8
0
100
AcDbCircle
10
118.74999986608458
20
95.00068461949212
30
0
40
1.7499999999999893
210
0
220
0
230
1
100
AcDbArc
50
0
51
187.49661142498701
0
ARC
5
157
100
AcDbEntity
8
0
100
AcDbCircle
10
125.75000005219927
20
59.999877525085729
30
0
40
1.7500000000000218
210
0
220
0
230
1
100
AcDbArc
50
-180.02464672732566
51
0.026424631293100555
0
LINE
5
158
100
AcDbEntity
8
0
100
AcDbLine
10
124.01515492430985
20
95.230495472149471
30
0
11
124.00000021411209
21
60.000630316510701
31
0
0
LINE
5
159
100
AcDbEntity
8
0
100
AcDbLine
10
127.49999986608458
20
60.000684619492112
30
0
11
127.49999986608456
21
95.00068461949212
31
0
0
ARC
5
160
100
AcDbEntity
8
0
100
AcDbCircle
10
125.74999986608458
20
95.00068461949212
30
0
40
1.7499999999999893
210
0
220
0
230
1
100
AcDbArc
50
0
51
187.49661142498692
0
ARC
5
161
100
AcDbEntity
8
0
100
AcDbCircle
10
132.75000005219928
20
59.999877525085729
30
0
40
1.7500000000000218
210
0
220
0
230
1
100
AcDbArc
50
-180.02464672732566
51
0.026424631306893168
0
LINE
5
162
100
AcDbEntity
8
0
100
AcDbLine
10
131.01515492430988
20
95.230495472149471
30
0
11
131.00000021411211
21
60.000630316510701
31
0
0
LINE
5
163
100
AcDbEntity
8
0
100
AcDbLine
10
134.49999986608458
20
60.000684619492112
30
0
11
134.49999986608458
21
95.00068461949212
31
0
0
ARC
5
164
100
AcDbEntity
8
0
100
AcDbCircle
10
132.74999986608458
20
95.00068461949212
30
0
40
1.7499999999999893
210
0
220
0
230
1
100
AcDbArc
50
0
51
187.49661142498701
0
ARC
5
165
100
AcDbEntity
8
0
100
AcDbCircle
10
139.75000005219928
20
59.999877525085729
30
0
40
1.7500000000000218
210
0
220
0
230
1
100
AcDbArc
50
-180.02464672732566
51
0.026424631306893168
0
LINE
5
166
100
AcDbEntity
8
0
100
AcDbLine
10
138.01515492430985
20
95.230495472149471
30
0
11
138.00000021411211
21
60.000630316510701
31
0
0
LINE
5
167
100
AcDbEntity
8
0
100
AcDbLine
10
141.49999986608458
20
60.000684619492112
30
0
11
141.49999986608458
21
95.00068461949212
31
0
0
ARC
5
168
100
AcDbEntity
8
0
100
AcDbCircle
10
139.74999986608458
20
95.00068461949212
30
0
40
1.7499999999999893
210
0
220
0
230
1
100
AcDbArc
50
0
51
187.49661142498701
0
ARC
5
169
100
AcDbEntity
8
0
100
AcDbCircle
10
146.75000005219925
20
59.999877525085729
30
0
40
1.7500000000000218
210
0
220
0
230
1
100
AcDbArc
50
-180.02464672732566
51
0.026424631306893168
0
LINE
5
170
100
AcDbEntity
8
0
100
AcDbLine
10
145.01515492430985
20
95.230495472149471
30
0
11
145.00000021411208
21
60.000630316510701
31
0
0
LINE
5
171
100
AcDbEntity
8
0
100
AcDbLine
10
148.49999986608458
20
60.000684619492112
30
0
11
148.49999986608455
21
95.00068461949212
31
0
0
ARC
5
172
100
AcDbEntity
8
0
100
AcDbCircle
10
146.74999986608458
20
95.00068461949212
30
0
40
1.7499999999999893
210
0
220
0
230
1
100
AcDbArc
50
0
51
187.49661142498684
0
ARC
5
173
100
AcDbEntity
8
0
100
AcDbCircle
10
153.75000005219925
20
59.999877525085729
30
0
40
1.7500000000000218
210
0
220
0
230
1
100
AcDbArc
50
-180.02464672732566
51
0.026424631306893168
0
LINE
5
174
100
AcDbEntity
8
0
100
AcDbLine
10
152.01515492430985
20
95.230495472149471
30
0
11
152.00000021411208
21
60.000630316510701
31
0
0
LINE
5
175
100
AcDbEntity
8
0
100
AcDbLine
10
155.49999986608458
20
60.000684619492112
30
0
11
155.49999986608455
21
95.00068461949212
31
0
0
ARC
5
176
100
AcDbEntity
8
0
100
AcDbCircle
10
153.74999986608455
20
95.00068461949212
30
0
40
1.7499999999999893
210
0
220
0
230
1
100
AcDbArc
50
0
51
187.49661142498701
0
ENDSEC
0
SECTION
2
OBJECTS
0
DICTIONARY
5
C
100
AcDbDictionary
3
ACAD_GROUP
350
D
3
ACAD_MLINESTYLE
350
17
0
DICTIONARY
5
D
100
AcDbDictionary
0
DICTIONARY
5
1A
330
C
100
AcDbDictionary
0
DICTIONARY
5
17
100
AcDbDictionary
0
ENDSEC
0
EOF
