0
SECTION
2
HEADER
9
$INSUNITS
70
4
9
$ACADVER
1
AC1014
9
$HANDSEED
5
FFFF
0
ENDSEC
0
SECTION
2
TABLES
0
TABLE
2
VPORT
5
8
100
AcDbSymbolTable
0
ENDTAB
0
TABLE
2
LTYPE
5
5
100
AcDbSymbolTable
0
LTYPE
5
14
100
AcDbSymbolTableRecord
100
AcDbLinetypeTableRecord
2
BYBLOCK
70
0
0
LTYPE
5
15
100
AcDbSymbolTableRecord
100
AcDbLinetypeTableRecord
2
BYLAYER
70
0
0
ENDTAB
0
TABLE
2
LAYER
5
2
100
AcDbSymbolTable
70
2
0
LAYER
5
50
100
AcDbSymbolTableRecord
100
AcDbLayerTableRecord
2
0
70
0
6
CONTINUOUS
0
ENDTAB
0
TABLE
2
STYLE
5
3
100
AcDbSymbolTable
70
1
0
STYLE
5
11
100
AcDbSymbolTableRecord
100
AcDbTextStyleTableRecord
2
STANDARD
70
0
0
ENDTAB
0
TABLE
2
VIEW
5
6
100
AcDbSymbolTable
70
0
0
ENDTAB
0
TABLE
2
UCS
5
7
100
AcDbSymbolTable
70
0
0
ENDTAB
0
TABLE
2
APPID
5
9
100
AcDbSymbolTable
70
2
0
APPID
5
12
100
AcDbSymbolTableRecord
100
AcDbRegAppTableRecord
2
ACAD
70
0
0
ENDTAB
0
TABLE
2
DIMSTYLE
5
A
100
AcDbSymbolTable
70
1
0
ENDTAB
0
TABLE
2
BLOCK_RECORD
5
1
100
AcDbSymbolTable
70
1
0
BLOCK_RECORD
5
1F
100
AcDbSymbolTableRecord
100
AcDbBlockTableRecord
2
*MODEL_SPACE
0
BLOCK_RECORD
5
1B
100
AcDbSymbolTableRecord
100
AcDbBlockTableRecord
2
*PAPER_SPACE
0
ENDTAB
0
ENDSEC
0
SECTION
2
BLOCKS
0
BLOCK
5
20
100
AcDbEntity
100
AcDbBlockBegin
2
*MODEL_SPACE
0
ENDBLK
5
21
100
AcDbEntity
100
AcDbBlockEnd
0
BLOCK
5
1C
100
AcDbEntity
100
AcDbBlockBegin
2
*PAPER_SPACE
0
ENDBLK
5
1D
100
AcDbEntity
100
AcDbBlockEnd
0
ENDSEC
0
SECTION
2
ENTITIES
0
LWPOLYLINE
5
100
100
AcDbEntity
8
0
100
AcDbPolyline
90
33
70
1
43
0.0
10
0
20
-110
10
103
20
-110
10
103
20
-74.749999999999986
10
108
20
-74.749999999999986
42
0.41421356237309076
10
111.00000000000001
20
-71.749999999999986
10
111.00000000000001
20
-38.249999999999986
42
0.41421356237309076
10
108
20
-35.249999999999986
10
103
20
-35.249999999999986
10
103
20
3.3125995043460457e-31
10
97.999999999999986
20
0
10
97.999999999999986
20
-6.0000000000000009
10
92
20
-6.0000000000000009
10
92
20
3.1261104867017383e-31
10
28.000000000000004
20
0
10
28.000000000000004
20
-6.0000000000000009
10
22
20
-6.0000000000000009
10
22
20
2.8517600514279729e-31
10
15
20
0
10
15
20
-9.9999999999999982
10
12.000000000000004
20
-19.999999999999996
10
0
20
-20
10
0
20
-25.04999999999999
10
-2.4999999999999982
20
-25.04999999999999
42
0.41421356237309631
10
-3.4999999999999982
20
-26.049999999999997
10
-3.4999999999999982
20
-44.049999999999997
42
0.41421356237309498
10
-2.4999999999999982
20
-45.049999999999997
10
-3.3616231756577205e-32
20
-45.04999999999999
10
0
20
-64.949999999999989
10
-2.5000000000000009
20
-64.949999999999989
42
0.41421356237309503
10
-3.5000000000000013
20
-65.949999999999989
10
-3.5000000000000004
20
-83.949999999999989
42
0.41421356237309825
10
-2.5000000000000004
20
-84.949999999999989
10
-7.8325819992824904e-32
20
-84.949999999999989
0
CIRCLE
5
101
100
AcDbEntity
8
0
100
AcDbCircle
10
105
20
-54.999999999999986
30
0
40
1.5999999999999914
210
0
220
0
230
1
0
LWPOLYLINE
5
102
100
AcDbEntity
8
0
100
AcDbPolyline
90
12
70
1
43
0.0
10
45.90414504687957
20
-62.641380867443431
10
49.804815113724175
20
-47.386285061466999
10
51.869954807771855
20
-48.790272420247163
10
54.235658369028613
20
-48.790272420247163
10
50.744725584747094
20
-57.010674489846593
10
56.500000722706318
20
-54.500000812113285
10
54.528402688221789
20
-64.850890493157038
10
57.05325447137777
20
-64.850890493157038
10
51.739908959892617
20
-70.289284657890619
10
49.43697800436329
20
-63.428863829993325
10
51.739908959892617
20
-64.017714530014743
10
52.174796038931049
20
-59.905880303072763
0
LINE
5
103
100
AcDbEntity
8
0
100
AcDbLine
10
51.340770802217143
20
-40.323682333207032
30
0
11
34.677633219931522
21
-71.415793799594724
31
0
0
LINE
5
104
100
AcDbEntity
8
0
100
AcDbLine
10
51.340770802217143
20
-40.323682333207032
30
0
11
68.003908384502751
21
-71.415793799594724
31
0
0
LINE
5
105
100
AcDbEntity
8
0
100
AcDbLine
10
68.003908384502751
20
-71.415793799594724
30
0
11
34.677633219931522
21
-71.415793799594724
31
0
0
LWPOLYLINE
5
106
100
AcDbEntity
8
0
100
AcDbPolyline
90
6
70
1
43
0.0
10
73.191060313574923
20
-71.317384399254721
42
-0.56685679907938735
10
70.36741408814423
20
-76.034242709586749
10
32.314127516290057
20
-76.034242709586749
42
-0.56685679907939213
10
29.490481290859361
20
-71.317384399254721
10
48.517124576786451
20
-35.81515614506673
42
-0.59862858700793142
10
54.164417027647829
20
-35.815156145066737
0
ENDSEC
0
SECTION
2
OBJECTS
0
DICTIONARY
5
C
100
AcDbDictionary
3
ACAD_GROUP
350
D
3
ACAD_MLINESTYLE
350
17
0
DICTIONARY
5
D
100
AcDbDictionary
0
DICTIONARY
5
1A
330
C
100
AcDbDictionary
0
DICTIONARY
5
17
100
AcDbDictionary
0
ENDSEC
0
EOF
