0
SECTION
2
HEADER
9
$INSUNITS
70
4
9
$ACADVER
1
AC1014
9
$HANDSEED
5
FFFF
0
ENDSEC
0
SECTION
2
TABLES
0
TABLE
2
VPORT
5
8
100
AcDbSymbolTable
0
ENDTAB
0
TABLE
2
LTYPE
5
5
100
AcDbSymbolTable
0
LTYPE
5
14
100
AcDbSymbolTableRecord
100
AcDbLinetypeTableRecord
2
BYBLOCK
70
0
0
LTYPE
5
15
100
AcDbSymbolTableRecord
100
AcDbLinetypeTableRecord
2
BYLAYER
70
0
0
ENDTAB
0
TABLE
2
LAYER
5
2
100
AcDbSymbolTable
70
2
0
LAYER
5
50
100
AcDbSymbolTableRecord
100
AcDbLayerTableRecord
2
0
70
0
6
CONTINUOUS
0
ENDTAB
0
TABLE
2
STYLE
5
3
100
AcDbSymbolTable
70
1
0
STYLE
5
11
100
AcDbSymbolTableRecord
100
AcDbTextStyleTableRecord
2
STANDARD
70
0
0
ENDTAB
0
TABLE
2
VIEW
5
6
100
AcDbSymbolTable
70
0
0
ENDTAB
0
TABLE
2
UCS
5
7
100
AcDbSymbolTable
70
0
0
ENDTAB
0
TABLE
2
APPID
5
9
100
AcDbSymbolTable
70
2
0
APPID
5
12
100
AcDbSymbolTableRecord
100
AcDbRegAppTableRecord
2
ACAD
70
0
0
ENDTAB
0
TABLE
2
DIMSTYLE
5
A
100
AcDbSymbolTable
70
1
0
ENDTAB
0
TABLE
2
BLOCK_RECORD
5
1
100
AcDbSymbolTable
70
1
0
BLOCK_RECORD
5
1F
100
AcDbSymbolTableRecord
100
AcDbBlockTableRecord
2
*MODEL_SPACE
0
BLOCK_RECORD
5
1B
100
AcDbSymbolTableRecord
100
AcDbBlockTableRecord
2
*PAPER_SPACE
0
ENDTAB
0
ENDSEC
0
SECTION
2
BLOCKS
0
BLOCK
5
20
100
AcDbEntity
100
AcDbBlockBegin
2
*MODEL_SPACE
0
ENDBLK
5
21
100
AcDbEntity
100
AcDbBlockEnd
0
BLOCK
5
1C
100
AcDbEntity
100
AcDbBlockBegin
2
*PAPER_SPACE
0
ENDBLK
5
1D
100
AcDbEntity
100
AcDbBlockEnd
0
ENDSEC
0
SECTION
2
ENTITIES
0
LWPOLYLINE
5
100
100
AcDbEntity
8
0
100
AcDbPolyline
90
6
70
1
43
0.0
10
290
20
123
10
290
20
-3.0000000000000071
10
0
20
-3.0000000000000071
10
0
20
25
10
0
20
95
10
0
20
123
0
CIRCLE
5
101
100
AcDbEntity
8
0
100
AcDbCircle
10
281
20
15
30
0
40
2.0999999999999903
210
0
220
0
230
1
0
CIRCLE
5
102
100
AcDbEntity
8
0
100
AcDbCircle
10
281
20
105
30
0
40
2.1000000000000032
210
0
220
0
230
1
0
CIRCLE
5
103
100
AcDbEntity
8
0
100
AcDbCircle
10
9
20
105
30
0
40
2.0999999999999961
210
0
220
0
230
1
0
CIRCLE
5
104
100
AcDbEntity
8
0
100
AcDbCircle
10
9
20
15
30
0
40
2.1000000000000001
210
0
220
0
230
1
0
LINE
5
105
100
AcDbEntity
8
0
100
AcDbLine
10
288
20
95
30
0
11
290
21
95
31
0
0
LINE
5
106
100
AcDbEntity
8
0
100
AcDbLine
10
0
20
25
30
0
11
3.0000000000000004
21
25
31
0
0
LWPOLYLINE
5
107
100
AcDbEntity
8
0
100
AcDbPolyline
90
4
70
1
43
0.0
10
218.5
20
45.045040573064426
10
218.5
20
94.954959426935588
42
-0.030027048709626282
10
221.50000000000003
20
94.954959426935574
10
221.50000000000003
20
45.045040573064419
42
-0.030027048709626282
0
LWPOLYLINE
5
108
100
AcDbEntity
8
0
100
AcDbPolyline
90
2
70
1
43
0.0
10
197.49999999999997
20
59.102752641148356
10
197.49999999999997
20
80.897247358851644
42
0.22941573387056077
0
LWPOLYLINE
5
109
100
AcDbEntity
8
0
100
AcDbPolyline
90
4
70
1
43
0.0
10
200.49999999999997
20
54.355512152838003
10
200.49999999999997
20
85.644487847162026
42
-0.043489150119962607
10
203.49999999999997
20
88.781639970992941
10
203.49999999999994
20
51.218360029007066
42
-0.043489150119962607
0
LWPOLYLINE
5
110
100
AcDbEntity
8
0
100
AcDbPolyline
90
4
70
1
43
0.0
10
206.5
20
48.958374587499179
10
206.49999999999994
20
91.041625412500821
42
-0.034261343673467726
10
209.5
20
92.688102609076864
10
209.50000000000003
20
47.311897390923122
42
-0.034261343673467726
0
LWPOLYLINE
5
111
100
AcDbEntity
8
0
100
AcDbPolyline
90
4
70
1
43
0.0
10
212.5
20
46.151519964576337
10
212.50000000000003
20
93.848480035423663
42
-0.030936414381541096
10
215.5
20
94.591665254715892
10
215.5
20
45.408334745284108
42
-0.030936414381541096
0
LWPOLYLINE
5
112
100
AcDbEntity
8
0
100
AcDbPolyline
90
4
70
1
43
0.0
10
224.50000000000003
20
45.408334745284122
10
224.50000000000003
20
94.591665254715878
42
-0.030936414381541318
10
227.50000000000003
20
93.848480035423648
10
227.50000000000003
20
46.151519964576352
42
-0.030936414381541318
0
LWPOLYLINE
5
113
100
AcDbEntity
8
0
100
AcDbPolyline
90
4
70
1
43
0.0
10
230.50000000000006
20
47.31189739092315
10
230.50000000000006
20
92.68810260907685
42
-0.034261343673467504
10
233.50000000000006
20
91.041625412500792
10
233.5
20
48.9583745874992
42
-0.034261343673467504
0
LWPOLYLINE
5
114
100
AcDbEntity
8
0
100
AcDbPolyline
90
4
70
1
43
0.0
10
236.50000000000006
20
51.21836002900708
10
236.50000000000003
20
88.781639970992927
42
-0.043489150119963162
10
239.50000000000006
20
85.64448784716194
10
239.50000000000006
20
54.355512152838045
42
-0.04348915011996294
0
LWPOLYLINE
5
115
100
AcDbEntity
8
0
100
AcDbPolyline
90
2
70
1
43
0.0
10
242.50000000000006
20
59.102752641148435
10
242.50000000000006
20
80.897247358851558
42
-0.2294157338705588
0
CIRCLE
5
116
100
AcDbEntity
8
0
100
AcDbCircle
10
75
20
83
30
0
40
3.25
210
0
220
0
230
1
0
CIRCLE
5
117
100
AcDbEntity
8
0
100
AcDbCircle
10
55
20
83
30
0
40
3.0000000000000071
210
0
220
0
230
1
0
CIRCLE
5
118
100
AcDbEntity
8
0
100
AcDbCircle
10
55
20
71
30
0
40
3.0000000000000004
210
0
220
0
230
1
0
CIRCLE
5
119
100
AcDbEntity
8
0
100
AcDbCircle
10
35
20
83
30
0
40
5.0000000000000018
210
0
220
0
230
1
0
ENDSEC
0
SECTION
2
OBJECTS
0
DICTIONARY
5
C
100
AcDbDictionary
3
ACAD_GROUP
350
D
3
ACAD_MLINESTYLE
350
17
0
DICTIONARY
5
D
100
AcDbDictionary
0
DICTIONARY
5
1A
330
C
100
AcDbDictionary
0
DICTIONARY
5
17
100
AcDbDictionary
0
ENDSEC
0
EOF
