0
SECTION
2
HEADER
9
$INSUNITS
70
4
9
$ACADVER
1
AC1014
9
$HANDSEED
5
FFFF
0
ENDSEC
0
SECTION
2
TABLES
0
TABLE
2
VPORT
5
8
100
AcDbSymbolTable
0
ENDTAB
0
TABLE
2
LTYPE
5
5
100
AcDbSymbolTable
0
LTYPE
5
14
100
AcDbSymbolTableRecord
100
AcDbLinetypeTableRecord
2
BYBLOCK
70
0
0
LTYPE
5
15
100
AcDbSymbolTableRecord
100
AcDbLinetypeTableRecord
2
BYLAYER
70
0
0
ENDTAB
0
TABLE
2
LAYER
5
2
100
AcDbSymbolTable
70
2
0
LAYER
5
50
100
AcDbSymbolTableRecord
100
AcDbLayerTableRecord
2
0
70
0
6
CONTINUOUS
0
ENDTAB
0
TABLE
2
STYLE
5
3
100
AcDbSymbolTable
70
1
0
STYLE
5
11
100
AcDbSymbolTableRecord
100
AcDbTextStyleTableRecord
2
STANDARD
70
0
0
ENDTAB
0
TABLE
2
VIEW
5
6
100
AcDbSymbolTable
70
0
0
ENDTAB
0
TABLE
2
UCS
5
7
100
AcDbSymbolTable
70
0
0
ENDTAB
0
TABLE
2
APPID
5
9
100
AcDbSymbolTable
70
2
0
APPID
5
12
100
AcDbSymbolTableRecord
100
AcDbRegAppTableRecord
2
ACAD
70
0
0
ENDTAB
0
TABLE
2
DIMSTYLE
5
A
100
AcDbSymbolTable
70
1
0
ENDTAB
0
TABLE
2
BLOCK_RECORD
5
1
100
AcDbSymbolTable
70
1
0
BLOCK_RECORD
5
1F
100
AcDbSymbolTableRecord
100
AcDbBlockTableRecord
2
*MODEL_SPACE
0
BLOCK_RECORD
5
1B
100
AcDbSymbolTableRecord
100
AcDbBlockTableRecord
2
*PAPER_SPACE
0
ENDTAB
0
ENDSEC
0
SECTION
2
BLOCKS
0
BLOCK
5
20
100
AcDbEntity
100
AcDbBlockBegin
2
*MODEL_SPACE
0
ENDBLK
5
21
100
AcDbEntity
100
AcDbBlockEnd
0
BLOCK
5
1C
100
AcDbEntity
100
AcDbBlockBegin
2
*PAPER_SPACE
0
ENDBLK
5
1D
100
AcDbEntity
100
AcDbBlockEnd
0
ENDSEC
0
SECTION
2
ENTITIES
0
LWPOLYLINE
5
100
100
AcDbEntity
8
0
100
AcDbPolyline
90
16
70
1
43
0.0
10
200
20
120
10
200
20
0
10
160
20
0
10
160
20
-3.0000000000000004
10
35
20
-3.0000000000000004
10
35
20
0
10
0
20
0
10
0
20
25
10
3.0000000000000004
20
25
10
3.0000000000000004
20
95
10
0
20
95
10
0
20
120
10
35
20
120
10
35
20
123
10
160
20
123
10
160
20
120
0
CIRCLE
5
101
100
AcDbEntity
8
0
100
AcDbCircle
10
35
20
100
30
0
40
1.6000000000000019
210
0
220
0
230
1
0
CIRCLE
5
102
100
AcDbEntity
8
0
100
AcDbCircle
10
85
20
100
30
0
40
1.6000000000000032
210
0
220
0
230
1
0
CIRCLE
5
103
100
AcDbEntity
8
0
100
AcDbCircle
10
35
20
50
30
0
40
1.599999999999997
210
0
220
0
230
1
0
CIRCLE
5
104
100
AcDbEntity
8
0
100
AcDbCircle
10
85
20
50
30
0
40
1.6000000000000014
210
0
220
0
230
1
0
CIRCLE
5
105
100
AcDbEntity
8
0
100
AcDbCircle
10
17
20
100
30
0
40
1.6000000000000014
210
0
220
0
230
1
0
CIRCLE
5
106
100
AcDbEntity
8
0
100
AcDbCircle
10
17
20
20
30
0
40
1.6000000000000012
210
0
220
0
230
1
0
CIRCLE
5
107
100
AcDbEntity
8
0
100
AcDbCircle
10
171
20
20
30
0
40
1.5999999999999936
210
0
220
0
230
1
0
CIRCLE
5
108
100
AcDbEntity
8
0
100
AcDbCircle
10
171
20
100
30
0
40
1.6000000000000083
210
0
220
0
230
1
0
LWPOLYLINE
5
109
100
AcDbEntity
8
0
100
AcDbPolyline
90
4
70
1
43
0.0
10
58.25
20
46.052849881205915
10
58.249999999999964
20
103.9471501187941
42
-0.030199932117669973
10
61.75
20
103.9471501187941
10
61.750000000000085
20
46.052849881205915
42
-0.030199932117670417
0
LWPOLYLINE
5
110
100
AcDbEntity
8
0
100
AcDbPolyline
90
4
70
1
43
0.0
10
40.750000000000021
20
53.310428773256007
10
40.750000000000021
20
96.689571226743993
42
0.044024070129568764
10
37.250000000000021
20
92.984368212422737
10
37.250000000000028
20
57.01563178757727
42
0.044024070129568764
0
LWPOLYLINE
5
111
100
AcDbEntity
8
0
100
AcDbPolyline
90
4
70
1
43
0.0
10
44.250000000000014
20
50.649691993734436
10
44.249999999999986
20
99.35030800626555
42
-0.034519211826458597
10
47.750000000000014
20
101.28569002328075
10
47.750000000000028
20
48.71430997671925
42
-0.034519211826458597
0
LWPOLYLINE
5
112
100
AcDbEntity
8
0
100
AcDbPolyline
90
4
70
1
43
0.0
10
51.250000000000007
20
47.351537113249847
10
51.249999999999993
20
102.64846288675015
42
-0.031125631720948517
10
54.750000000000007
20
103.520825724372
10
54.750000000000021
20
46.479174275627983
42
-0.031125631720948517
0
LWPOLYLINE
5
113
100
AcDbEntity
8
0
100
AcDbPolyline
90
4
70
1
43
0.0
10
65.25
20
46.47917427562799
10
65.249999999999972
20
103.52082572437203
42
-0.031125631720948517
10
68.749999999999986
20
102.64846288675015
10
68.750000000000014
20
47.351537113249847
42
-0.031125631720948517
0
LWPOLYLINE
5
114
100
AcDbEntity
8
0
100
AcDbPolyline
90
4
70
1
43
0.0
10
72.249999999999986
20
48.714309976719257
10
72.249999999999972
20
101.28569002328076
42
-0.034519211826458597
10
75.749999999999986
20
99.350308006265564
10
75.750000000000014
20
50.649691993734443
42
-0.034519211826458597
0
LWPOLYLINE
5
115
100
AcDbEntity
8
0
100
AcDbPolyline
90
4
70
1
43
0.0
10
79.249999999999986
20
53.310428773256007
10
79.249999999999957
20
96.689571226744022
42
-0.044024070129569139
10
82.749999999999986
20
92.984368212422737
10
82.75
20
57.015631787577291
42
-0.044024070129569139
0
LWPOLYLINE
5
116
100
AcDbEntity
8
0
100
AcDbPolyline
90
2
70
1
43
0.0
10
86.249999999999972
20
62.673706964378866
10
86.249999999999972
20
87.326293035621134
42
-0.22310032643658173
0
LWPOLYLINE
5
117
100
AcDbEntity
8
0
100
AcDbPolyline
90
2
70
1
43
0.0
10
33.750000000000028
20
62.67370696437888
10
33.750000000000028
20
87.32629303562112
42
0.22310032643658137
0
LWPOLYLINE
5
118
100
AcDbEntity
8
0
100
AcDbPolyline
90
4
70
1
43
0.0
10
139.80000000000001
20
115
10
160
20
115
10
160
20
111.8
10
139.80000000000001
20
111.8
0
LWPOLYLINE
5
119
100
AcDbEntity
8
0
100
AcDbPolyline
90
4
70
1
43
0.0
10
99.800000000000011
20
115
10
120
20
115
10
120
20
111.8
10
99.800000000000011
20
111.8
0
ENDSEC
0
SECTION
2
OBJECTS
0
DICTIONARY
5
C
100
AcDbDictionary
3
ACAD_GROUP
350
D
3
ACAD_MLINESTYLE
350
17
0
DICTIONARY
5
D
100
AcDbDictionary
0
DICTIONARY
5
1A
330
C
100
AcDbDictionary
0
DICTIONARY
5
17
100
AcDbDictionary
0
ENDSEC
0
EOF
