G04 #@! TF.GenerationSoftware,KiCad,Pcbnew,(5.1.4)-1*
G04 #@! TF.CreationDate,2019-10-27T15:44:07+01:00*
G04 #@! TF.ProjectId,stebus,73746562-7573-42e6-9b69-6361645f7063,rev?*
G04 #@! TF.SameCoordinates,Original*
G04 #@! TF.FileFunction,Copper,L2,Bot*
G04 #@! TF.FilePolarity,Positive*
%FSLAX46Y46*%
G04 Gerber Fmt 4.6, Leading zero omitted, Abs format (unit mm)*
G04 Created by KiCad (PCBNEW (5.1.4)-1) date 2019-10-27 15:44:07*
%MOMM*%
%LPD*%
G04 APERTURE LIST*
%ADD10R,2.000000X1.700000*%
%ADD11R,1.500000X2.000000*%
%ADD12R,3.800000X2.000000*%
%ADD13R,2.000000X2.500000*%
%ADD14R,2.000000X1.600000*%
%ADD15R,2.800000X2.800000*%
%ADD16C,2.800000*%
%ADD17O,2.600000X2.000000*%
%ADD18R,2.600000X2.000000*%
%ADD19O,1.700000X1.700000*%
%ADD20R,1.700000X1.700000*%
%ADD21R,2.200000X3.000000*%
%ADD22R,2.500000X1.800000*%
%ADD23R,3.300000X1.700000*%
%ADD24C,1.501140*%
%ADD25C,2.900680*%
%ADD26C,1.500000*%
%ADD27C,0.250000*%
%ADD28C,1.000000*%
%ADD29C,0.380000*%
%ADD30C,0.750000*%
%ADD31C,1.500000*%
%ADD32C,1.250000*%
%ADD33C,1.750000*%
%ADD34C,0.500000*%
G04 APERTURE END LIST*
D10*
X74930000Y-137160000D03*
X70930000Y-137160000D03*
D11*
X71120000Y-81330000D03*
X75720000Y-81330000D03*
X73420000Y-81330000D03*
D12*
X73420000Y-87630000D03*
D13*
X70930000Y-66040000D03*
X74930000Y-66040000D03*
D14*
X70930000Y-71120000D03*
X74930000Y-71120000D03*
X74930000Y-76200000D03*
X70930000Y-76200000D03*
X74930000Y-73660000D03*
X70930000Y-73660000D03*
X70930000Y-128270000D03*
X74930000Y-128270000D03*
D15*
X200660000Y-92710000D03*
D16*
X200660000Y-96910000D03*
X200660000Y-101110000D03*
X200660000Y-105310000D03*
X200660000Y-109510000D03*
D17*
X200660000Y-134620000D03*
D18*
X200660000Y-132080000D03*
D19*
X200660000Y-121920000D03*
D20*
X200660000Y-119380000D03*
X74930000Y-55880000D03*
X200660000Y-68580000D03*
D21*
X70030000Y-91440000D03*
X75830000Y-91440000D03*
D22*
X74995000Y-104140000D03*
X70995000Y-104140000D03*
X70995000Y-111760000D03*
X74995000Y-111760000D03*
X70995000Y-107950000D03*
X74995000Y-107950000D03*
X74995000Y-115570000D03*
X70995000Y-115570000D03*
X70995000Y-132080000D03*
X74995000Y-132080000D03*
D23*
X69870000Y-124460000D03*
X75370000Y-124460000D03*
D24*
X86360000Y-60960000D03*
X86360000Y-63500000D03*
X86360000Y-68580000D03*
X86360000Y-66040000D03*
X86360000Y-71120000D03*
X86360000Y-73660000D03*
X86360000Y-76200000D03*
X86360000Y-78740000D03*
X86360000Y-81280000D03*
X86360000Y-83820000D03*
X86360000Y-86360000D03*
X86360000Y-88900000D03*
X86360000Y-91440000D03*
X86360000Y-93980000D03*
X86360000Y-96520000D03*
X86360000Y-99060000D03*
X86360000Y-101600000D03*
X86360000Y-104140000D03*
X86360000Y-106680000D03*
X86360000Y-109220000D03*
X86360000Y-111760000D03*
X86360000Y-114300000D03*
X86360000Y-116840000D03*
X86360000Y-119380000D03*
X86360000Y-121920000D03*
X86360000Y-124460000D03*
X86360000Y-127000000D03*
X86360000Y-129540000D03*
X86360000Y-132080000D03*
X86360000Y-134620000D03*
X86360000Y-137160000D03*
X86360000Y-139700000D03*
X81280000Y-60960000D03*
X81280000Y-63500000D03*
X81280000Y-68580000D03*
X81280000Y-66040000D03*
X81280000Y-71120000D03*
X81280000Y-73660000D03*
X81280000Y-76200000D03*
X81280000Y-78740000D03*
X81280000Y-81280000D03*
X81280000Y-83820000D03*
X81280000Y-86360000D03*
X81280000Y-88900000D03*
X81280000Y-91440000D03*
X81280000Y-93980000D03*
X81280000Y-96520000D03*
X81280000Y-99060000D03*
X81280000Y-101600000D03*
X81280000Y-104140000D03*
X81280000Y-106680000D03*
X81280000Y-109220000D03*
X81280000Y-111760000D03*
X81280000Y-114300000D03*
X81280000Y-116840000D03*
X81280000Y-119380000D03*
X81280000Y-121920000D03*
X81280000Y-124460000D03*
X81280000Y-127000000D03*
X81280000Y-129540000D03*
X81280000Y-132080000D03*
X81280000Y-134620000D03*
X81280000Y-137160000D03*
X81280000Y-139700000D03*
D25*
X83820000Y-145326100D03*
X83820000Y-55333900D03*
X109220000Y-55333900D03*
X109220000Y-145326100D03*
D24*
X106680000Y-139700000D03*
X106680000Y-137160000D03*
X106680000Y-134620000D03*
X106680000Y-132080000D03*
X106680000Y-129540000D03*
X106680000Y-127000000D03*
X106680000Y-124460000D03*
X106680000Y-121920000D03*
X106680000Y-119380000D03*
X106680000Y-116840000D03*
X106680000Y-114300000D03*
X106680000Y-111760000D03*
X106680000Y-109220000D03*
X106680000Y-106680000D03*
X106680000Y-104140000D03*
X106680000Y-101600000D03*
X106680000Y-99060000D03*
X106680000Y-96520000D03*
X106680000Y-93980000D03*
X106680000Y-91440000D03*
X106680000Y-88900000D03*
X106680000Y-86360000D03*
X106680000Y-83820000D03*
X106680000Y-81280000D03*
X106680000Y-78740000D03*
X106680000Y-76200000D03*
X106680000Y-73660000D03*
X106680000Y-71120000D03*
X106680000Y-66040000D03*
X106680000Y-68580000D03*
X106680000Y-63500000D03*
X106680000Y-60960000D03*
X111760000Y-139700000D03*
X111760000Y-137160000D03*
X111760000Y-134620000D03*
X111760000Y-132080000D03*
X111760000Y-129540000D03*
X111760000Y-127000000D03*
X111760000Y-124460000D03*
X111760000Y-121920000D03*
X111760000Y-119380000D03*
X111760000Y-116840000D03*
X111760000Y-114300000D03*
X111760000Y-111760000D03*
X111760000Y-109220000D03*
X111760000Y-106680000D03*
X111760000Y-104140000D03*
X111760000Y-101600000D03*
X111760000Y-99060000D03*
X111760000Y-96520000D03*
X111760000Y-93980000D03*
X111760000Y-91440000D03*
X111760000Y-88900000D03*
X111760000Y-86360000D03*
X111760000Y-83820000D03*
X111760000Y-81280000D03*
X111760000Y-78740000D03*
X111760000Y-76200000D03*
X111760000Y-73660000D03*
X111760000Y-71120000D03*
X111760000Y-66040000D03*
X111760000Y-68580000D03*
X111760000Y-63500000D03*
X111760000Y-60960000D03*
D25*
X134620000Y-55333900D03*
X134620000Y-145326100D03*
D24*
X132080000Y-139700000D03*
X132080000Y-137160000D03*
X132080000Y-134620000D03*
X132080000Y-132080000D03*
X132080000Y-129540000D03*
X132080000Y-127000000D03*
X132080000Y-124460000D03*
X132080000Y-121920000D03*
X132080000Y-119380000D03*
X132080000Y-116840000D03*
X132080000Y-114300000D03*
X132080000Y-111760000D03*
X132080000Y-109220000D03*
X132080000Y-106680000D03*
X132080000Y-104140000D03*
X132080000Y-101600000D03*
X132080000Y-99060000D03*
X132080000Y-96520000D03*
X132080000Y-93980000D03*
X132080000Y-91440000D03*
X132080000Y-88900000D03*
X132080000Y-86360000D03*
X132080000Y-83820000D03*
X132080000Y-81280000D03*
X132080000Y-78740000D03*
X132080000Y-76200000D03*
X132080000Y-73660000D03*
X132080000Y-71120000D03*
X132080000Y-66040000D03*
X132080000Y-68580000D03*
X132080000Y-63500000D03*
X132080000Y-60960000D03*
X137160000Y-139700000D03*
X137160000Y-137160000D03*
X137160000Y-134620000D03*
X137160000Y-132080000D03*
X137160000Y-129540000D03*
X137160000Y-127000000D03*
X137160000Y-124460000D03*
X137160000Y-121920000D03*
X137160000Y-119380000D03*
X137160000Y-116840000D03*
X137160000Y-114300000D03*
X137160000Y-111760000D03*
X137160000Y-109220000D03*
X137160000Y-106680000D03*
X137160000Y-104140000D03*
X137160000Y-101600000D03*
X137160000Y-99060000D03*
X137160000Y-96520000D03*
X137160000Y-93980000D03*
X137160000Y-91440000D03*
X137160000Y-88900000D03*
X137160000Y-86360000D03*
X137160000Y-83820000D03*
X137160000Y-81280000D03*
X137160000Y-78740000D03*
X137160000Y-76200000D03*
X137160000Y-73660000D03*
X137160000Y-71120000D03*
X137160000Y-66040000D03*
X137160000Y-68580000D03*
X137160000Y-63500000D03*
X137160000Y-60960000D03*
X162560000Y-60960000D03*
X162560000Y-63500000D03*
X162560000Y-68580000D03*
X162560000Y-66040000D03*
X162560000Y-71120000D03*
X162560000Y-73660000D03*
X162560000Y-76200000D03*
X162560000Y-78740000D03*
X162560000Y-81280000D03*
X162560000Y-83820000D03*
X162560000Y-86360000D03*
X162560000Y-88900000D03*
X162560000Y-91440000D03*
X162560000Y-93980000D03*
X162560000Y-96520000D03*
X162560000Y-99060000D03*
X162560000Y-101600000D03*
X162560000Y-104140000D03*
X162560000Y-106680000D03*
X162560000Y-109220000D03*
X162560000Y-111760000D03*
X162560000Y-114300000D03*
X162560000Y-116840000D03*
X162560000Y-119380000D03*
X162560000Y-121920000D03*
X162560000Y-124460000D03*
X162560000Y-127000000D03*
X162560000Y-129540000D03*
X162560000Y-132080000D03*
X162560000Y-134620000D03*
X162560000Y-137160000D03*
X162560000Y-139700000D03*
X157480000Y-60960000D03*
X157480000Y-63500000D03*
X157480000Y-68580000D03*
X157480000Y-66040000D03*
X157480000Y-71120000D03*
X157480000Y-73660000D03*
X157480000Y-76200000D03*
X157480000Y-78740000D03*
X157480000Y-81280000D03*
X157480000Y-83820000D03*
X157480000Y-86360000D03*
X157480000Y-88900000D03*
X157480000Y-91440000D03*
X157480000Y-93980000D03*
X157480000Y-96520000D03*
X157480000Y-99060000D03*
X157480000Y-101600000D03*
X157480000Y-104140000D03*
X157480000Y-106680000D03*
X157480000Y-109220000D03*
X157480000Y-111760000D03*
X157480000Y-114300000D03*
X157480000Y-116840000D03*
X157480000Y-119380000D03*
X157480000Y-121920000D03*
X157480000Y-124460000D03*
X157480000Y-127000000D03*
X157480000Y-129540000D03*
X157480000Y-132080000D03*
X157480000Y-134620000D03*
X157480000Y-137160000D03*
X157480000Y-139700000D03*
D25*
X160020000Y-145326100D03*
X160020000Y-55333900D03*
X185420000Y-55333900D03*
X185420000Y-145326100D03*
D24*
X182880000Y-139700000D03*
X182880000Y-137160000D03*
X182880000Y-134620000D03*
X182880000Y-132080000D03*
X182880000Y-129540000D03*
X182880000Y-127000000D03*
X182880000Y-124460000D03*
X182880000Y-121920000D03*
X182880000Y-119380000D03*
X182880000Y-116840000D03*
X182880000Y-114300000D03*
X182880000Y-111760000D03*
X182880000Y-109220000D03*
X182880000Y-106680000D03*
X182880000Y-104140000D03*
X182880000Y-101600000D03*
X182880000Y-99060000D03*
X182880000Y-96520000D03*
X182880000Y-93980000D03*
X182880000Y-91440000D03*
X182880000Y-88900000D03*
X182880000Y-86360000D03*
X182880000Y-83820000D03*
X182880000Y-81280000D03*
X182880000Y-78740000D03*
X182880000Y-76200000D03*
X182880000Y-73660000D03*
X182880000Y-71120000D03*
X182880000Y-66040000D03*
X182880000Y-68580000D03*
X182880000Y-63500000D03*
X182880000Y-60960000D03*
X187960000Y-139700000D03*
X187960000Y-137160000D03*
X187960000Y-134620000D03*
X187960000Y-132080000D03*
X187960000Y-129540000D03*
X187960000Y-127000000D03*
X187960000Y-124460000D03*
X187960000Y-121920000D03*
X187960000Y-119380000D03*
X187960000Y-116840000D03*
X187960000Y-114300000D03*
X187960000Y-111760000D03*
X187960000Y-109220000D03*
X187960000Y-106680000D03*
X187960000Y-104140000D03*
X187960000Y-101600000D03*
X187960000Y-99060000D03*
X187960000Y-96520000D03*
X187960000Y-93980000D03*
X187960000Y-91440000D03*
X187960000Y-88900000D03*
X187960000Y-86360000D03*
X187960000Y-83820000D03*
X187960000Y-81280000D03*
X187960000Y-78740000D03*
X187960000Y-76200000D03*
X187960000Y-73660000D03*
X187960000Y-71120000D03*
X187960000Y-66040000D03*
X187960000Y-68580000D03*
X187960000Y-63500000D03*
X187960000Y-60960000D03*
D26*
X68580000Y-95250000D03*
X74930000Y-58420000D03*
X92710000Y-58420000D03*
X67310000Y-90170000D03*
X67310000Y-69850000D03*
D27*
X81280000Y-66040000D02*
X82550000Y-66040000D01*
X82550000Y-66040000D02*
X83820000Y-64770000D01*
X83820000Y-64770000D02*
X102870000Y-64770000D01*
X102870000Y-64770000D02*
X104140000Y-66040000D01*
X104140000Y-66040000D02*
X106680000Y-66040000D01*
X106680000Y-66040000D02*
X107950000Y-66040000D01*
X107950000Y-66040000D02*
X109220000Y-64770000D01*
X109220000Y-64770000D02*
X128270000Y-64770000D01*
X128270000Y-64770000D02*
X129540000Y-66040000D01*
X129540000Y-66040000D02*
X132080000Y-66040000D01*
X132080000Y-66040000D02*
X133350000Y-66040000D01*
X133350000Y-66040000D02*
X134620000Y-64770000D01*
X134620000Y-64770000D02*
X153670000Y-64770000D01*
X153670000Y-64770000D02*
X154940000Y-66040000D01*
X154940000Y-66040000D02*
X157480000Y-66040000D01*
X180340000Y-66040000D02*
X182880000Y-66040000D01*
X179070000Y-64770000D02*
X180340000Y-66040000D01*
X160020000Y-64770000D02*
X179070000Y-64770000D01*
X157480000Y-66040000D02*
X158750000Y-66040000D01*
X158750000Y-66040000D02*
X160020000Y-64770000D01*
X86360000Y-66040000D02*
X102870000Y-66040000D01*
X102870000Y-66040000D02*
X104140000Y-67310000D01*
X104140000Y-67310000D02*
X107950000Y-67310000D01*
X107950000Y-67310000D02*
X109220000Y-66040000D01*
X109220000Y-66040000D02*
X111760000Y-66040000D01*
X111760000Y-66040000D02*
X128270000Y-66040000D01*
X128270000Y-66040000D02*
X129540000Y-67310000D01*
X129540000Y-67310000D02*
X133350000Y-67310000D01*
X133350000Y-67310000D02*
X134620000Y-66040000D01*
X134620000Y-66040000D02*
X137160000Y-66040000D01*
X137160000Y-66040000D02*
X153670000Y-66040000D01*
X153670000Y-66040000D02*
X154940000Y-67310000D01*
X154940000Y-67310000D02*
X158750000Y-67310000D01*
X158750000Y-67310000D02*
X160020000Y-66040000D01*
X160020000Y-66040000D02*
X162560000Y-66040000D01*
X162560000Y-66040000D02*
X179070000Y-66040000D01*
X179070000Y-66040000D02*
X180340000Y-67310000D01*
X180340000Y-67310000D02*
X184150000Y-67310000D01*
X185420000Y-66040000D02*
X187960000Y-66040000D01*
X184150000Y-67310000D02*
X185420000Y-66040000D01*
X104140000Y-68580000D02*
X106680000Y-68580000D01*
X102870000Y-67310000D02*
X104140000Y-68580000D01*
X83820000Y-67310000D02*
X102870000Y-67310000D01*
X81280000Y-68580000D02*
X82550000Y-68580000D01*
X82550000Y-68580000D02*
X83820000Y-67310000D01*
X129540000Y-68580000D02*
X132080000Y-68580000D01*
X128270000Y-67310000D02*
X129540000Y-68580000D01*
X109220000Y-67310000D02*
X128270000Y-67310000D01*
X106680000Y-68580000D02*
X107950000Y-68580000D01*
X107950000Y-68580000D02*
X109220000Y-67310000D01*
X133282081Y-68580000D02*
X134552081Y-67310000D01*
X132080000Y-68580000D02*
X133282081Y-68580000D01*
X134552081Y-67310000D02*
X153670000Y-67310000D01*
X153670000Y-67310000D02*
X154940000Y-68580000D01*
X154940000Y-68580000D02*
X157480000Y-68580000D01*
X157480000Y-68580000D02*
X158750000Y-68580000D01*
X158750000Y-68580000D02*
X160020000Y-67310000D01*
X160020000Y-67310000D02*
X179070000Y-67310000D01*
X179070000Y-67310000D02*
X180340000Y-68580000D01*
X180340000Y-68580000D02*
X182880000Y-68580000D01*
X86360000Y-68580000D02*
X102870000Y-68580000D01*
X102870000Y-68580000D02*
X104140000Y-69850000D01*
X104140000Y-69850000D02*
X107950000Y-69850000D01*
X107950000Y-69850000D02*
X109220000Y-68580000D01*
X109220000Y-68580000D02*
X111760000Y-68580000D01*
X134620000Y-68580000D02*
X137160000Y-68580000D01*
X133350000Y-69850000D02*
X134620000Y-68580000D01*
X129540000Y-69850000D02*
X133350000Y-69850000D01*
X111760000Y-68580000D02*
X128270000Y-68580000D01*
X128270000Y-68580000D02*
X129540000Y-69850000D01*
X137160000Y-68580000D02*
X153670000Y-68580000D01*
X153670000Y-68580000D02*
X154940000Y-69850000D01*
X154940000Y-69850000D02*
X158750000Y-69850000D01*
X158750000Y-69850000D02*
X160020000Y-68580000D01*
X160020000Y-68580000D02*
X162560000Y-68580000D01*
X162560000Y-68580000D02*
X179070000Y-68580000D01*
X179070000Y-68580000D02*
X180340000Y-69850000D01*
X180340000Y-69850000D02*
X184150000Y-69850000D01*
X184150000Y-69850000D02*
X185420000Y-68580000D01*
X185420000Y-68580000D02*
X187960000Y-68580000D01*
X81280000Y-71120000D02*
X82550000Y-71120000D01*
X82550000Y-71120000D02*
X83820000Y-69850000D01*
X83820000Y-69850000D02*
X102870000Y-69850000D01*
X102870000Y-69850000D02*
X104140000Y-71120000D01*
X104140000Y-71120000D02*
X106680000Y-71120000D01*
X106680000Y-71120000D02*
X107950000Y-71120000D01*
X107950000Y-71120000D02*
X109220000Y-69850000D01*
X109220000Y-69850000D02*
X128270000Y-69850000D01*
X128270000Y-69850000D02*
X129540000Y-71120000D01*
X129540000Y-71120000D02*
X132080000Y-71120000D01*
X132080000Y-71120000D02*
X133350000Y-71120000D01*
X133350000Y-71120000D02*
X134620000Y-69850000D01*
X134620000Y-69850000D02*
X153670000Y-69850000D01*
X153670000Y-69850000D02*
X154940000Y-71120000D01*
X154940000Y-71120000D02*
X157480000Y-71120000D01*
X157480000Y-71120000D02*
X158750000Y-71120000D01*
X158750000Y-71120000D02*
X160020000Y-69850000D01*
X160020000Y-69850000D02*
X179070000Y-69850000D01*
X179070000Y-69850000D02*
X180340000Y-71120000D01*
X180340000Y-71120000D02*
X182880000Y-71120000D01*
X86360000Y-71120000D02*
X102870000Y-71120000D01*
X102870000Y-71120000D02*
X104140000Y-72390000D01*
X104140000Y-72390000D02*
X107950000Y-72390000D01*
X107950000Y-72390000D02*
X109220000Y-71120000D01*
X109220000Y-71120000D02*
X111760000Y-71120000D01*
X111760000Y-71120000D02*
X128270000Y-71120000D01*
X128270000Y-71120000D02*
X129540000Y-72390000D01*
X129540000Y-72390000D02*
X133350000Y-72390000D01*
X133350000Y-72390000D02*
X134620000Y-71120000D01*
X134620000Y-71120000D02*
X137160000Y-71120000D01*
X137160000Y-71120000D02*
X153670000Y-71120000D01*
X153670000Y-71120000D02*
X154940000Y-72390000D01*
X154940000Y-72390000D02*
X158750000Y-72390000D01*
X160020000Y-71120000D02*
X162560000Y-71120000D01*
X158750000Y-72390000D02*
X160020000Y-71120000D01*
X162560000Y-71120000D02*
X179070000Y-71120000D01*
X179070000Y-71120000D02*
X180340000Y-72390000D01*
X180340000Y-72390000D02*
X184150000Y-72390000D01*
X184150000Y-72390000D02*
X185420000Y-71120000D01*
X185420000Y-71120000D02*
X187960000Y-71120000D01*
X81280000Y-73660000D02*
X82550000Y-73660000D01*
X82550000Y-73660000D02*
X83820000Y-72390000D01*
X83820000Y-72390000D02*
X102870000Y-72390000D01*
X102870000Y-72390000D02*
X104140000Y-73660000D01*
X104140000Y-73660000D02*
X106680000Y-73660000D01*
X106680000Y-73660000D02*
X107950000Y-73660000D01*
X107950000Y-73660000D02*
X109220000Y-72390000D01*
X109220000Y-72390000D02*
X128270000Y-72390000D01*
X128270000Y-72390000D02*
X129540000Y-73660000D01*
X129540000Y-73660000D02*
X132080000Y-73660000D01*
X132080000Y-73660000D02*
X133350000Y-73660000D01*
X133350000Y-73660000D02*
X134620000Y-72390000D01*
X134620000Y-72390000D02*
X153670000Y-72390000D01*
X153670000Y-72390000D02*
X154940000Y-73660000D01*
X154940000Y-73660000D02*
X157480000Y-73660000D01*
X157480000Y-73660000D02*
X158750000Y-73660000D01*
X158750000Y-73660000D02*
X160020000Y-72390000D01*
X160020000Y-72390000D02*
X179070000Y-72390000D01*
X179070000Y-72390000D02*
X180340000Y-73660000D01*
X180340000Y-73660000D02*
X182880000Y-73660000D01*
X86360000Y-73660000D02*
X102870000Y-73660000D01*
X102870000Y-73660000D02*
X104140000Y-74930000D01*
X104140000Y-74930000D02*
X107950000Y-74930000D01*
X107950000Y-74930000D02*
X109220000Y-73660000D01*
X109220000Y-73660000D02*
X111760000Y-73660000D01*
X111760000Y-73660000D02*
X128270000Y-73660000D01*
X128270000Y-73660000D02*
X129540000Y-74930000D01*
X129540000Y-74930000D02*
X133350000Y-74930000D01*
X133350000Y-74930000D02*
X134620000Y-73660000D01*
X134620000Y-73660000D02*
X137160000Y-73660000D01*
X137160000Y-73660000D02*
X153670000Y-73660000D01*
X153670000Y-73660000D02*
X154940000Y-74930000D01*
X154940000Y-74930000D02*
X158750000Y-74930000D01*
X158750000Y-74930000D02*
X160020000Y-73660000D01*
X160020000Y-73660000D02*
X162560000Y-73660000D01*
X162560000Y-73660000D02*
X179070000Y-73660000D01*
X179070000Y-73660000D02*
X180340000Y-74930000D01*
X180340000Y-74930000D02*
X184150000Y-74930000D01*
X184150000Y-74930000D02*
X185420000Y-73660000D01*
X185420000Y-73660000D02*
X187960000Y-73660000D01*
X81280000Y-76200000D02*
X82550000Y-76200000D01*
X82550000Y-76200000D02*
X83820000Y-74930000D01*
X83820000Y-74930000D02*
X102870000Y-74930000D01*
X102870000Y-74930000D02*
X104140000Y-76200000D01*
X104140000Y-76200000D02*
X106680000Y-76200000D01*
X106680000Y-76200000D02*
X107950000Y-76200000D01*
X107950000Y-76200000D02*
X109220000Y-74930000D01*
X109220000Y-74930000D02*
X128270000Y-74930000D01*
X128270000Y-74930000D02*
X129540000Y-76200000D01*
X129540000Y-76200000D02*
X132080000Y-76200000D01*
X132080000Y-76200000D02*
X133350000Y-76200000D01*
X133350000Y-76200000D02*
X134620000Y-74930000D01*
X134620000Y-74930000D02*
X153670000Y-74930000D01*
X153670000Y-74930000D02*
X154940000Y-76200000D01*
X154940000Y-76200000D02*
X157480000Y-76200000D01*
X157480000Y-76200000D02*
X158750000Y-76200000D01*
X158750000Y-76200000D02*
X160020000Y-74930000D01*
X160020000Y-74930000D02*
X179070000Y-74930000D01*
X179070000Y-74930000D02*
X180340000Y-76200000D01*
X180340000Y-76200000D02*
X182880000Y-76200000D01*
X81280000Y-78740000D02*
X82550000Y-78740000D01*
X82550000Y-78740000D02*
X83820000Y-77470000D01*
X83820000Y-77470000D02*
X102870000Y-77470000D01*
X102870000Y-77470000D02*
X104140000Y-78740000D01*
X104140000Y-78740000D02*
X106680000Y-78740000D01*
X129540000Y-78740000D02*
X132080000Y-78740000D01*
X128270000Y-77470000D02*
X129540000Y-78740000D01*
X109220000Y-77470000D02*
X128270000Y-77470000D01*
X106680000Y-78740000D02*
X107950000Y-78740000D01*
X107950000Y-78740000D02*
X109220000Y-77470000D01*
X132080000Y-78740000D02*
X133350000Y-78740000D01*
X133350000Y-78740000D02*
X134620000Y-77470000D01*
X134620000Y-77470000D02*
X153670000Y-77470000D01*
X154940000Y-78740000D02*
X157480000Y-78740000D01*
X153670000Y-77470000D02*
X154940000Y-78740000D01*
X157480000Y-78740000D02*
X158750000Y-78740000D01*
X158750000Y-78740000D02*
X160020000Y-77470000D01*
X160020000Y-77470000D02*
X179070000Y-77470000D01*
X179070000Y-77470000D02*
X180340000Y-78740000D01*
X180340000Y-78740000D02*
X182880000Y-78740000D01*
X86360000Y-78740000D02*
X102870000Y-78740000D01*
X102870000Y-78740000D02*
X104140000Y-80010000D01*
X104140000Y-80010000D02*
X107950000Y-80010000D01*
X107950000Y-80010000D02*
X109220000Y-78740000D01*
X109220000Y-78740000D02*
X111760000Y-78740000D01*
X111760000Y-78740000D02*
X128270000Y-78740000D01*
X128270000Y-78740000D02*
X129540000Y-80010000D01*
X129540000Y-80010000D02*
X133350000Y-80010000D01*
X133350000Y-80010000D02*
X134620000Y-78740000D01*
X134620000Y-78740000D02*
X137160000Y-78740000D01*
X137160000Y-78740000D02*
X153670000Y-78740000D01*
X153670000Y-78740000D02*
X154940000Y-80010000D01*
X154940000Y-80010000D02*
X158750000Y-80010000D01*
X158750000Y-80010000D02*
X160020000Y-78740000D01*
X160020000Y-78740000D02*
X162560000Y-78740000D01*
X162560000Y-78740000D02*
X179070000Y-78740000D01*
X179070000Y-78740000D02*
X180340000Y-80010000D01*
X180340000Y-80010000D02*
X184150000Y-80010000D01*
X184150000Y-80010000D02*
X185420000Y-78740000D01*
X185420000Y-78740000D02*
X187960000Y-78740000D01*
X81280000Y-81280000D02*
X82550000Y-81280000D01*
X82550000Y-81280000D02*
X83820000Y-80010000D01*
X83820000Y-80010000D02*
X102870000Y-80010000D01*
X102870000Y-80010000D02*
X104140000Y-81280000D01*
X104140000Y-81280000D02*
X106680000Y-81280000D01*
X106680000Y-81280000D02*
X107950000Y-81280000D01*
X107950000Y-81280000D02*
X109220000Y-80010000D01*
X109220000Y-80010000D02*
X128270000Y-80010000D01*
X129540000Y-81280000D02*
X132080000Y-81280000D01*
X128270000Y-80010000D02*
X129540000Y-81280000D01*
X132080000Y-81280000D02*
X133350000Y-81280000D01*
X133350000Y-81280000D02*
X134620000Y-80010000D01*
X134620000Y-80010000D02*
X153670000Y-80010000D01*
X154940000Y-81280000D02*
X157480000Y-81280000D01*
X153670000Y-80010000D02*
X154940000Y-81280000D01*
X157480000Y-81280000D02*
X158750000Y-81280000D01*
X158750000Y-81280000D02*
X160020000Y-80010000D01*
X160020000Y-80010000D02*
X179070000Y-80010000D01*
X179070000Y-80010000D02*
X180340000Y-81280000D01*
X180340000Y-81280000D02*
X182880000Y-81280000D01*
X86360000Y-81280000D02*
X102870000Y-81280000D01*
X102870000Y-81280000D02*
X104140000Y-82550000D01*
X104140000Y-82550000D02*
X107950000Y-82550000D01*
X107950000Y-82550000D02*
X109220000Y-81280000D01*
X109220000Y-81280000D02*
X111760000Y-81280000D01*
X111760000Y-81280000D02*
X128270000Y-81280000D01*
X128270000Y-81280000D02*
X129540000Y-82550000D01*
X129540000Y-82550000D02*
X133350000Y-82550000D01*
X133350000Y-82550000D02*
X134620000Y-81280000D01*
X134620000Y-81280000D02*
X137160000Y-81280000D01*
X137160000Y-81280000D02*
X153670000Y-81280000D01*
X153670000Y-81280000D02*
X154940000Y-82550000D01*
X154940000Y-82550000D02*
X158750000Y-82550000D01*
X158750000Y-82550000D02*
X160020000Y-81280000D01*
X160020000Y-81280000D02*
X162560000Y-81280000D01*
X162560000Y-81280000D02*
X179070000Y-81280000D01*
X179070000Y-81280000D02*
X180340000Y-82550000D01*
X180340000Y-82550000D02*
X184150000Y-82550000D01*
X184150000Y-82550000D02*
X185420000Y-81280000D01*
X185420000Y-81280000D02*
X187960000Y-81280000D01*
X81280000Y-83820000D02*
X82550000Y-83820000D01*
X82550000Y-83820000D02*
X83820000Y-82550000D01*
X83820000Y-82550000D02*
X102870000Y-82550000D01*
X102870000Y-82550000D02*
X104140000Y-83820000D01*
X104140000Y-83820000D02*
X106680000Y-83820000D01*
X106680000Y-83820000D02*
X107950000Y-83820000D01*
X107950000Y-83820000D02*
X109220000Y-82550000D01*
X109220000Y-82550000D02*
X128270000Y-82550000D01*
X128270000Y-82550000D02*
X129540000Y-83820000D01*
X129540000Y-83820000D02*
X132080000Y-83820000D01*
X132080000Y-83820000D02*
X133350000Y-83820000D01*
X133350000Y-83820000D02*
X134620000Y-82550000D01*
X134620000Y-82550000D02*
X153670000Y-82550000D01*
X153670000Y-82550000D02*
X154940000Y-83820000D01*
X154940000Y-83820000D02*
X157480000Y-83820000D01*
X157480000Y-83820000D02*
X158750000Y-83820000D01*
X158750000Y-83820000D02*
X160020000Y-82550000D01*
X160020000Y-82550000D02*
X179070000Y-82550000D01*
X179070000Y-82550000D02*
X180340000Y-83820000D01*
X180340000Y-83820000D02*
X182880000Y-83820000D01*
X86360000Y-83820000D02*
X102870000Y-83820000D01*
X102870000Y-83820000D02*
X104140000Y-85090000D01*
X104140000Y-85090000D02*
X107950000Y-85090000D01*
X107950000Y-85090000D02*
X109220000Y-83820000D01*
X109220000Y-83820000D02*
X111760000Y-83820000D01*
X111760000Y-83820000D02*
X128270000Y-83820000D01*
X128270000Y-83820000D02*
X129540000Y-85090000D01*
X129540000Y-85090000D02*
X133350000Y-85090000D01*
X133350000Y-85090000D02*
X134620000Y-83820000D01*
X134620000Y-83820000D02*
X137160000Y-83820000D01*
X137160000Y-83820000D02*
X153670000Y-83820000D01*
X153670000Y-83820000D02*
X154940000Y-85090000D01*
X154940000Y-85090000D02*
X158750000Y-85090000D01*
X158750000Y-85090000D02*
X160020000Y-83820000D01*
X160020000Y-83820000D02*
X162560000Y-83820000D01*
X162560000Y-83820000D02*
X179070000Y-83820000D01*
X179070000Y-83820000D02*
X180340000Y-85090000D01*
X180340000Y-85090000D02*
X184150000Y-85090000D01*
X184150000Y-85090000D02*
X185420000Y-83820000D01*
X185420000Y-83820000D02*
X187960000Y-83820000D01*
X81280000Y-86360000D02*
X82550000Y-86360000D01*
X82550000Y-86360000D02*
X83820000Y-85090000D01*
X83820000Y-85090000D02*
X102870000Y-85090000D01*
X102870000Y-85090000D02*
X104140000Y-86360000D01*
X104140000Y-86360000D02*
X106680000Y-86360000D01*
X106680000Y-86360000D02*
X107950000Y-86360000D01*
X107950000Y-86360000D02*
X109220000Y-85090000D01*
X109220000Y-85090000D02*
X128270000Y-85090000D01*
X128270000Y-85090000D02*
X129540000Y-86360000D01*
X129540000Y-86360000D02*
X132080000Y-86360000D01*
X132080000Y-86360000D02*
X133350000Y-86360000D01*
X133350000Y-86360000D02*
X134620000Y-85090000D01*
X134620000Y-85090000D02*
X153670000Y-85090000D01*
X153670000Y-85090000D02*
X154940000Y-86360000D01*
X154940000Y-86360000D02*
X157480000Y-86360000D01*
X157480000Y-86360000D02*
X158750000Y-86360000D01*
X158750000Y-86360000D02*
X160020000Y-85090000D01*
X160020000Y-85090000D02*
X179070000Y-85090000D01*
X179070000Y-85090000D02*
X180340000Y-86360000D01*
X180340000Y-86360000D02*
X182880000Y-86360000D01*
X109220000Y-86360000D02*
X111760000Y-86360000D01*
X107950000Y-87630000D02*
X109220000Y-86360000D01*
X104140000Y-87630000D02*
X107950000Y-87630000D01*
X86360000Y-86360000D02*
X102870000Y-86360000D01*
X102870000Y-86360000D02*
X104140000Y-87630000D01*
X111760000Y-86360000D02*
X128270000Y-86360000D01*
X128270000Y-86360000D02*
X129540000Y-87630000D01*
X129540000Y-87630000D02*
X133350000Y-87630000D01*
X133350000Y-87630000D02*
X134620000Y-86360000D01*
X134620000Y-86360000D02*
X137160000Y-86360000D01*
X137160000Y-86360000D02*
X153670000Y-86360000D01*
X153670000Y-86360000D02*
X154940000Y-87630000D01*
X154940000Y-87630000D02*
X158750000Y-87630000D01*
X160020000Y-86360000D02*
X162560000Y-86360000D01*
X158750000Y-87630000D02*
X160020000Y-86360000D01*
X162560000Y-86360000D02*
X179070000Y-86360000D01*
X179070000Y-86360000D02*
X180340000Y-87630000D01*
X180340000Y-87630000D02*
X184150000Y-87630000D01*
X184150000Y-87630000D02*
X185420000Y-86360000D01*
X185420000Y-86360000D02*
X187960000Y-86360000D01*
X81280000Y-88900000D02*
X82550000Y-88900000D01*
X82550000Y-88900000D02*
X83820000Y-87630000D01*
X83820000Y-87630000D02*
X102870000Y-87630000D01*
X102870000Y-87630000D02*
X104140000Y-88900000D01*
X104140000Y-88900000D02*
X106680000Y-88900000D01*
X129540000Y-88900000D02*
X132080000Y-88900000D01*
X128270000Y-87630000D02*
X129540000Y-88900000D01*
X109220000Y-87630000D02*
X128270000Y-87630000D01*
X106680000Y-88900000D02*
X107950000Y-88900000D01*
X107950000Y-88900000D02*
X109220000Y-87630000D01*
X132080000Y-88900000D02*
X133350000Y-88900000D01*
X133350000Y-88900000D02*
X134620000Y-87630000D01*
X134620000Y-87630000D02*
X153670000Y-87630000D01*
X153670000Y-87630000D02*
X154940000Y-88900000D01*
X154940000Y-88900000D02*
X157480000Y-88900000D01*
X157480000Y-88900000D02*
X158750000Y-88900000D01*
X158750000Y-88900000D02*
X160020000Y-87630000D01*
X160020000Y-87630000D02*
X179070000Y-87630000D01*
X179070000Y-87630000D02*
X180340000Y-88900000D01*
X180340000Y-88900000D02*
X182880000Y-88900000D01*
X109220000Y-88900000D02*
X111760000Y-88900000D01*
X107950000Y-90170000D02*
X109220000Y-88900000D01*
X104140000Y-90170000D02*
X107950000Y-90170000D01*
X86360000Y-88900000D02*
X102870000Y-88900000D01*
X102870000Y-88900000D02*
X104140000Y-90170000D01*
X111760000Y-88900000D02*
X128270000Y-88900000D01*
X128270000Y-88900000D02*
X129540000Y-90170000D01*
X129540000Y-90170000D02*
X133350000Y-90170000D01*
X133350000Y-90170000D02*
X134620000Y-88900000D01*
X134620000Y-88900000D02*
X137160000Y-88900000D01*
X137160000Y-88900000D02*
X153670000Y-88900000D01*
X153670000Y-88900000D02*
X154940000Y-90170000D01*
X154940000Y-90170000D02*
X158750000Y-90170000D01*
X158750000Y-90170000D02*
X160020000Y-88900000D01*
X160020000Y-88900000D02*
X162560000Y-88900000D01*
X162560000Y-88900000D02*
X179070000Y-88900000D01*
X179070000Y-88900000D02*
X180340000Y-90170000D01*
X180340000Y-90170000D02*
X184150000Y-90170000D01*
X184150000Y-90170000D02*
X185420000Y-88900000D01*
X185420000Y-88900000D02*
X187960000Y-88900000D01*
X81280000Y-91440000D02*
X82550000Y-91440000D01*
X82550000Y-91440000D02*
X83820000Y-90170000D01*
X83820000Y-90170000D02*
X102870000Y-90170000D01*
X104140000Y-91440000D02*
X106680000Y-91440000D01*
X102870000Y-90170000D02*
X104140000Y-91440000D01*
X129540000Y-91440000D02*
X132080000Y-91440000D01*
X128364999Y-90264999D02*
X129540000Y-91440000D01*
X109125001Y-90264999D02*
X128364999Y-90264999D01*
X106680000Y-91440000D02*
X107950000Y-91440000D01*
X107950000Y-91440000D02*
X109125001Y-90264999D01*
X132080000Y-91440000D02*
X133350000Y-91440000D01*
X133350000Y-91440000D02*
X134620000Y-90170000D01*
X134620000Y-90170000D02*
X153670000Y-90170000D01*
X153670000Y-90170000D02*
X154940000Y-91440000D01*
X154940000Y-91440000D02*
X157480000Y-91440000D01*
X157480000Y-91440000D02*
X158750000Y-91440000D01*
X158750000Y-91440000D02*
X160020000Y-90170000D01*
X160020000Y-90170000D02*
X179070000Y-90170000D01*
X179070000Y-90170000D02*
X180340000Y-91440000D01*
X180340000Y-91440000D02*
X182880000Y-91440000D01*
X109220000Y-91440000D02*
X111760000Y-91440000D01*
X107950000Y-92710000D02*
X109220000Y-91440000D01*
X104140000Y-92710000D02*
X107950000Y-92710000D01*
X86360000Y-91440000D02*
X102870000Y-91440000D01*
X102870000Y-91440000D02*
X104140000Y-92710000D01*
X111760000Y-91440000D02*
X128270000Y-91440000D01*
X128270000Y-91440000D02*
X129540000Y-92710000D01*
X129540000Y-92710000D02*
X133350000Y-92710000D01*
X133350000Y-92710000D02*
X134620000Y-91440000D01*
X134620000Y-91440000D02*
X137160000Y-91440000D01*
X160020000Y-91440000D02*
X162560000Y-91440000D01*
X158750000Y-92710000D02*
X160020000Y-91440000D01*
X154940000Y-92710000D02*
X158750000Y-92710000D01*
X137160000Y-91440000D02*
X153670000Y-91440000D01*
X153670000Y-91440000D02*
X154940000Y-92710000D01*
X162560000Y-91440000D02*
X179070000Y-91440000D01*
X179070000Y-91440000D02*
X180340000Y-92710000D01*
X180340000Y-92710000D02*
X184150000Y-92710000D01*
X184150000Y-92710000D02*
X185420000Y-91440000D01*
X185420000Y-91440000D02*
X187960000Y-91440000D01*
X104140000Y-93980000D02*
X106680000Y-93980000D01*
X102870000Y-92710000D02*
X104140000Y-93980000D01*
X83820000Y-92710000D02*
X102870000Y-92710000D01*
X81280000Y-93980000D02*
X82550000Y-93980000D01*
X82550000Y-93980000D02*
X83820000Y-92710000D01*
X107882081Y-93980000D02*
X109152081Y-92710000D01*
X106680000Y-93980000D02*
X107882081Y-93980000D01*
X109152081Y-92710000D02*
X128270000Y-92710000D01*
X128270000Y-92710000D02*
X129540000Y-93980000D01*
X129540000Y-93980000D02*
X132080000Y-93980000D01*
X132080000Y-93980000D02*
X133350000Y-93980000D01*
X133350000Y-93980000D02*
X134620000Y-92710000D01*
X134620000Y-92710000D02*
X153670000Y-92710000D01*
X153670000Y-92710000D02*
X154940000Y-93980000D01*
X154940000Y-93980000D02*
X157480000Y-93980000D01*
X157480000Y-93980000D02*
X158750000Y-93980000D01*
X158750000Y-93980000D02*
X160020000Y-92710000D01*
X160020000Y-92710000D02*
X179070000Y-92710000D01*
X179070000Y-92710000D02*
X180340000Y-93980000D01*
X180340000Y-93980000D02*
X182880000Y-93980000D01*
X109220000Y-93980000D02*
X111760000Y-93980000D01*
X107950000Y-95250000D02*
X109220000Y-93980000D01*
X104140000Y-95250000D02*
X107950000Y-95250000D01*
X86360000Y-93980000D02*
X102870000Y-93980000D01*
X102870000Y-93980000D02*
X104140000Y-95250000D01*
X111760000Y-93980000D02*
X128270000Y-93980000D01*
X128270000Y-93980000D02*
X129540000Y-95250000D01*
X129540000Y-95250000D02*
X133350000Y-95250000D01*
X133350000Y-95250000D02*
X134620000Y-93980000D01*
X134620000Y-93980000D02*
X137160000Y-93980000D01*
X137160000Y-93980000D02*
X153670000Y-93980000D01*
X153670000Y-93980000D02*
X154940000Y-95250000D01*
X154940000Y-95250000D02*
X158750000Y-95250000D01*
X158750000Y-95250000D02*
X160020000Y-93980000D01*
X160020000Y-93980000D02*
X162560000Y-93980000D01*
X162560000Y-93980000D02*
X179070000Y-93980000D01*
X179070000Y-93980000D02*
X180340000Y-95250000D01*
X180340000Y-95250000D02*
X184150000Y-95250000D01*
X184150000Y-95250000D02*
X185420000Y-93980000D01*
X185420000Y-93980000D02*
X187960000Y-93980000D01*
X104140000Y-96520000D02*
X106680000Y-96520000D01*
X102870000Y-95250000D02*
X104140000Y-96520000D01*
X83820000Y-95250000D02*
X102870000Y-95250000D01*
X81280000Y-96520000D02*
X82550000Y-96520000D01*
X82550000Y-96520000D02*
X83820000Y-95250000D01*
X107882081Y-96520000D02*
X109152081Y-95250000D01*
X106680000Y-96520000D02*
X107882081Y-96520000D01*
X109152081Y-95250000D02*
X128270000Y-95250000D01*
X128270000Y-95250000D02*
X129540000Y-96520000D01*
X129540000Y-96520000D02*
X132080000Y-96520000D01*
X132080000Y-96520000D02*
X133350000Y-96520000D01*
X133350000Y-96520000D02*
X134620000Y-95250000D01*
X134620000Y-95250000D02*
X153670000Y-95250000D01*
X153670000Y-95250000D02*
X154940000Y-96520000D01*
X154940000Y-96520000D02*
X157480000Y-96520000D01*
X157480000Y-96520000D02*
X158750000Y-96520000D01*
X158750000Y-96520000D02*
X160020000Y-95250000D01*
X160020000Y-95250000D02*
X179070000Y-95250000D01*
X179070000Y-95250000D02*
X180340000Y-96520000D01*
X180340000Y-96520000D02*
X182880000Y-96520000D01*
X86360000Y-96520000D02*
X102870000Y-96520000D01*
X102870000Y-96520000D02*
X104140000Y-97790000D01*
X104140000Y-97790000D02*
X107950000Y-97790000D01*
X107950000Y-97790000D02*
X109220000Y-96520000D01*
X109220000Y-96520000D02*
X111760000Y-96520000D01*
X134620000Y-96520000D02*
X137160000Y-96520000D01*
X133350000Y-97790000D02*
X134620000Y-96520000D01*
X129540000Y-97790000D02*
X133350000Y-97790000D01*
X111760000Y-96520000D02*
X128270000Y-96520000D01*
X128270000Y-96520000D02*
X129540000Y-97790000D01*
X137160000Y-96520000D02*
X153670000Y-96520000D01*
X153670000Y-96520000D02*
X154940000Y-97790000D01*
X154940000Y-97790000D02*
X158750000Y-97790000D01*
X158750000Y-97790000D02*
X160020000Y-96520000D01*
X160020000Y-96520000D02*
X162560000Y-96520000D01*
X162560000Y-96520000D02*
X179070000Y-96520000D01*
X179070000Y-96520000D02*
X180340000Y-97790000D01*
X180340000Y-97790000D02*
X184150000Y-97790000D01*
X184150000Y-97790000D02*
X185420000Y-96520000D01*
X185420000Y-96520000D02*
X187960000Y-96520000D01*
X104140000Y-99060000D02*
X106680000Y-99060000D01*
X102870000Y-97790000D02*
X104140000Y-99060000D01*
X83820000Y-97790000D02*
X102870000Y-97790000D01*
X81280000Y-99060000D02*
X82550000Y-99060000D01*
X82550000Y-99060000D02*
X83820000Y-97790000D01*
X106680000Y-99060000D02*
X107950000Y-99060000D01*
X107950000Y-99060000D02*
X109220000Y-97790000D01*
X109220000Y-97790000D02*
X128270000Y-97790000D01*
X129540000Y-99060000D02*
X132080000Y-99060000D01*
X128270000Y-97790000D02*
X129540000Y-99060000D01*
X132080000Y-99060000D02*
X133350000Y-99060000D01*
X133350000Y-99060000D02*
X134620000Y-97790000D01*
X134620000Y-97790000D02*
X153670000Y-97790000D01*
X153670000Y-97790000D02*
X154940000Y-99060000D01*
X154940000Y-99060000D02*
X157480000Y-99060000D01*
X157480000Y-99060000D02*
X158750000Y-99060000D01*
X158750000Y-99060000D02*
X160020000Y-97790000D01*
X160020000Y-97790000D02*
X179070000Y-97790000D01*
X179070000Y-97790000D02*
X180340000Y-99060000D01*
X180340000Y-99060000D02*
X182880000Y-99060000D01*
X86360000Y-99060000D02*
X102870000Y-99060000D01*
X102870000Y-99060000D02*
X104140000Y-100330000D01*
X104140000Y-100330000D02*
X107950000Y-100330000D01*
X107950000Y-100330000D02*
X109220000Y-99060000D01*
X109220000Y-99060000D02*
X111760000Y-99060000D01*
X111760000Y-99060000D02*
X128270000Y-99060000D01*
X128270000Y-99060000D02*
X129540000Y-100330000D01*
X129540000Y-100330000D02*
X133350000Y-100330000D01*
X133350000Y-100330000D02*
X134620000Y-99060000D01*
X134620000Y-99060000D02*
X137160000Y-99060000D01*
X137160000Y-99060000D02*
X153670000Y-99060000D01*
X153670000Y-99060000D02*
X154940000Y-100330000D01*
X154940000Y-100330000D02*
X158750000Y-100330000D01*
X158750000Y-100330000D02*
X160020000Y-99060000D01*
X160020000Y-99060000D02*
X162560000Y-99060000D01*
X162560000Y-99060000D02*
X179070000Y-99060000D01*
X179070000Y-99060000D02*
X180340000Y-100330000D01*
X180340000Y-100330000D02*
X184150000Y-100330000D01*
X184150000Y-100330000D02*
X185420000Y-99060000D01*
X185420000Y-99060000D02*
X187960000Y-99060000D01*
X81280000Y-101600000D02*
X82550000Y-101600000D01*
X82550000Y-101600000D02*
X83820000Y-100330000D01*
X83820000Y-100330000D02*
X102870000Y-100330000D01*
X102870000Y-100330000D02*
X104140000Y-101600000D01*
X104140000Y-101600000D02*
X106680000Y-101600000D01*
X109057082Y-100424999D02*
X128364999Y-100424999D01*
X106680000Y-101600000D02*
X107882081Y-101600000D01*
X107882081Y-101600000D02*
X109057082Y-100424999D01*
X129540000Y-101600000D02*
X132080000Y-101600000D01*
X128364999Y-100424999D02*
X129540000Y-101600000D01*
X132080000Y-101600000D02*
X133350000Y-101600000D01*
X133350000Y-101600000D02*
X134620000Y-100330000D01*
X134620000Y-100330000D02*
X153670000Y-100330000D01*
X153670000Y-100330000D02*
X154940000Y-101600000D01*
X154940000Y-101600000D02*
X157480000Y-101600000D01*
X157480000Y-101600000D02*
X158750000Y-101600000D01*
X158750000Y-101600000D02*
X160020000Y-100330000D01*
X160020000Y-100330000D02*
X179070000Y-100330000D01*
X179070000Y-100330000D02*
X180340000Y-101600000D01*
X180340000Y-101600000D02*
X182880000Y-101600000D01*
X86360000Y-101600000D02*
X102870000Y-101600000D01*
X102870000Y-101600000D02*
X104140000Y-102870000D01*
X104140000Y-102870000D02*
X107950000Y-102870000D01*
X107950000Y-102870000D02*
X109220000Y-101600000D01*
X109220000Y-101600000D02*
X111760000Y-101600000D01*
X111760000Y-101600000D02*
X128270000Y-101600000D01*
X128270000Y-101600000D02*
X129540000Y-102870000D01*
X129540000Y-102870000D02*
X133350000Y-102870000D01*
X133350000Y-102870000D02*
X134620000Y-101600000D01*
X134620000Y-101600000D02*
X137160000Y-101600000D01*
X137160000Y-101600000D02*
X153670000Y-101600000D01*
X153670000Y-101600000D02*
X154940000Y-102870000D01*
X154940000Y-102870000D02*
X158750000Y-102870000D01*
X158750000Y-102870000D02*
X160020000Y-101600000D01*
X160020000Y-101600000D02*
X162560000Y-101600000D01*
X162560000Y-101600000D02*
X179070000Y-101600000D01*
X179070000Y-101600000D02*
X180340000Y-102870000D01*
X180340000Y-102870000D02*
X184150000Y-102870000D01*
X184150000Y-102870000D02*
X185420000Y-101600000D01*
X185420000Y-101600000D02*
X187960000Y-101600000D01*
X81280000Y-104140000D02*
X82550000Y-104140000D01*
X82550000Y-104140000D02*
X83820000Y-102870000D01*
X83820000Y-102870000D02*
X102870000Y-102870000D01*
X102870000Y-102870000D02*
X104140000Y-104140000D01*
X104140000Y-104140000D02*
X106680000Y-104140000D01*
X109057082Y-102964999D02*
X128364999Y-102964999D01*
X106680000Y-104140000D02*
X107882081Y-104140000D01*
X107882081Y-104140000D02*
X109057082Y-102964999D01*
X129540000Y-104140000D02*
X132080000Y-104140000D01*
X128364999Y-102964999D02*
X129540000Y-104140000D01*
X132080000Y-104140000D02*
X133350000Y-104140000D01*
X133350000Y-104140000D02*
X134620000Y-102870000D01*
X134620000Y-102870000D02*
X153670000Y-102870000D01*
X153670000Y-102870000D02*
X154940000Y-104140000D01*
X154940000Y-104140000D02*
X157480000Y-104140000D01*
X180340000Y-104140000D02*
X182880000Y-104140000D01*
X179070000Y-102870000D02*
X180340000Y-104140000D01*
X160020000Y-102870000D02*
X179070000Y-102870000D01*
X157480000Y-104140000D02*
X158750000Y-104140000D01*
X158750000Y-104140000D02*
X160020000Y-102870000D01*
X86360000Y-104140000D02*
X102870000Y-104140000D01*
X102870000Y-104140000D02*
X104140000Y-105410000D01*
X104140000Y-105410000D02*
X107950000Y-105410000D01*
X107950000Y-105410000D02*
X109220000Y-104140000D01*
X109220000Y-104140000D02*
X111760000Y-104140000D01*
X111760000Y-104140000D02*
X128270000Y-104140000D01*
X128270000Y-104140000D02*
X129540000Y-105410000D01*
X129540000Y-105410000D02*
X133350000Y-105410000D01*
X133350000Y-105410000D02*
X134620000Y-104140000D01*
X134620000Y-104140000D02*
X137160000Y-104140000D01*
X160020000Y-104140000D02*
X162560000Y-104140000D01*
X158750000Y-105410000D02*
X160020000Y-104140000D01*
X154940000Y-105410000D02*
X158750000Y-105410000D01*
X137160000Y-104140000D02*
X153670000Y-104140000D01*
X153670000Y-104140000D02*
X154940000Y-105410000D01*
X162560000Y-104140000D02*
X179070000Y-104140000D01*
X179070000Y-104140000D02*
X180340000Y-105410000D01*
X180340000Y-105410000D02*
X184150000Y-105410000D01*
X184150000Y-105410000D02*
X185420000Y-104140000D01*
X185420000Y-104140000D02*
X187960000Y-104140000D01*
X74645000Y-104140000D02*
X76200000Y-104140000D01*
X76200000Y-104140000D02*
X78740000Y-106680000D01*
X78740000Y-106680000D02*
X81280000Y-106680000D01*
X104140000Y-106680000D02*
X106680000Y-106680000D01*
X102870000Y-105410000D02*
X104140000Y-106680000D01*
X83820000Y-105410000D02*
X102870000Y-105410000D01*
X81280000Y-106680000D02*
X82550000Y-106680000D01*
X82550000Y-106680000D02*
X83820000Y-105410000D01*
X107882081Y-106680000D02*
X109152081Y-105410000D01*
X106680000Y-106680000D02*
X107882081Y-106680000D01*
X109152081Y-105410000D02*
X128270000Y-105410000D01*
X129540000Y-106680000D02*
X132080000Y-106680000D01*
X128270000Y-105410000D02*
X129540000Y-106680000D01*
X132080000Y-106680000D02*
X133350000Y-106680000D01*
X133350000Y-106680000D02*
X134620000Y-105410000D01*
X134620000Y-105410000D02*
X153670000Y-105410000D01*
X153670000Y-105410000D02*
X154940000Y-106680000D01*
X154940000Y-106680000D02*
X157480000Y-106680000D01*
X157480000Y-106680000D02*
X158750000Y-106680000D01*
X158750000Y-106680000D02*
X160020000Y-105410000D01*
X160020000Y-105410000D02*
X179070000Y-105410000D01*
X179070000Y-105410000D02*
X180340000Y-106680000D01*
X180340000Y-106680000D02*
X182880000Y-106680000D01*
X74645000Y-107950000D02*
X76200000Y-107950000D01*
X76200000Y-107950000D02*
X77470000Y-109220000D01*
X77470000Y-109220000D02*
X81280000Y-109220000D01*
X81280000Y-109220000D02*
X82550000Y-109220000D01*
X82550000Y-109220000D02*
X83820000Y-107950000D01*
X83820000Y-107950000D02*
X102870000Y-107950000D01*
X102870000Y-107950000D02*
X104140000Y-109220000D01*
X104140000Y-109220000D02*
X106680000Y-109220000D01*
X109057082Y-108044999D02*
X128364999Y-108044999D01*
X106680000Y-109220000D02*
X107882081Y-109220000D01*
X107882081Y-109220000D02*
X109057082Y-108044999D01*
X129540000Y-109220000D02*
X132080000Y-109220000D01*
X128364999Y-108044999D02*
X129540000Y-109220000D01*
X154940000Y-109220000D02*
X157480000Y-109220000D01*
X153670000Y-107950000D02*
X154940000Y-109220000D01*
X134620000Y-107950000D02*
X153670000Y-107950000D01*
X132080000Y-109220000D02*
X133350000Y-109220000D01*
X133350000Y-109220000D02*
X134620000Y-107950000D01*
X157480000Y-109220000D02*
X158750000Y-109220000D01*
X158750000Y-109220000D02*
X160020000Y-107950000D01*
X160020000Y-107950000D02*
X179070000Y-107950000D01*
X179070000Y-107950000D02*
X180340000Y-109220000D01*
X180340000Y-109220000D02*
X182880000Y-109220000D01*
X74645000Y-111760000D02*
X76200000Y-111760000D01*
X76200000Y-111760000D02*
X77470000Y-110490000D01*
X85090000Y-109220000D02*
X86360000Y-109220000D01*
X82550000Y-110490000D02*
X83820000Y-109220000D01*
X77470000Y-110490000D02*
X82550000Y-110490000D01*
X83820000Y-109220000D02*
X85090000Y-109220000D01*
X109220000Y-109220000D02*
X111760000Y-109220000D01*
X107950000Y-110490000D02*
X109220000Y-109220000D01*
X104140000Y-110490000D02*
X107950000Y-110490000D01*
X86360000Y-109220000D02*
X102870000Y-109220000D01*
X102870000Y-109220000D02*
X104140000Y-110490000D01*
X111760000Y-109220000D02*
X128270000Y-109220000D01*
X128270000Y-109220000D02*
X129540000Y-110490000D01*
X129540000Y-110490000D02*
X133350000Y-110490000D01*
X133350000Y-110490000D02*
X134620000Y-109220000D01*
X134620000Y-109220000D02*
X137160000Y-109220000D01*
X137160000Y-109220000D02*
X153670000Y-109220000D01*
X153670000Y-109220000D02*
X154940000Y-110490000D01*
X154940000Y-110490000D02*
X158750000Y-110490000D01*
X158750000Y-110490000D02*
X160020000Y-109220000D01*
X160020000Y-109220000D02*
X162560000Y-109220000D01*
X162560000Y-109220000D02*
X179070000Y-109220000D01*
X179070000Y-109220000D02*
X180340000Y-110490000D01*
X180340000Y-110490000D02*
X184150000Y-110490000D01*
X184150000Y-110490000D02*
X185420000Y-109220000D01*
X185420000Y-109220000D02*
X187960000Y-109220000D01*
X74645000Y-115570000D02*
X76200000Y-115570000D01*
X76200000Y-115570000D02*
X80010000Y-111760000D01*
X80010000Y-111760000D02*
X81280000Y-111760000D01*
X104140000Y-111760000D02*
X106680000Y-111760000D01*
X102870000Y-110490000D02*
X104140000Y-111760000D01*
X83820000Y-110490000D02*
X102870000Y-110490000D01*
X81280000Y-111760000D02*
X82550000Y-111760000D01*
X82550000Y-111760000D02*
X83820000Y-110490000D01*
X107882081Y-111760000D02*
X109152081Y-110490000D01*
X106680000Y-111760000D02*
X107882081Y-111760000D01*
X109152081Y-110490000D02*
X128270000Y-110490000D01*
X129540000Y-111760000D02*
X132080000Y-111760000D01*
X128270000Y-110490000D02*
X129540000Y-111760000D01*
X132080000Y-111760000D02*
X133350000Y-111760000D01*
X133350000Y-111760000D02*
X134620000Y-110490000D01*
X134620000Y-110490000D02*
X153670000Y-110490000D01*
X153670000Y-110490000D02*
X154940000Y-111760000D01*
X154940000Y-111760000D02*
X157480000Y-111760000D01*
X157480000Y-111760000D02*
X158750000Y-111760000D01*
X158750000Y-111760000D02*
X160020000Y-110490000D01*
X160020000Y-110490000D02*
X179070000Y-110490000D01*
X179070000Y-110490000D02*
X180340000Y-111760000D01*
X180340000Y-111760000D02*
X182880000Y-111760000D01*
X104140000Y-114300000D02*
X106680000Y-114300000D01*
X102870000Y-113030000D02*
X104140000Y-114300000D01*
X83820000Y-113030000D02*
X102870000Y-113030000D01*
X81280000Y-114300000D02*
X82550000Y-114300000D01*
X82550000Y-114300000D02*
X83820000Y-113030000D01*
X106680000Y-114300000D02*
X107950000Y-114300000D01*
X109314999Y-112935001D02*
X128175001Y-112935001D01*
X107950000Y-114300000D02*
X109314999Y-112935001D01*
X128175001Y-112935001D02*
X129540000Y-114300000D01*
X129540000Y-114300000D02*
X132080000Y-114300000D01*
X132080000Y-114300000D02*
X133350000Y-114300000D01*
X133350000Y-114300000D02*
X134620000Y-113030000D01*
X134620000Y-113030000D02*
X153670000Y-113030000D01*
X153670000Y-113030000D02*
X154940000Y-114300000D01*
X154940000Y-114300000D02*
X157480000Y-114300000D01*
X157480000Y-114300000D02*
X158750000Y-114300000D01*
X158750000Y-114300000D02*
X160020000Y-113030000D01*
X160020000Y-113030000D02*
X179070000Y-113030000D01*
X179070000Y-113030000D02*
X180340000Y-114300000D01*
X180340000Y-114300000D02*
X182880000Y-114300000D01*
X109220000Y-114300000D02*
X111760000Y-114300000D01*
X107950000Y-115570000D02*
X109220000Y-114300000D01*
X104140000Y-115570000D02*
X107950000Y-115570000D01*
X86360000Y-114300000D02*
X102870000Y-114300000D01*
X102870000Y-114300000D02*
X104140000Y-115570000D01*
X134620000Y-114300000D02*
X137160000Y-114300000D01*
X133350000Y-115570000D02*
X134620000Y-114300000D01*
X129540000Y-115570000D02*
X133350000Y-115570000D01*
X111760000Y-114300000D02*
X128270000Y-114300000D01*
X128270000Y-114300000D02*
X129540000Y-115570000D01*
X137160000Y-114300000D02*
X153670000Y-114300000D01*
X153670000Y-114300000D02*
X154940000Y-115570000D01*
X158750000Y-115570000D02*
X160020000Y-114300000D01*
X154940000Y-115570000D02*
X158750000Y-115570000D01*
X160020000Y-114300000D02*
X162560000Y-114300000D01*
X162560000Y-114300000D02*
X179070000Y-114300000D01*
X179070000Y-114300000D02*
X180340000Y-115570000D01*
X180340000Y-115570000D02*
X184150000Y-115570000D01*
X184150000Y-115570000D02*
X185420000Y-114300000D01*
X185420000Y-114300000D02*
X187960000Y-114300000D01*
X104140000Y-116840000D02*
X106680000Y-116840000D01*
X102870000Y-115570000D02*
X104140000Y-116840000D01*
X83820000Y-115570000D02*
X102870000Y-115570000D01*
X81280000Y-116840000D02*
X82550000Y-116840000D01*
X82550000Y-116840000D02*
X83820000Y-115570000D01*
X106680000Y-116840000D02*
X107950000Y-116840000D01*
X109314999Y-115475001D02*
X128175001Y-115475001D01*
X107950000Y-116840000D02*
X109314999Y-115475001D01*
X128175001Y-115475001D02*
X129540000Y-116840000D01*
X129540000Y-116840000D02*
X132080000Y-116840000D01*
X132080000Y-116840000D02*
X133350000Y-116840000D01*
X133350000Y-116840000D02*
X134620000Y-115570000D01*
X134620000Y-115570000D02*
X153670000Y-115570000D01*
X153670000Y-115570000D02*
X154940000Y-116840000D01*
X154940000Y-116840000D02*
X157480000Y-116840000D01*
X157480000Y-116840000D02*
X158750000Y-116840000D01*
X158750000Y-116840000D02*
X160020000Y-115570000D01*
X160020000Y-115570000D02*
X179070000Y-115570000D01*
X179070000Y-115570000D02*
X180340000Y-116840000D01*
X180340000Y-116840000D02*
X182880000Y-116840000D01*
X109220000Y-116840000D02*
X111760000Y-116840000D01*
X107950000Y-118110000D02*
X109220000Y-116840000D01*
X104140000Y-118110000D02*
X107950000Y-118110000D01*
X86360000Y-116840000D02*
X102870000Y-116840000D01*
X102870000Y-116840000D02*
X104140000Y-118110000D01*
X111760000Y-116840000D02*
X128270000Y-116840000D01*
X128270000Y-116840000D02*
X129540000Y-118110000D01*
X129540000Y-118110000D02*
X133350000Y-118110000D01*
X134620000Y-116840000D02*
X137160000Y-116840000D01*
X133350000Y-118110000D02*
X134620000Y-116840000D01*
X137160000Y-116840000D02*
X153670000Y-116840000D01*
X153670000Y-116840000D02*
X154940000Y-118110000D01*
X154940000Y-118110000D02*
X158750000Y-118110000D01*
X158750000Y-118110000D02*
X160020000Y-116840000D01*
X160020000Y-116840000D02*
X162560000Y-116840000D01*
X162560000Y-116840000D02*
X179070000Y-116840000D01*
X179070000Y-116840000D02*
X180340000Y-118110000D01*
X180340000Y-118110000D02*
X184150000Y-118110000D01*
X184150000Y-118110000D02*
X185420000Y-116840000D01*
X185420000Y-116840000D02*
X187960000Y-116840000D01*
X81280000Y-119380000D02*
X82550000Y-119380000D01*
X82550000Y-119380000D02*
X83820000Y-118110000D01*
X83820000Y-118110000D02*
X102870000Y-118110000D01*
X102870000Y-118110000D02*
X104140000Y-119380000D01*
X104140000Y-119380000D02*
X106680000Y-119380000D01*
X106680000Y-119380000D02*
X107950000Y-119380000D01*
X109314999Y-118015001D02*
X128175001Y-118015001D01*
X107950000Y-119380000D02*
X109314999Y-118015001D01*
X128175001Y-118015001D02*
X129540000Y-119380000D01*
X129540000Y-119380000D02*
X132080000Y-119380000D01*
X132080000Y-119380000D02*
X133350000Y-119380000D01*
X133350000Y-119380000D02*
X134620000Y-118110000D01*
X134620000Y-118110000D02*
X153670000Y-118110000D01*
X153670000Y-118110000D02*
X154940000Y-119380000D01*
X154940000Y-119380000D02*
X157480000Y-119380000D01*
X180340000Y-119380000D02*
X182880000Y-119380000D01*
X179070000Y-118110000D02*
X180340000Y-119380000D01*
X160020000Y-118110000D02*
X179070000Y-118110000D01*
X157480000Y-119380000D02*
X158750000Y-119380000D01*
X158750000Y-119380000D02*
X160020000Y-118110000D01*
X81280000Y-121920000D02*
X82550000Y-121920000D01*
X82550000Y-121920000D02*
X83820000Y-120650000D01*
X83820000Y-120650000D02*
X102870000Y-120650000D01*
X102870000Y-120650000D02*
X104140000Y-121920000D01*
X104140000Y-121920000D02*
X106680000Y-121920000D01*
X109125001Y-120744999D02*
X128364999Y-120744999D01*
X106680000Y-121920000D02*
X107950000Y-121920000D01*
X107950000Y-121920000D02*
X109125001Y-120744999D01*
X129540000Y-121920000D02*
X132080000Y-121920000D01*
X128364999Y-120744999D02*
X129540000Y-121920000D01*
X154940000Y-121920000D02*
X157480000Y-121920000D01*
X153670000Y-120650000D02*
X154940000Y-121920000D01*
X134620000Y-120650000D02*
X153670000Y-120650000D01*
X132080000Y-121920000D02*
X133350000Y-121920000D01*
X133350000Y-121920000D02*
X134620000Y-120650000D01*
X157480000Y-121920000D02*
X158750000Y-121920000D01*
X158750000Y-121920000D02*
X160020000Y-120650000D01*
X160020000Y-120650000D02*
X179070000Y-120650000D01*
X179070000Y-120650000D02*
X180340000Y-121920000D01*
X180340000Y-121920000D02*
X182880000Y-121920000D01*
X109220000Y-121920000D02*
X111760000Y-121920000D01*
X107950000Y-123190000D02*
X109220000Y-121920000D01*
X104140000Y-123190000D02*
X107950000Y-123190000D01*
X86360000Y-121920000D02*
X102870000Y-121920000D01*
X102870000Y-121920000D02*
X104140000Y-123190000D01*
X111760000Y-121920000D02*
X128270000Y-121920000D01*
X128270000Y-121920000D02*
X129540000Y-123190000D01*
X129540000Y-123190000D02*
X133350000Y-123190000D01*
X133350000Y-123190000D02*
X134620000Y-121920000D01*
X134620000Y-121920000D02*
X137160000Y-121920000D01*
X160020000Y-121920000D02*
X162560000Y-121920000D01*
X158750000Y-123190000D02*
X160020000Y-121920000D01*
X154940000Y-123190000D02*
X158750000Y-123190000D01*
X137160000Y-121920000D02*
X153670000Y-121920000D01*
X153670000Y-121920000D02*
X154940000Y-123190000D01*
X162560000Y-121920000D02*
X179070000Y-121920000D01*
X179070000Y-121920000D02*
X180340000Y-123190000D01*
X180340000Y-123190000D02*
X184150000Y-123190000D01*
X184150000Y-123190000D02*
X185420000Y-121920000D01*
X185420000Y-121920000D02*
X187960000Y-121920000D01*
X86360000Y-124460000D02*
X102870000Y-124460000D01*
X102870000Y-124460000D02*
X104140000Y-125730000D01*
X104140000Y-125730000D02*
X107950000Y-125730000D01*
X107950000Y-125730000D02*
X109220000Y-124460000D01*
X109220000Y-124460000D02*
X111760000Y-124460000D01*
X111760000Y-124460000D02*
X128270000Y-124460000D01*
X128270000Y-124460000D02*
X129540000Y-125730000D01*
X129540000Y-125730000D02*
X133350000Y-125730000D01*
X133350000Y-125730000D02*
X134620000Y-124460000D01*
X134620000Y-124460000D02*
X137160000Y-124460000D01*
X137160000Y-124460000D02*
X153670000Y-124460000D01*
X153670000Y-124460000D02*
X154940000Y-125730000D01*
X154940000Y-125730000D02*
X158750000Y-125730000D01*
X158750000Y-125730000D02*
X160020000Y-124460000D01*
X160020000Y-124460000D02*
X162560000Y-124460000D01*
X162560000Y-124460000D02*
X179070000Y-124460000D01*
X179070000Y-124460000D02*
X180340000Y-125730000D01*
X180340000Y-125730000D02*
X184150000Y-125730000D01*
X184150000Y-125730000D02*
X185420000Y-124460000D01*
X185420000Y-124460000D02*
X187960000Y-124460000D01*
X81280000Y-127000000D02*
X82550000Y-127000000D01*
X82550000Y-127000000D02*
X83820000Y-125730000D01*
X83820000Y-125730000D02*
X102870000Y-125730000D01*
X102870000Y-125730000D02*
X104140000Y-127000000D01*
X104140000Y-127000000D02*
X106680000Y-127000000D01*
X107882081Y-127000000D02*
X109152081Y-125730000D01*
X106680000Y-127000000D02*
X107882081Y-127000000D01*
X109152081Y-125730000D02*
X128270000Y-125730000D01*
X129540000Y-127000000D02*
X132080000Y-127000000D01*
X128270000Y-125730000D02*
X129540000Y-127000000D01*
X132080000Y-127000000D02*
X133350000Y-127000000D01*
X133350000Y-127000000D02*
X134620000Y-125730000D01*
X134620000Y-125730000D02*
X153670000Y-125730000D01*
X153670000Y-125730000D02*
X154940000Y-127000000D01*
X154940000Y-127000000D02*
X157480000Y-127000000D01*
X157480000Y-127000000D02*
X158750000Y-127000000D01*
X158750000Y-127000000D02*
X160020000Y-125730000D01*
X160020000Y-125730000D02*
X179070000Y-125730000D01*
X179070000Y-125730000D02*
X180340000Y-127000000D01*
X180340000Y-127000000D02*
X182880000Y-127000000D01*
X86360000Y-127000000D02*
X102870000Y-127000000D01*
X102870000Y-127000000D02*
X104140000Y-128270000D01*
X104140000Y-128270000D02*
X107950000Y-128270000D01*
X109220000Y-127000000D02*
X111760000Y-127000000D01*
X107950000Y-128270000D02*
X109220000Y-127000000D01*
X111760000Y-127000000D02*
X128270000Y-127000000D01*
X128270000Y-127000000D02*
X129540000Y-128270000D01*
X129540000Y-128270000D02*
X133350000Y-128270000D01*
X133350000Y-128270000D02*
X134620000Y-127000000D01*
X134620000Y-127000000D02*
X137160000Y-127000000D01*
X160020000Y-127000000D02*
X162560000Y-127000000D01*
X158750000Y-128270000D02*
X160020000Y-127000000D01*
X154940000Y-128270000D02*
X158750000Y-128270000D01*
X137160000Y-127000000D02*
X153670000Y-127000000D01*
X153670000Y-127000000D02*
X154940000Y-128270000D01*
X162560000Y-127000000D02*
X179070000Y-127000000D01*
X179070000Y-127000000D02*
X180340000Y-128270000D01*
X180340000Y-128270000D02*
X184150000Y-128270000D01*
X184150000Y-128270000D02*
X185420000Y-127000000D01*
X185420000Y-127000000D02*
X187960000Y-127000000D01*
X81280000Y-129540000D02*
X82550000Y-129540000D01*
X82550000Y-129540000D02*
X83820000Y-128270000D01*
X83820000Y-128270000D02*
X102870000Y-128270000D01*
X102870000Y-128270000D02*
X104140000Y-129540000D01*
X104140000Y-129540000D02*
X106680000Y-129540000D01*
X107882081Y-129540000D02*
X109152081Y-128270000D01*
X106680000Y-129540000D02*
X107882081Y-129540000D01*
X109152081Y-128270000D02*
X128270000Y-128270000D01*
X129540000Y-129540000D02*
X132080000Y-129540000D01*
X128270000Y-128270000D02*
X129540000Y-129540000D01*
X132080000Y-129540000D02*
X133350000Y-129540000D01*
X133350000Y-129540000D02*
X134620000Y-128270000D01*
X134620000Y-128270000D02*
X153670000Y-128270000D01*
X153670000Y-128270000D02*
X154940000Y-129540000D01*
X154940000Y-129540000D02*
X157480000Y-129540000D01*
X157480000Y-129540000D02*
X158750000Y-129540000D01*
X158750000Y-129540000D02*
X160020000Y-128270000D01*
X160020000Y-128270000D02*
X179070000Y-128270000D01*
X180340000Y-129540000D02*
X182880000Y-129540000D01*
X179070000Y-128270000D02*
X180340000Y-129540000D01*
X109220000Y-129540000D02*
X111760000Y-129540000D01*
X107950000Y-130810000D02*
X109220000Y-129540000D01*
X104140000Y-130810000D02*
X107950000Y-130810000D01*
X86360000Y-129540000D02*
X102870000Y-129540000D01*
X102870000Y-129540000D02*
X104140000Y-130810000D01*
X111760000Y-129540000D02*
X128270000Y-129540000D01*
X128270000Y-129540000D02*
X129540000Y-130810000D01*
X129540000Y-130810000D02*
X133350000Y-130810000D01*
X133350000Y-130810000D02*
X134620000Y-129540000D01*
X134620000Y-129540000D02*
X137160000Y-129540000D01*
X137160000Y-129540000D02*
X153670000Y-129540000D01*
X153670000Y-129540000D02*
X154940000Y-130810000D01*
X154940000Y-130810000D02*
X158750000Y-130810000D01*
X158750000Y-130810000D02*
X160020000Y-129540000D01*
X160020000Y-129540000D02*
X162560000Y-129540000D01*
X162560000Y-129540000D02*
X179070000Y-129540000D01*
X179070000Y-129540000D02*
X180340000Y-130810000D01*
X180340000Y-130810000D02*
X184150000Y-130810000D01*
X184150000Y-130810000D02*
X185420000Y-129540000D01*
X185420000Y-129540000D02*
X187960000Y-129540000D01*
X74645000Y-132080000D02*
X81280000Y-132080000D01*
X81280000Y-132080000D02*
X82550000Y-132080000D01*
X82550000Y-132080000D02*
X83820000Y-130810000D01*
X83820000Y-130810000D02*
X102870000Y-130810000D01*
X102870000Y-130810000D02*
X104140000Y-132080000D01*
X104140000Y-132080000D02*
X106680000Y-132080000D01*
X106680000Y-132080000D02*
X107950000Y-132080000D01*
X109125001Y-130904999D02*
X128364999Y-130904999D01*
X107950000Y-132080000D02*
X109125001Y-130904999D01*
X129540000Y-132080000D02*
X132080000Y-132080000D01*
X128364999Y-130904999D02*
X129540000Y-132080000D01*
X132080000Y-132080000D02*
X133350000Y-132080000D01*
X133350000Y-132080000D02*
X134620000Y-130810000D01*
X134620000Y-130810000D02*
X153670000Y-130810000D01*
X153670000Y-130810000D02*
X154940000Y-132080000D01*
X154940000Y-132080000D02*
X157480000Y-132080000D01*
X157480000Y-132080000D02*
X158750000Y-132080000D01*
X158750000Y-132080000D02*
X160020000Y-130810000D01*
X160020000Y-130810000D02*
X179070000Y-130810000D01*
X179070000Y-130810000D02*
X180340000Y-132080000D01*
X180340000Y-132080000D02*
X182880000Y-132080000D01*
X86360000Y-132080000D02*
X102870000Y-132080000D01*
X102870000Y-132080000D02*
X104140000Y-133350000D01*
X104140000Y-133350000D02*
X107950000Y-133350000D01*
X107950000Y-133350000D02*
X109220000Y-132080000D01*
X109220000Y-132080000D02*
X111760000Y-132080000D01*
D28*
X200660000Y-132080000D02*
X200660000Y-121920000D01*
D27*
X111760000Y-132080000D02*
X128270000Y-132080000D01*
X128270000Y-132080000D02*
X129540000Y-133350000D01*
X129540000Y-133350000D02*
X133350000Y-133350000D01*
X133350000Y-133350000D02*
X134620000Y-132080000D01*
X134620000Y-132080000D02*
X137160000Y-132080000D01*
X137160000Y-132080000D02*
X153670000Y-132080000D01*
X153670000Y-132080000D02*
X154940000Y-133350000D01*
X154940000Y-133350000D02*
X158750000Y-133350000D01*
X158750000Y-133350000D02*
X160020000Y-132080000D01*
X160020000Y-132080000D02*
X162560000Y-132080000D01*
X162560000Y-132080000D02*
X179070000Y-132080000D01*
X179070000Y-132080000D02*
X180340000Y-133350000D01*
X180340000Y-133350000D02*
X184150000Y-133350000D01*
X184150000Y-133350000D02*
X185420000Y-132080000D01*
X185420000Y-132080000D02*
X187960000Y-132080000D01*
D29*
X81280000Y-134620000D02*
X82550000Y-134620000D01*
X82550000Y-134620000D02*
X83820000Y-133350000D01*
X83820000Y-133350000D02*
X102870000Y-133350000D01*
X102870000Y-133350000D02*
X104140000Y-134620000D01*
X104140000Y-134620000D02*
X106680000Y-134620000D01*
X106680000Y-134620000D02*
X107950000Y-134620000D01*
X107950000Y-134620000D02*
X109220000Y-133350000D01*
X109220000Y-133350000D02*
X128270000Y-133350000D01*
X129540000Y-134620000D02*
X132080000Y-134620000D01*
X128270000Y-133350000D02*
X129540000Y-134620000D01*
X184150000Y-134620000D02*
X182880000Y-134620000D01*
X193920000Y-96910000D02*
X191770000Y-99060000D01*
X191770000Y-99060000D02*
X191770000Y-132080000D01*
X200660000Y-96910000D02*
X193920000Y-96910000D01*
X191770000Y-132080000D02*
X190500000Y-133350000D01*
X190500000Y-133350000D02*
X185420000Y-133350000D01*
X185420000Y-133350000D02*
X184150000Y-134620000D01*
X132080000Y-134620000D02*
X133350000Y-134620000D01*
X133350000Y-134620000D02*
X134620000Y-133350000D01*
X134620000Y-133350000D02*
X153670000Y-133350000D01*
X153670000Y-133350000D02*
X154940000Y-134620000D01*
X154940000Y-134620000D02*
X157480000Y-134620000D01*
X157480000Y-134620000D02*
X158750000Y-134620000D01*
X158750000Y-134620000D02*
X160020000Y-133350000D01*
X160020000Y-133350000D02*
X179070000Y-133350000D01*
X179070000Y-133350000D02*
X180340000Y-134620000D01*
X180340000Y-134620000D02*
X182880000Y-134620000D01*
X86360000Y-134620000D02*
X102870000Y-134620000D01*
X102870000Y-134620000D02*
X104140000Y-135890000D01*
X104140000Y-135890000D02*
X107950000Y-135890000D01*
X107950000Y-135890000D02*
X109220000Y-134620000D01*
X109220000Y-134620000D02*
X111760000Y-134620000D01*
X111760000Y-134620000D02*
X128270000Y-134620000D01*
X128270000Y-134620000D02*
X129540000Y-135890000D01*
X129540000Y-135890000D02*
X133350000Y-135890000D01*
X134620000Y-134620000D02*
X137160000Y-134620000D01*
X133350000Y-135890000D02*
X134620000Y-134620000D01*
X137160000Y-134620000D02*
X153670000Y-134620000D01*
X153670000Y-134620000D02*
X154940000Y-135890000D01*
X154940000Y-135890000D02*
X158750000Y-135890000D01*
X158750000Y-135890000D02*
X160020000Y-134620000D01*
X160020000Y-134620000D02*
X162560000Y-134620000D01*
X162560000Y-134620000D02*
X179070000Y-134620000D01*
X179070000Y-134620000D02*
X180340000Y-135890000D01*
X180340000Y-135890000D02*
X184150000Y-135890000D01*
X184150000Y-135890000D02*
X185420000Y-134620000D01*
X185420000Y-134620000D02*
X187960000Y-134620000D01*
D30*
X191770000Y-134620000D02*
X187960000Y-134620000D01*
X193675000Y-132715000D02*
X191770000Y-134620000D01*
X193675000Y-103505000D02*
X193675000Y-132715000D01*
X196070000Y-101110000D02*
X193675000Y-103505000D01*
X200660000Y-101110000D02*
X196070000Y-101110000D01*
X73420000Y-81330000D02*
X73420000Y-87630000D01*
X76200000Y-91440000D02*
X76200000Y-93980000D01*
X76200000Y-93980000D02*
X74930000Y-95250000D01*
X73660000Y-95250000D02*
X68580000Y-95250000D01*
X74930000Y-58420000D02*
X92710000Y-58420000D01*
X70930000Y-76200000D02*
X69850000Y-76200000D01*
X69850000Y-76200000D02*
X68580000Y-77470000D01*
X68580000Y-77470000D02*
X68580000Y-86360000D01*
X68580000Y-86360000D02*
X69850000Y-87630000D01*
X69850000Y-87630000D02*
X73420000Y-87630000D01*
X74930000Y-58420000D02*
X74930000Y-55880000D01*
X74930000Y-95250000D02*
X73660000Y-95250000D01*
D27*
X75830000Y-91040000D02*
X75830000Y-91440000D01*
D30*
X73670000Y-88880000D02*
X75830000Y-91040000D01*
D27*
X73420000Y-88880000D02*
X73670000Y-88880000D01*
X73670000Y-87880000D02*
X73420000Y-87630000D01*
D30*
X73670000Y-88880000D02*
X73670000Y-87880000D01*
D27*
X109220000Y-119380000D02*
X111760000Y-119380000D01*
X107950000Y-120650000D02*
X109220000Y-119380000D01*
X104140000Y-120650000D02*
X107950000Y-120650000D01*
X86360000Y-119380000D02*
X102870000Y-119380000D01*
X102870000Y-119380000D02*
X104140000Y-120650000D01*
X111760000Y-119380000D02*
X128270000Y-119380000D01*
X128270000Y-119380000D02*
X129540000Y-120650000D01*
X129540000Y-120650000D02*
X133350000Y-120650000D01*
X133350000Y-120650000D02*
X134620000Y-119380000D01*
X134620000Y-119380000D02*
X137160000Y-119380000D01*
X160020000Y-119380000D02*
X162560000Y-119380000D01*
X158750000Y-120650000D02*
X160020000Y-119380000D01*
X154940000Y-120650000D02*
X158750000Y-120650000D01*
X137160000Y-119380000D02*
X153670000Y-119380000D01*
X153670000Y-119380000D02*
X154940000Y-120650000D01*
X162560000Y-119380000D02*
X179070000Y-119380000D01*
X179070000Y-119380000D02*
X180340000Y-120650000D01*
X180340000Y-120650000D02*
X184150000Y-120650000D01*
X184150000Y-120650000D02*
X185420000Y-119380000D01*
X185420000Y-119380000D02*
X187960000Y-119380000D01*
D31*
X81280000Y-60960000D02*
X86360000Y-60960000D01*
X86360000Y-60960000D02*
X106680000Y-60960000D01*
X106680000Y-60960000D02*
X111760000Y-60960000D01*
X111760000Y-60960000D02*
X132080000Y-60960000D01*
X132080000Y-60960000D02*
X137160000Y-60960000D01*
X137160000Y-60960000D02*
X157480000Y-60960000D01*
X157480000Y-60960000D02*
X162560000Y-60960000D01*
X162560000Y-60960000D02*
X182880000Y-60960000D01*
X182880000Y-60960000D02*
X187960000Y-60960000D01*
X81280000Y-139700000D02*
X86360000Y-139700000D01*
X86360000Y-139700000D02*
X106680000Y-139700000D01*
X106680000Y-139700000D02*
X111760000Y-139700000D01*
X111760000Y-139700000D02*
X132080000Y-139700000D01*
X132080000Y-139700000D02*
X137160000Y-139700000D01*
X156210000Y-139700000D02*
X162560000Y-139700000D01*
D32*
X156210000Y-139700000D02*
X157480000Y-139700000D01*
D31*
X137160000Y-139700000D02*
X156210000Y-139700000D01*
X181610000Y-139700000D02*
X187960000Y-139700000D01*
D32*
X181610000Y-139700000D02*
X182880000Y-139700000D01*
D31*
X162560000Y-139700000D02*
X181610000Y-139700000D01*
D27*
X86360000Y-76200000D02*
X102870000Y-76200000D01*
X102870000Y-76200000D02*
X104140000Y-77470000D01*
X104140000Y-77470000D02*
X107950000Y-77470000D01*
X107950000Y-77470000D02*
X109220000Y-76200000D01*
X109220000Y-76200000D02*
X111760000Y-76200000D01*
D28*
X70930000Y-71120000D02*
X70930000Y-73660000D01*
D27*
X69850000Y-91440000D02*
X70930000Y-91440000D01*
X81280000Y-124460000D02*
X74120000Y-124460000D01*
X74930000Y-128270000D02*
X74930000Y-124460000D01*
X81280000Y-124460000D02*
X82550000Y-124460000D01*
X82550000Y-124460000D02*
X83820000Y-123190000D01*
X83820000Y-123190000D02*
X102870000Y-123190000D01*
X102870000Y-123190000D02*
X104140000Y-124460000D01*
X104140000Y-124460000D02*
X106680000Y-124460000D01*
X86360000Y-111760000D02*
X102870000Y-111760000D01*
X102870000Y-111760000D02*
X104140000Y-113030000D01*
X104140000Y-113030000D02*
X107950000Y-113030000D01*
X107950000Y-113030000D02*
X109220000Y-111760000D01*
X109220000Y-111760000D02*
X111760000Y-111760000D01*
X86360000Y-106680000D02*
X102870000Y-106680000D01*
X102870000Y-106680000D02*
X104140000Y-107950000D01*
X104140000Y-107950000D02*
X107950000Y-107950000D01*
X107950000Y-107950000D02*
X109220000Y-106680000D01*
X109220000Y-106680000D02*
X111760000Y-106680000D01*
X106680000Y-124460000D02*
X107950000Y-124460000D01*
X109125001Y-123284999D02*
X128364999Y-123284999D01*
X107950000Y-124460000D02*
X109125001Y-123284999D01*
X129540000Y-124460000D02*
X132080000Y-124460000D01*
X128364999Y-123284999D02*
X129540000Y-124460000D01*
X70740000Y-68580000D02*
X70930000Y-68770000D01*
D28*
X68580000Y-68580000D02*
X70740000Y-68580000D01*
X70930000Y-66040000D02*
X70930000Y-68770000D01*
X70930000Y-68770000D02*
X70930000Y-71120000D01*
X68580000Y-91440000D02*
X67310000Y-90170000D01*
X68580000Y-68580000D02*
X67310000Y-69850000D01*
D27*
X132080000Y-124460000D02*
X133350000Y-124460000D01*
X133350000Y-124460000D02*
X134620000Y-123190000D01*
X134620000Y-123190000D02*
X153670000Y-123190000D01*
X153670000Y-123190000D02*
X154940000Y-124460000D01*
X154940000Y-124460000D02*
X157480000Y-124460000D01*
X111760000Y-111760000D02*
X128270000Y-111760000D01*
X128270000Y-111760000D02*
X129540000Y-113030000D01*
X129540000Y-113030000D02*
X133350000Y-113030000D01*
X133350000Y-113030000D02*
X134620000Y-111760000D01*
X134620000Y-111760000D02*
X137160000Y-111760000D01*
X111760000Y-106680000D02*
X128270000Y-106680000D01*
X128270000Y-106680000D02*
X129540000Y-107950000D01*
X129540000Y-107950000D02*
X133350000Y-107950000D01*
X133350000Y-107950000D02*
X134620000Y-106680000D01*
X134620000Y-106680000D02*
X137160000Y-106680000D01*
X111760000Y-76200000D02*
X128270000Y-76200000D01*
X134620000Y-76200000D02*
X137160000Y-76200000D01*
X133350000Y-77470000D02*
X134620000Y-76200000D01*
X129540000Y-77470000D02*
X133350000Y-77470000D01*
X128270000Y-76200000D02*
X129540000Y-77470000D01*
X160020000Y-76200000D02*
X162560000Y-76200000D01*
X158750000Y-77470000D02*
X160020000Y-76200000D01*
X154940000Y-77470000D02*
X158750000Y-77470000D01*
X137160000Y-76200000D02*
X153670000Y-76200000D01*
X153670000Y-76200000D02*
X154940000Y-77470000D01*
X162560000Y-76200000D02*
X179070000Y-76200000D01*
X179070000Y-76200000D02*
X180340000Y-77470000D01*
X180340000Y-77470000D02*
X184150000Y-77470000D01*
X184150000Y-77470000D02*
X185420000Y-76200000D01*
X185420000Y-76200000D02*
X187960000Y-76200000D01*
X137160000Y-106680000D02*
X153670000Y-106680000D01*
X153670000Y-106680000D02*
X154940000Y-107950000D01*
X154940000Y-107950000D02*
X158750000Y-107950000D01*
X158750000Y-107950000D02*
X160020000Y-106680000D01*
X160020000Y-106680000D02*
X162560000Y-106680000D01*
X185420000Y-106680000D02*
X187960000Y-106680000D01*
X184150000Y-107950000D02*
X185420000Y-106680000D01*
X180340000Y-107950000D02*
X184150000Y-107950000D01*
X162560000Y-106680000D02*
X179070000Y-106680000D01*
X179070000Y-106680000D02*
X180340000Y-107950000D01*
X137160000Y-111760000D02*
X153670000Y-111760000D01*
X153670000Y-111760000D02*
X154940000Y-113030000D01*
X154940000Y-113030000D02*
X158750000Y-113030000D01*
X158750000Y-113030000D02*
X160020000Y-111760000D01*
X160020000Y-111760000D02*
X162560000Y-111760000D01*
X162560000Y-111760000D02*
X179070000Y-111760000D01*
X179070000Y-111760000D02*
X180340000Y-113030000D01*
X180340000Y-113030000D02*
X184150000Y-113030000D01*
X184150000Y-113030000D02*
X185420000Y-111760000D01*
X185420000Y-111760000D02*
X187960000Y-111760000D01*
X157480000Y-124460000D02*
X158750000Y-124460000D01*
X158750000Y-124460000D02*
X160020000Y-123190000D01*
X160020000Y-123190000D02*
X179070000Y-123190000D01*
X179070000Y-123190000D02*
X180340000Y-124460000D01*
X180340000Y-124460000D02*
X182880000Y-124460000D01*
D28*
X68580000Y-91440000D02*
X70030000Y-91440000D01*
D31*
X200660000Y-64770000D02*
X200660000Y-68580000D01*
X187960000Y-60960000D02*
X196850000Y-60960000D01*
X196850000Y-60960000D02*
X200660000Y-64770000D01*
X200660000Y-68580000D02*
X200660000Y-92710000D01*
D33*
X187960000Y-63500000D02*
X182880000Y-63500000D01*
X182880000Y-63500000D02*
X162560000Y-63500000D01*
X162560000Y-63500000D02*
X157480000Y-63500000D01*
X157480000Y-63500000D02*
X137160000Y-63500000D01*
X137160000Y-63500000D02*
X132080000Y-63500000D01*
X132080000Y-63500000D02*
X111760000Y-63500000D01*
X111760000Y-63500000D02*
X106680000Y-63500000D01*
X106680000Y-63500000D02*
X86360000Y-63500000D01*
X87630000Y-137160000D02*
X86360000Y-137160000D01*
X106680000Y-137160000D02*
X87630000Y-137160000D01*
X86360000Y-63500000D02*
X81280000Y-63500000D01*
D32*
X76200000Y-63500000D02*
X74930000Y-64770000D01*
X74930000Y-64770000D02*
X74930000Y-66040000D01*
X75720000Y-81330000D02*
X76150000Y-81330000D01*
X76150000Y-81330000D02*
X77470000Y-80010000D01*
X77470000Y-80010000D02*
X77470000Y-63500000D01*
X81280000Y-63500000D02*
X77470000Y-63500000D01*
X77470000Y-63500000D02*
X76200000Y-63500000D01*
D33*
X86360000Y-137160000D02*
X81280000Y-137160000D01*
D32*
X74930000Y-137160000D02*
X81280000Y-137160000D01*
D33*
X191770000Y-137160000D02*
X187960000Y-137160000D01*
X194310000Y-137160000D02*
X191770000Y-137160000D01*
X196040102Y-135429898D02*
X194310000Y-137160000D01*
X196950000Y-105310000D02*
X196040102Y-106219898D01*
X200660000Y-105310000D02*
X196950000Y-105310000D01*
X196500204Y-119380000D02*
X196040102Y-118919898D01*
X200660000Y-119380000D02*
X196500204Y-119380000D01*
X196040102Y-106219898D02*
X196040102Y-118919898D01*
X196040102Y-118919898D02*
X196040102Y-135429898D01*
X106680000Y-137160000D02*
X111760000Y-137160000D01*
X111760000Y-137160000D02*
X132080000Y-137160000D01*
X132080000Y-137160000D02*
X137160000Y-137160000D01*
X137160000Y-137160000D02*
X157480000Y-137160000D01*
X157480000Y-137160000D02*
X162560000Y-137160000D01*
X162560000Y-137160000D02*
X182880000Y-137160000D01*
X182880000Y-137160000D02*
X187960000Y-137160000D01*
D30*
X74930000Y-71120000D02*
X74930000Y-73660000D01*
X74930000Y-73660000D02*
X74930000Y-76200000D01*
X71120000Y-81330000D02*
X71120000Y-80010000D01*
X71120000Y-80010000D02*
X72390000Y-78740000D01*
X72390000Y-78740000D02*
X73660000Y-78740000D01*
X73660000Y-78740000D02*
X74930000Y-77470000D01*
X74930000Y-77470000D02*
X74930000Y-76200000D01*
D34*
X70930000Y-132495000D02*
X71345000Y-132080000D01*
D30*
X70930000Y-137160000D02*
X70930000Y-132495000D01*
D34*
X71345000Y-128685000D02*
X70930000Y-128270000D01*
D30*
X71345000Y-132080000D02*
X71345000Y-128685000D01*
D34*
X71120000Y-128080000D02*
X70930000Y-128270000D01*
D30*
X71120000Y-124460000D02*
X71120000Y-128080000D01*
X71345000Y-104140000D02*
X71345000Y-107950000D01*
X71345000Y-107950000D02*
X71345000Y-111760000D01*
X71345000Y-111760000D02*
X71345000Y-115570000D01*
D34*
X71345000Y-124235000D02*
X71120000Y-124460000D01*
D30*
X71345000Y-115570000D02*
X71345000Y-124235000D01*
M02*
