G04 #@! TF.GenerationSoftware,KiCad,Pcbnew,(5.1.4)-1*
G04 #@! TF.CreationDate,2019-10-27T15:44:07+01:00*
G04 #@! TF.ProjectId,stebus,73746562-7573-42e6-9b69-6361645f7063,rev?*
G04 #@! TF.SameCoordinates,Original*
G04 #@! TF.FileFunction,Legend,Top*
G04 #@! TF.FilePolarity,Positive*
%FSLAX46Y46*%
G04 Gerber Fmt 4.6, Leading zero omitted, Abs format (unit mm)*
G04 Created by KiCad (PCBNEW (5.1.4)-1) date 2019-10-27 15:44:07*
%MOMM*%
%LPD*%
G04 APERTURE LIST*
%ADD10C,0.150000*%
%ADD11C,0.120000*%
G04 APERTURE END LIST*
D10*
X194714761Y-94731428D02*
X194762380Y-94588571D01*
X194762380Y-94350476D01*
X194714761Y-94255238D01*
X194667142Y-94207619D01*
X194571904Y-94160000D01*
X194476666Y-94160000D01*
X194381428Y-94207619D01*
X194333809Y-94255238D01*
X194286190Y-94350476D01*
X194238571Y-94540952D01*
X194190952Y-94636190D01*
X194143333Y-94683809D01*
X194048095Y-94731428D01*
X193952857Y-94731428D01*
X193857619Y-94683809D01*
X193810000Y-94636190D01*
X193762380Y-94540952D01*
X193762380Y-94302857D01*
X193810000Y-94160000D01*
X193762380Y-93874285D02*
X193762380Y-93302857D01*
X194762380Y-93588571D02*
X193762380Y-93588571D01*
X194238571Y-92969523D02*
X194238571Y-92636190D01*
X194762380Y-92493333D02*
X194762380Y-92969523D01*
X193762380Y-92969523D01*
X193762380Y-92493333D01*
X194238571Y-91731428D02*
X194286190Y-91588571D01*
X194333809Y-91540952D01*
X194429047Y-91493333D01*
X194571904Y-91493333D01*
X194667142Y-91540952D01*
X194714761Y-91588571D01*
X194762380Y-91683809D01*
X194762380Y-92064761D01*
X193762380Y-92064761D01*
X193762380Y-91731428D01*
X193810000Y-91636190D01*
X193857619Y-91588571D01*
X193952857Y-91540952D01*
X194048095Y-91540952D01*
X194143333Y-91588571D01*
X194190952Y-91636190D01*
X194238571Y-91731428D01*
X194238571Y-92064761D01*
X193762380Y-91064761D02*
X194571904Y-91064761D01*
X194667142Y-91017142D01*
X194714761Y-90969523D01*
X194762380Y-90874285D01*
X194762380Y-90683809D01*
X194714761Y-90588571D01*
X194667142Y-90540952D01*
X194571904Y-90493333D01*
X193762380Y-90493333D01*
X194714761Y-90064761D02*
X194762380Y-89921904D01*
X194762380Y-89683809D01*
X194714761Y-89588571D01*
X194667142Y-89540952D01*
X194571904Y-89493333D01*
X194476666Y-89493333D01*
X194381428Y-89540952D01*
X194333809Y-89588571D01*
X194286190Y-89683809D01*
X194238571Y-89874285D01*
X194190952Y-89969523D01*
X194143333Y-90017142D01*
X194048095Y-90064761D01*
X193952857Y-90064761D01*
X193857619Y-90017142D01*
X193810000Y-89969523D01*
X193762380Y-89874285D01*
X193762380Y-89636190D01*
X193810000Y-89493333D01*
X194238571Y-87969523D02*
X194286190Y-87826666D01*
X194333809Y-87779047D01*
X194429047Y-87731428D01*
X194571904Y-87731428D01*
X194667142Y-87779047D01*
X194714761Y-87826666D01*
X194762380Y-87921904D01*
X194762380Y-88302857D01*
X193762380Y-88302857D01*
X193762380Y-87969523D01*
X193810000Y-87874285D01*
X193857619Y-87826666D01*
X193952857Y-87779047D01*
X194048095Y-87779047D01*
X194143333Y-87826666D01*
X194190952Y-87874285D01*
X194238571Y-87969523D01*
X194238571Y-88302857D01*
X194476666Y-87350476D02*
X194476666Y-86874285D01*
X194762380Y-87445714D02*
X193762380Y-87112380D01*
X194762380Y-86779047D01*
X194667142Y-85874285D02*
X194714761Y-85921904D01*
X194762380Y-86064761D01*
X194762380Y-86160000D01*
X194714761Y-86302857D01*
X194619523Y-86398095D01*
X194524285Y-86445714D01*
X194333809Y-86493333D01*
X194190952Y-86493333D01*
X194000476Y-86445714D01*
X193905238Y-86398095D01*
X193810000Y-86302857D01*
X193762380Y-86160000D01*
X193762380Y-86064761D01*
X193810000Y-85921904D01*
X193857619Y-85874285D01*
X194762380Y-85445714D02*
X193762380Y-85445714D01*
X194762380Y-84874285D02*
X194190952Y-85302857D01*
X193762380Y-84874285D02*
X194333809Y-85445714D01*
X194762380Y-84445714D02*
X193762380Y-84445714D01*
X193762380Y-84064761D01*
X193810000Y-83969523D01*
X193857619Y-83921904D01*
X193952857Y-83874285D01*
X194095714Y-83874285D01*
X194190952Y-83921904D01*
X194238571Y-83969523D01*
X194286190Y-84064761D01*
X194286190Y-84445714D01*
X194762380Y-82969523D02*
X194762380Y-83445714D01*
X193762380Y-83445714D01*
X194476666Y-82683809D02*
X194476666Y-82207619D01*
X194762380Y-82779047D02*
X193762380Y-82445714D01*
X194762380Y-82112380D01*
X194762380Y-81779047D02*
X193762380Y-81779047D01*
X194762380Y-81207619D01*
X193762380Y-81207619D01*
X194238571Y-80731428D02*
X194238571Y-80398095D01*
X194762380Y-80255238D02*
X194762380Y-80731428D01*
X193762380Y-80731428D01*
X193762380Y-80255238D01*
X194286190Y-78445714D02*
X194238571Y-78493333D01*
X194190952Y-78588571D01*
X194190952Y-78683809D01*
X194238571Y-78779047D01*
X194286190Y-78826666D01*
X194381428Y-78874285D01*
X194476666Y-78874285D01*
X194571904Y-78826666D01*
X194619523Y-78779047D01*
X194667142Y-78683809D01*
X194667142Y-78588571D01*
X194619523Y-78493333D01*
X194571904Y-78445714D01*
X194190952Y-78445714D02*
X194571904Y-78445714D01*
X194619523Y-78398095D01*
X194619523Y-78350476D01*
X194571904Y-78255238D01*
X194476666Y-78207619D01*
X194238571Y-78207619D01*
X194095714Y-78302857D01*
X194000476Y-78445714D01*
X193952857Y-78636190D01*
X194000476Y-78826666D01*
X194095714Y-78969523D01*
X194238571Y-79064761D01*
X194429047Y-79112380D01*
X194619523Y-79064761D01*
X194762380Y-78969523D01*
X194857619Y-78826666D01*
X194905238Y-78636190D01*
X194857619Y-78445714D01*
X194762380Y-78302857D01*
X194857619Y-78017142D02*
X194857619Y-77255238D01*
X194762380Y-76540952D02*
X194762380Y-77017142D01*
X193762380Y-77017142D01*
X194762380Y-75779047D02*
X194238571Y-75779047D01*
X194143333Y-75826666D01*
X194095714Y-75921904D01*
X194095714Y-76112380D01*
X194143333Y-76207619D01*
X194714761Y-75779047D02*
X194762380Y-75874285D01*
X194762380Y-76112380D01*
X194714761Y-76207619D01*
X194619523Y-76255238D01*
X194524285Y-76255238D01*
X194429047Y-76207619D01*
X194381428Y-76112380D01*
X194381428Y-75874285D01*
X194333809Y-75779047D01*
X194095714Y-74874285D02*
X194762380Y-74874285D01*
X194095714Y-75302857D02*
X194619523Y-75302857D01*
X194714761Y-75255238D01*
X194762380Y-75160000D01*
X194762380Y-75017142D01*
X194714761Y-74921904D01*
X194667142Y-74874285D01*
X194762380Y-74398095D02*
X194095714Y-74398095D01*
X194286190Y-74398095D02*
X194190952Y-74350476D01*
X194143333Y-74302857D01*
X194095714Y-74207619D01*
X194095714Y-74112380D01*
X194714761Y-73398095D02*
X194762380Y-73493333D01*
X194762380Y-73683809D01*
X194714761Y-73779047D01*
X194619523Y-73826666D01*
X194238571Y-73826666D01*
X194143333Y-73779047D01*
X194095714Y-73683809D01*
X194095714Y-73493333D01*
X194143333Y-73398095D01*
X194238571Y-73350476D01*
X194333809Y-73350476D01*
X194429047Y-73826666D01*
X194095714Y-72921904D02*
X194762380Y-72921904D01*
X194190952Y-72921904D02*
X194143333Y-72874285D01*
X194095714Y-72779047D01*
X194095714Y-72636190D01*
X194143333Y-72540952D01*
X194238571Y-72493333D01*
X194762380Y-72493333D01*
X194095714Y-72160000D02*
X194095714Y-71779047D01*
X193762380Y-72017142D02*
X194619523Y-72017142D01*
X194714761Y-71969523D01*
X194762380Y-71874285D01*
X194762380Y-71779047D01*
X194857619Y-71683809D02*
X194857619Y-70921904D01*
X194238571Y-70350476D02*
X194238571Y-70683809D01*
X194762380Y-70683809D02*
X193762380Y-70683809D01*
X193762380Y-70207619D01*
X194762380Y-69826666D02*
X194095714Y-69826666D01*
X194286190Y-69826666D02*
X194190952Y-69779047D01*
X194143333Y-69731428D01*
X194095714Y-69636190D01*
X194095714Y-69540952D01*
X194857619Y-69445714D02*
X194857619Y-68683809D01*
X193857619Y-67731428D02*
X193810000Y-67683809D01*
X193762380Y-67588571D01*
X193762380Y-67350476D01*
X193810000Y-67255238D01*
X193857619Y-67207619D01*
X193952857Y-67160000D01*
X194048095Y-67160000D01*
X194190952Y-67207619D01*
X194762380Y-67779047D01*
X194762380Y-67160000D01*
X193762380Y-66540952D02*
X193762380Y-66445714D01*
X193810000Y-66350476D01*
X193857619Y-66302857D01*
X193952857Y-66255238D01*
X194143333Y-66207619D01*
X194381428Y-66207619D01*
X194571904Y-66255238D01*
X194667142Y-66302857D01*
X194714761Y-66350476D01*
X194762380Y-66445714D01*
X194762380Y-66540952D01*
X194714761Y-66636190D01*
X194667142Y-66683809D01*
X194571904Y-66731428D01*
X194381428Y-66779047D01*
X194143333Y-66779047D01*
X193952857Y-66731428D01*
X193857619Y-66683809D01*
X193810000Y-66636190D01*
X193762380Y-66540952D01*
X194762380Y-65255238D02*
X194762380Y-65826666D01*
X194762380Y-65540952D02*
X193762380Y-65540952D01*
X193905238Y-65636190D01*
X194000476Y-65731428D01*
X194048095Y-65826666D01*
X194762380Y-64779047D02*
X194762380Y-64588571D01*
X194714761Y-64493333D01*
X194667142Y-64445714D01*
X194524285Y-64350476D01*
X194333809Y-64302857D01*
X193952857Y-64302857D01*
X193857619Y-64350476D01*
X193810000Y-64398095D01*
X193762380Y-64493333D01*
X193762380Y-64683809D01*
X193810000Y-64779047D01*
X193857619Y-64826666D01*
X193952857Y-64874285D01*
X194190952Y-64874285D01*
X194286190Y-64826666D01*
X194333809Y-64779047D01*
X194381428Y-64683809D01*
X194381428Y-64493333D01*
X194333809Y-64398095D01*
X194286190Y-64350476D01*
X194190952Y-64302857D01*
X194667142Y-62540952D02*
X194714761Y-62588571D01*
X194762380Y-62731428D01*
X194762380Y-62826666D01*
X194714761Y-62969523D01*
X194619523Y-63064761D01*
X194524285Y-63112380D01*
X194333809Y-63160000D01*
X194190952Y-63160000D01*
X194000476Y-63112380D01*
X193905238Y-63064761D01*
X193810000Y-62969523D01*
X193762380Y-62826666D01*
X193762380Y-62731428D01*
X193810000Y-62588571D01*
X193857619Y-62540952D01*
X194667142Y-61540952D02*
X194714761Y-61588571D01*
X194762380Y-61731428D01*
X194762380Y-61826666D01*
X194714761Y-61969523D01*
X194619523Y-62064761D01*
X194524285Y-62112380D01*
X194333809Y-62160000D01*
X194190952Y-62160000D01*
X194000476Y-62112380D01*
X193905238Y-62064761D01*
X193810000Y-61969523D01*
X193762380Y-61826666D01*
X193762380Y-61731428D01*
X193810000Y-61588571D01*
X193857619Y-61540952D01*
X194238571Y-60017142D02*
X194286190Y-59874285D01*
X194333809Y-59826666D01*
X194429047Y-59779047D01*
X194571904Y-59779047D01*
X194667142Y-59826666D01*
X194714761Y-59874285D01*
X194762380Y-59969523D01*
X194762380Y-60350476D01*
X193762380Y-60350476D01*
X193762380Y-60017142D01*
X193810000Y-59921904D01*
X193857619Y-59874285D01*
X193952857Y-59826666D01*
X194048095Y-59826666D01*
X194143333Y-59874285D01*
X194190952Y-59921904D01*
X194238571Y-60017142D01*
X194238571Y-60350476D01*
X194286190Y-59160000D02*
X194762380Y-59160000D01*
X193762380Y-59493333D02*
X194286190Y-59160000D01*
X193762380Y-58826666D01*
X194381428Y-58493333D02*
X194381428Y-57731428D01*
X194762380Y-57255238D02*
X193762380Y-57255238D01*
X194762380Y-56683809D01*
X193762380Y-56683809D01*
X194667142Y-55636190D02*
X194714761Y-55683809D01*
X194762380Y-55826666D01*
X194762380Y-55921904D01*
X194714761Y-56064761D01*
X194619523Y-56160000D01*
X194524285Y-56207619D01*
X194333809Y-56255238D01*
X194190952Y-56255238D01*
X194000476Y-56207619D01*
X193905238Y-56160000D01*
X193810000Y-56064761D01*
X193762380Y-55921904D01*
X193762380Y-55826666D01*
X193810000Y-55683809D01*
X193857619Y-55636190D01*
X194381428Y-55207619D02*
X194381428Y-54445714D01*
X194714761Y-54017142D02*
X194762380Y-53874285D01*
X194762380Y-53636190D01*
X194714761Y-53540952D01*
X194667142Y-53493333D01*
X194571904Y-53445714D01*
X194476666Y-53445714D01*
X194381428Y-53493333D01*
X194333809Y-53540952D01*
X194286190Y-53636190D01*
X194238571Y-53826666D01*
X194190952Y-53921904D01*
X194143333Y-53969523D01*
X194048095Y-54017142D01*
X193952857Y-54017142D01*
X193857619Y-53969523D01*
X193810000Y-53921904D01*
X193762380Y-53826666D01*
X193762380Y-53588571D01*
X193810000Y-53445714D01*
X194476666Y-53064761D02*
X194476666Y-52588571D01*
X194762380Y-53160000D02*
X193762380Y-52826666D01*
X194762380Y-52493333D01*
X72930000Y-59761428D02*
X73691904Y-59761428D01*
X73310952Y-60142380D02*
X73310952Y-59380476D01*
X74120476Y-59237619D02*
X74168095Y-59190000D01*
X74263333Y-59142380D01*
X74501428Y-59142380D01*
X74596666Y-59190000D01*
X74644285Y-59237619D01*
X74691904Y-59332857D01*
X74691904Y-59428095D01*
X74644285Y-59570952D01*
X74072857Y-60142380D01*
X74691904Y-60142380D01*
X75120476Y-60047142D02*
X75168095Y-60094761D01*
X75120476Y-60142380D01*
X75072857Y-60094761D01*
X75120476Y-60047142D01*
X75120476Y-60142380D01*
X75739523Y-59570952D02*
X75644285Y-59523333D01*
X75596666Y-59475714D01*
X75549047Y-59380476D01*
X75549047Y-59332857D01*
X75596666Y-59237619D01*
X75644285Y-59190000D01*
X75739523Y-59142380D01*
X75930000Y-59142380D01*
X76025238Y-59190000D01*
X76072857Y-59237619D01*
X76120476Y-59332857D01*
X76120476Y-59380476D01*
X76072857Y-59475714D01*
X76025238Y-59523333D01*
X75930000Y-59570952D01*
X75739523Y-59570952D01*
X75644285Y-59618571D01*
X75596666Y-59666190D01*
X75549047Y-59761428D01*
X75549047Y-59951904D01*
X75596666Y-60047142D01*
X75644285Y-60094761D01*
X75739523Y-60142380D01*
X75930000Y-60142380D01*
X76025238Y-60094761D01*
X76072857Y-60047142D01*
X76120476Y-59951904D01*
X76120476Y-59761428D01*
X76072857Y-59666190D01*
X76025238Y-59618571D01*
X75930000Y-59570952D01*
X76406190Y-59142380D02*
X76739523Y-60142380D01*
X77072857Y-59142380D01*
X199898095Y-70620000D02*
X199802857Y-70572380D01*
X199660000Y-70572380D01*
X199517142Y-70620000D01*
X199421904Y-70715238D01*
X199374285Y-70810476D01*
X199326666Y-71000952D01*
X199326666Y-71143809D01*
X199374285Y-71334285D01*
X199421904Y-71429523D01*
X199517142Y-71524761D01*
X199660000Y-71572380D01*
X199755238Y-71572380D01*
X199898095Y-71524761D01*
X199945714Y-71477142D01*
X199945714Y-71143809D01*
X199755238Y-71143809D01*
X200374285Y-71572380D02*
X200374285Y-70572380D01*
X200945714Y-71572380D01*
X200945714Y-70572380D01*
X201421904Y-71572380D02*
X201421904Y-70572380D01*
X201660000Y-70572380D01*
X201802857Y-70620000D01*
X201898095Y-70715238D01*
X201945714Y-70810476D01*
X201993333Y-71000952D01*
X201993333Y-71143809D01*
X201945714Y-71334285D01*
X201898095Y-71429523D01*
X201802857Y-71524761D01*
X201660000Y-71572380D01*
X201421904Y-71572380D01*
D11*
X71930000Y-64970000D02*
X73930000Y-64970000D01*
X73930000Y-67110000D02*
X71930000Y-67110000D01*
X73930000Y-69650000D02*
X71930000Y-69650000D01*
X71930000Y-67510000D02*
X73930000Y-67510000D01*
X71930000Y-70050000D02*
X73930000Y-70050000D01*
X73930000Y-72190000D02*
X71930000Y-72190000D01*
X73930000Y-74730000D02*
X71930000Y-74730000D01*
X71930000Y-72590000D02*
X73930000Y-72590000D01*
X71930000Y-75130000D02*
X73930000Y-75130000D01*
X73930000Y-77270000D02*
X71930000Y-77270000D01*
X73930000Y-79810000D02*
X71930000Y-79810000D01*
X71930000Y-77670000D02*
X73930000Y-77670000D01*
X71930000Y-80210000D02*
X73930000Y-80210000D01*
X73930000Y-82350000D02*
X71930000Y-82350000D01*
X71930000Y-82750000D02*
X73930000Y-82750000D01*
X73930000Y-84890000D02*
X71930000Y-84890000D01*
X73930000Y-102670000D02*
X71930000Y-102670000D01*
X71930000Y-100530000D02*
X73930000Y-100530000D01*
X73930000Y-120450000D02*
X71930000Y-120450000D01*
X71930000Y-118310000D02*
X73930000Y-118310000D01*
X73930000Y-87430000D02*
X71930000Y-87430000D01*
X71930000Y-85290000D02*
X73930000Y-85290000D01*
X71930000Y-103070000D02*
X73930000Y-103070000D01*
X73930000Y-105210000D02*
X71930000Y-105210000D01*
X71930000Y-120850000D02*
X73930000Y-120850000D01*
X73930000Y-122990000D02*
X71930000Y-122990000D01*
X71930000Y-87830000D02*
X73930000Y-87830000D01*
X73930000Y-89970000D02*
X71930000Y-89970000D01*
X73930000Y-107750000D02*
X71930000Y-107750000D01*
X71930000Y-105610000D02*
X73930000Y-105610000D01*
X73930000Y-128070000D02*
X71930000Y-128070000D01*
X71930000Y-125930000D02*
X73930000Y-125930000D01*
X73930000Y-92510000D02*
X71930000Y-92510000D01*
X71930000Y-90370000D02*
X73930000Y-90370000D01*
X71930000Y-108150000D02*
X73930000Y-108150000D01*
X73930000Y-110290000D02*
X71930000Y-110290000D01*
X71930000Y-128470000D02*
X73930000Y-128470000D01*
X73930000Y-130610000D02*
X71930000Y-130610000D01*
X71930000Y-92910000D02*
X73930000Y-92910000D01*
X73930000Y-95050000D02*
X71930000Y-95050000D01*
X73930000Y-112830000D02*
X71930000Y-112830000D01*
X71930000Y-110690000D02*
X73930000Y-110690000D01*
X73930000Y-133150000D02*
X71930000Y-133150000D01*
X71930000Y-131010000D02*
X73930000Y-131010000D01*
X73930000Y-97590000D02*
X71930000Y-97590000D01*
X71930000Y-95450000D02*
X73930000Y-95450000D01*
X71930000Y-113230000D02*
X73930000Y-113230000D01*
X73930000Y-115370000D02*
X71930000Y-115370000D01*
X95710000Y-128070000D02*
X93710000Y-128070000D01*
X93710000Y-125930000D02*
X95710000Y-125930000D01*
X73930000Y-100130000D02*
X71930000Y-100130000D01*
X71930000Y-97990000D02*
X73930000Y-97990000D01*
X71930000Y-115770000D02*
X73930000Y-115770000D01*
X73930000Y-117910000D02*
X71930000Y-117910000D01*
X93710000Y-128470000D02*
X95710000Y-128470000D01*
X95710000Y-130610000D02*
X93710000Y-130610000D01*
X95710000Y-67110000D02*
X93710000Y-67110000D01*
X93710000Y-64970000D02*
X95710000Y-64970000D01*
X95710000Y-87430000D02*
X93710000Y-87430000D01*
X93710000Y-85290000D02*
X95710000Y-85290000D01*
X95710000Y-105210000D02*
X93710000Y-105210000D01*
X93710000Y-103070000D02*
X95710000Y-103070000D01*
X93710000Y-67510000D02*
X95710000Y-67510000D01*
X95710000Y-69650000D02*
X93710000Y-69650000D01*
X93710000Y-87830000D02*
X95710000Y-87830000D01*
X95710000Y-89970000D02*
X93710000Y-89970000D01*
X93710000Y-108150000D02*
X95710000Y-108150000D01*
X95710000Y-110290000D02*
X93710000Y-110290000D01*
X95710000Y-72190000D02*
X93710000Y-72190000D01*
X93710000Y-70050000D02*
X95710000Y-70050000D01*
X95710000Y-92510000D02*
X93710000Y-92510000D01*
X93710000Y-90370000D02*
X95710000Y-90370000D01*
X95710000Y-115370000D02*
X93710000Y-115370000D01*
X93710000Y-113230000D02*
X95710000Y-113230000D01*
X93710000Y-72590000D02*
X95710000Y-72590000D01*
X95710000Y-74730000D02*
X93710000Y-74730000D01*
X93710000Y-92910000D02*
X95710000Y-92910000D01*
X95710000Y-95050000D02*
X93710000Y-95050000D01*
X93710000Y-115770000D02*
X95710000Y-115770000D01*
X95710000Y-117910000D02*
X93710000Y-117910000D01*
X93710000Y-77670000D02*
X95710000Y-77670000D01*
X95710000Y-79810000D02*
X93710000Y-79810000D01*
X95710000Y-97590000D02*
X93710000Y-97590000D01*
X93710000Y-95450000D02*
X95710000Y-95450000D01*
X95710000Y-120450000D02*
X93710000Y-120450000D01*
X93710000Y-118310000D02*
X95710000Y-118310000D01*
X95710000Y-82350000D02*
X93710000Y-82350000D01*
X93710000Y-80210000D02*
X95710000Y-80210000D01*
X93710000Y-97990000D02*
X95710000Y-97990000D01*
X95710000Y-100130000D02*
X93710000Y-100130000D01*
X93710000Y-120850000D02*
X95710000Y-120850000D01*
X95710000Y-122990000D02*
X93710000Y-122990000D01*
X93710000Y-82750000D02*
X95710000Y-82750000D01*
X95710000Y-84890000D02*
X93710000Y-84890000D01*
X95710000Y-102670000D02*
X93710000Y-102670000D01*
X93710000Y-100530000D02*
X95710000Y-100530000D01*
X95710000Y-125530000D02*
X93710000Y-125530000D01*
X93710000Y-123390000D02*
X95710000Y-123390000D01*
X71930000Y-125480000D02*
X73930000Y-125480000D01*
X73930000Y-123440000D02*
X71930000Y-123440000D01*
X93710000Y-107700000D02*
X95710000Y-107700000D01*
X95710000Y-105660000D02*
X93710000Y-105660000D01*
X71930000Y-64520000D02*
X73930000Y-64520000D01*
X73930000Y-62480000D02*
X71930000Y-62480000D01*
X93710000Y-77220000D02*
X95710000Y-77220000D01*
X95710000Y-75180000D02*
X93710000Y-75180000D01*
X203010000Y-101110000D02*
X203010000Y-89910000D01*
X203010000Y-89910000D02*
X198190000Y-89910000D01*
X198190000Y-89910000D02*
X198190000Y-99310000D01*
X198190000Y-99310000D02*
X196790000Y-99310000D01*
X196790000Y-99310000D02*
X196790000Y-101110000D01*
X203010000Y-101110000D02*
X203010000Y-112310000D01*
X203010000Y-112310000D02*
X198120000Y-112310000D01*
X198190000Y-112310000D02*
X198190000Y-102910000D01*
X198190000Y-102910000D02*
X196790000Y-102910000D01*
X196790000Y-102910000D02*
X196790000Y-101110000D01*
X203260000Y-92510000D02*
X203260000Y-89660000D01*
X203260000Y-89660000D02*
X200410000Y-89660000D01*
X203060000Y-135420000D02*
X203680000Y-135420000D01*
X203060000Y-133820000D02*
X203060000Y-135420000D01*
X203680000Y-133820000D02*
X203060000Y-133820000D01*
X203060000Y-132880000D02*
X203680000Y-132880000D01*
X203060000Y-131280000D02*
X203060000Y-132880000D01*
X203680000Y-131280000D02*
X203060000Y-131280000D01*
X197680000Y-134370000D02*
X198680000Y-134370000D01*
X197680000Y-132330000D02*
X198680000Y-132330000D01*
X199110000Y-134370000D02*
X198680000Y-134620000D01*
X199110000Y-132330000D02*
X199110000Y-134370000D01*
X198680000Y-132080000D02*
X199110000Y-132330000D01*
X198680000Y-134620000D02*
X197680000Y-134620000D01*
X198680000Y-132080000D02*
X198680000Y-134620000D01*
X197680000Y-132080000D02*
X198680000Y-132080000D01*
X203680000Y-135990000D02*
X203680000Y-130710000D01*
X197680000Y-135990000D02*
X203680000Y-135990000D01*
X197680000Y-130710000D02*
X197680000Y-135990000D01*
X203680000Y-130710000D02*
X197680000Y-130710000D01*
X199330000Y-118050000D02*
X200660000Y-118050000D01*
X199330000Y-119380000D02*
X199330000Y-118050000D01*
X199330000Y-120650000D02*
X201990000Y-120650000D01*
X201990000Y-120650000D02*
X201990000Y-123250000D01*
X199330000Y-120650000D02*
X199330000Y-123250000D01*
X199330000Y-123250000D02*
X201990000Y-123250000D01*
X73600000Y-54550000D02*
X74930000Y-54550000D01*
X73600000Y-55880000D02*
X73600000Y-54550000D01*
X73600000Y-57150000D02*
X76260000Y-57150000D01*
X76260000Y-57150000D02*
X76260000Y-57210000D01*
X73600000Y-57150000D02*
X73600000Y-57210000D01*
X73600000Y-57210000D02*
X76260000Y-57210000D01*
X199330000Y-69910000D02*
X201990000Y-69910000D01*
X199330000Y-69850000D02*
X199330000Y-69910000D01*
X201990000Y-69850000D02*
X201990000Y-69910000D01*
X199330000Y-69850000D02*
X201990000Y-69850000D01*
X199330000Y-68580000D02*
X199330000Y-67250000D01*
X199330000Y-67250000D02*
X200660000Y-67250000D01*
D10*
X78511400Y-52832000D02*
X78511400Y-147828000D01*
X78511400Y-147828000D02*
X89128600Y-147828000D01*
X89128600Y-147828000D02*
X89128600Y-52832000D01*
X89128600Y-52832000D02*
X78511400Y-52832000D01*
X88087200Y-141833600D02*
X88087200Y-58775600D01*
X88087200Y-141833600D02*
X83820000Y-141833600D01*
X83820000Y-141833600D02*
X83820000Y-142849600D01*
X83820000Y-142849600D02*
X82804000Y-142849600D01*
X82804000Y-142849600D02*
X82804000Y-141833600D01*
X82804000Y-141833600D02*
X80518000Y-141833600D01*
X80518000Y-141833600D02*
X80518000Y-142849600D01*
X80518000Y-142849600D02*
X79552800Y-142849600D01*
X88087200Y-58826400D02*
X83820000Y-58826400D01*
X83820000Y-58826400D02*
X83820000Y-57810400D01*
X83820000Y-57810400D02*
X82804000Y-57810400D01*
X82804000Y-57810400D02*
X82804000Y-58826400D01*
X82804000Y-58826400D02*
X80518000Y-58826400D01*
X80518000Y-58826400D02*
X80518000Y-57810400D01*
X80518000Y-57810400D02*
X79552800Y-57810400D01*
X79552800Y-57810400D02*
X79552800Y-142849600D01*
X104952800Y-57810400D02*
X104952800Y-142849600D01*
X105918000Y-57810400D02*
X104952800Y-57810400D01*
X105918000Y-58826400D02*
X105918000Y-57810400D01*
X108204000Y-58826400D02*
X105918000Y-58826400D01*
X108204000Y-57810400D02*
X108204000Y-58826400D01*
X109220000Y-57810400D02*
X108204000Y-57810400D01*
X109220000Y-58826400D02*
X109220000Y-57810400D01*
X113487200Y-58826400D02*
X109220000Y-58826400D01*
X105918000Y-142849600D02*
X104952800Y-142849600D01*
X105918000Y-141833600D02*
X105918000Y-142849600D01*
X108204000Y-141833600D02*
X105918000Y-141833600D01*
X108204000Y-142849600D02*
X108204000Y-141833600D01*
X109220000Y-142849600D02*
X108204000Y-142849600D01*
X109220000Y-141833600D02*
X109220000Y-142849600D01*
X113487200Y-141833600D02*
X109220000Y-141833600D01*
X113487200Y-141833600D02*
X113487200Y-58775600D01*
X114528600Y-52832000D02*
X103911400Y-52832000D01*
X114528600Y-147828000D02*
X114528600Y-52832000D01*
X103911400Y-147828000D02*
X114528600Y-147828000D01*
X103911400Y-52832000D02*
X103911400Y-147828000D01*
X130352800Y-57810400D02*
X130352800Y-142849600D01*
X131318000Y-57810400D02*
X130352800Y-57810400D01*
X131318000Y-58826400D02*
X131318000Y-57810400D01*
X133604000Y-58826400D02*
X131318000Y-58826400D01*
X133604000Y-57810400D02*
X133604000Y-58826400D01*
X134620000Y-57810400D02*
X133604000Y-57810400D01*
X134620000Y-58826400D02*
X134620000Y-57810400D01*
X138887200Y-58826400D02*
X134620000Y-58826400D01*
X131318000Y-142849600D02*
X130352800Y-142849600D01*
X131318000Y-141833600D02*
X131318000Y-142849600D01*
X133604000Y-141833600D02*
X131318000Y-141833600D01*
X133604000Y-142849600D02*
X133604000Y-141833600D01*
X134620000Y-142849600D02*
X133604000Y-142849600D01*
X134620000Y-141833600D02*
X134620000Y-142849600D01*
X138887200Y-141833600D02*
X134620000Y-141833600D01*
X138887200Y-141833600D02*
X138887200Y-58775600D01*
X139928600Y-52832000D02*
X129311400Y-52832000D01*
X139928600Y-147828000D02*
X139928600Y-52832000D01*
X129311400Y-147828000D02*
X139928600Y-147828000D01*
X129311400Y-52832000D02*
X129311400Y-147828000D01*
X154711400Y-52832000D02*
X154711400Y-147828000D01*
X154711400Y-147828000D02*
X165328600Y-147828000D01*
X165328600Y-147828000D02*
X165328600Y-52832000D01*
X165328600Y-52832000D02*
X154711400Y-52832000D01*
X164287200Y-141833600D02*
X164287200Y-58775600D01*
X164287200Y-141833600D02*
X160020000Y-141833600D01*
X160020000Y-141833600D02*
X160020000Y-142849600D01*
X160020000Y-142849600D02*
X159004000Y-142849600D01*
X159004000Y-142849600D02*
X159004000Y-141833600D01*
X159004000Y-141833600D02*
X156718000Y-141833600D01*
X156718000Y-141833600D02*
X156718000Y-142849600D01*
X156718000Y-142849600D02*
X155752800Y-142849600D01*
X164287200Y-58826400D02*
X160020000Y-58826400D01*
X160020000Y-58826400D02*
X160020000Y-57810400D01*
X160020000Y-57810400D02*
X159004000Y-57810400D01*
X159004000Y-57810400D02*
X159004000Y-58826400D01*
X159004000Y-58826400D02*
X156718000Y-58826400D01*
X156718000Y-58826400D02*
X156718000Y-57810400D01*
X156718000Y-57810400D02*
X155752800Y-57810400D01*
X155752800Y-57810400D02*
X155752800Y-142849600D01*
X181152800Y-57810400D02*
X181152800Y-142849600D01*
X182118000Y-57810400D02*
X181152800Y-57810400D01*
X182118000Y-58826400D02*
X182118000Y-57810400D01*
X184404000Y-58826400D02*
X182118000Y-58826400D01*
X184404000Y-57810400D02*
X184404000Y-58826400D01*
X185420000Y-57810400D02*
X184404000Y-57810400D01*
X185420000Y-58826400D02*
X185420000Y-57810400D01*
X189687200Y-58826400D02*
X185420000Y-58826400D01*
X182118000Y-142849600D02*
X181152800Y-142849600D01*
X182118000Y-141833600D02*
X182118000Y-142849600D01*
X184404000Y-141833600D02*
X182118000Y-141833600D01*
X184404000Y-142849600D02*
X184404000Y-141833600D01*
X185420000Y-142849600D02*
X184404000Y-142849600D01*
X185420000Y-141833600D02*
X185420000Y-142849600D01*
X189687200Y-141833600D02*
X185420000Y-141833600D01*
X189687200Y-141833600D02*
X189687200Y-58775600D01*
X190728600Y-52832000D02*
X180111400Y-52832000D01*
X190728600Y-147828000D02*
X190728600Y-52832000D01*
X180111400Y-147828000D02*
X190728600Y-147828000D01*
X180111400Y-52832000D02*
X180111400Y-147828000D01*
X67143333Y-66492380D02*
X66810000Y-66016190D01*
X66571904Y-66492380D02*
X66571904Y-65492380D01*
X66952857Y-65492380D01*
X67048095Y-65540000D01*
X67095714Y-65587619D01*
X67143333Y-65682857D01*
X67143333Y-65825714D01*
X67095714Y-65920952D01*
X67048095Y-65968571D01*
X66952857Y-66016190D01*
X66571904Y-66016190D01*
X67524285Y-65587619D02*
X67571904Y-65540000D01*
X67667142Y-65492380D01*
X67905238Y-65492380D01*
X68000476Y-65540000D01*
X68048095Y-65587619D01*
X68095714Y-65682857D01*
X68095714Y-65778095D01*
X68048095Y-65920952D01*
X67476666Y-66492380D01*
X68095714Y-66492380D01*
X67143333Y-69032380D02*
X66810000Y-68556190D01*
X66571904Y-69032380D02*
X66571904Y-68032380D01*
X66952857Y-68032380D01*
X67048095Y-68080000D01*
X67095714Y-68127619D01*
X67143333Y-68222857D01*
X67143333Y-68365714D01*
X67095714Y-68460952D01*
X67048095Y-68508571D01*
X66952857Y-68556190D01*
X66571904Y-68556190D01*
X67476666Y-68032380D02*
X68095714Y-68032380D01*
X67762380Y-68413333D01*
X67905238Y-68413333D01*
X68000476Y-68460952D01*
X68048095Y-68508571D01*
X68095714Y-68603809D01*
X68095714Y-68841904D01*
X68048095Y-68937142D01*
X68000476Y-68984761D01*
X67905238Y-69032380D01*
X67619523Y-69032380D01*
X67524285Y-68984761D01*
X67476666Y-68937142D01*
X67143333Y-71572380D02*
X66810000Y-71096190D01*
X66571904Y-71572380D02*
X66571904Y-70572380D01*
X66952857Y-70572380D01*
X67048095Y-70620000D01*
X67095714Y-70667619D01*
X67143333Y-70762857D01*
X67143333Y-70905714D01*
X67095714Y-71000952D01*
X67048095Y-71048571D01*
X66952857Y-71096190D01*
X66571904Y-71096190D01*
X68000476Y-70905714D02*
X68000476Y-71572380D01*
X67762380Y-70524761D02*
X67524285Y-71239047D01*
X68143333Y-71239047D01*
X67143333Y-74112380D02*
X66810000Y-73636190D01*
X66571904Y-74112380D02*
X66571904Y-73112380D01*
X66952857Y-73112380D01*
X67048095Y-73160000D01*
X67095714Y-73207619D01*
X67143333Y-73302857D01*
X67143333Y-73445714D01*
X67095714Y-73540952D01*
X67048095Y-73588571D01*
X66952857Y-73636190D01*
X66571904Y-73636190D01*
X68048095Y-73112380D02*
X67571904Y-73112380D01*
X67524285Y-73588571D01*
X67571904Y-73540952D01*
X67667142Y-73493333D01*
X67905238Y-73493333D01*
X68000476Y-73540952D01*
X68048095Y-73588571D01*
X68095714Y-73683809D01*
X68095714Y-73921904D01*
X68048095Y-74017142D01*
X68000476Y-74064761D01*
X67905238Y-74112380D01*
X67667142Y-74112380D01*
X67571904Y-74064761D01*
X67524285Y-74017142D01*
X67143333Y-76652380D02*
X66810000Y-76176190D01*
X66571904Y-76652380D02*
X66571904Y-75652380D01*
X66952857Y-75652380D01*
X67048095Y-75700000D01*
X67095714Y-75747619D01*
X67143333Y-75842857D01*
X67143333Y-75985714D01*
X67095714Y-76080952D01*
X67048095Y-76128571D01*
X66952857Y-76176190D01*
X66571904Y-76176190D01*
X68000476Y-75652380D02*
X67810000Y-75652380D01*
X67714761Y-75700000D01*
X67667142Y-75747619D01*
X67571904Y-75890476D01*
X67524285Y-76080952D01*
X67524285Y-76461904D01*
X67571904Y-76557142D01*
X67619523Y-76604761D01*
X67714761Y-76652380D01*
X67905238Y-76652380D01*
X68000476Y-76604761D01*
X68048095Y-76557142D01*
X68095714Y-76461904D01*
X68095714Y-76223809D01*
X68048095Y-76128571D01*
X68000476Y-76080952D01*
X67905238Y-76033333D01*
X67714761Y-76033333D01*
X67619523Y-76080952D01*
X67571904Y-76128571D01*
X67524285Y-76223809D01*
X67143333Y-79192380D02*
X66810000Y-78716190D01*
X66571904Y-79192380D02*
X66571904Y-78192380D01*
X66952857Y-78192380D01*
X67048095Y-78240000D01*
X67095714Y-78287619D01*
X67143333Y-78382857D01*
X67143333Y-78525714D01*
X67095714Y-78620952D01*
X67048095Y-78668571D01*
X66952857Y-78716190D01*
X66571904Y-78716190D01*
X67476666Y-78192380D02*
X68143333Y-78192380D01*
X67714761Y-79192380D01*
X67143333Y-81732380D02*
X66810000Y-81256190D01*
X66571904Y-81732380D02*
X66571904Y-80732380D01*
X66952857Y-80732380D01*
X67048095Y-80780000D01*
X67095714Y-80827619D01*
X67143333Y-80922857D01*
X67143333Y-81065714D01*
X67095714Y-81160952D01*
X67048095Y-81208571D01*
X66952857Y-81256190D01*
X66571904Y-81256190D01*
X67714761Y-81160952D02*
X67619523Y-81113333D01*
X67571904Y-81065714D01*
X67524285Y-80970476D01*
X67524285Y-80922857D01*
X67571904Y-80827619D01*
X67619523Y-80780000D01*
X67714761Y-80732380D01*
X67905238Y-80732380D01*
X68000476Y-80780000D01*
X68048095Y-80827619D01*
X68095714Y-80922857D01*
X68095714Y-80970476D01*
X68048095Y-81065714D01*
X68000476Y-81113333D01*
X67905238Y-81160952D01*
X67714761Y-81160952D01*
X67619523Y-81208571D01*
X67571904Y-81256190D01*
X67524285Y-81351428D01*
X67524285Y-81541904D01*
X67571904Y-81637142D01*
X67619523Y-81684761D01*
X67714761Y-81732380D01*
X67905238Y-81732380D01*
X68000476Y-81684761D01*
X68048095Y-81637142D01*
X68095714Y-81541904D01*
X68095714Y-81351428D01*
X68048095Y-81256190D01*
X68000476Y-81208571D01*
X67905238Y-81160952D01*
X67143333Y-84272380D02*
X66810000Y-83796190D01*
X66571904Y-84272380D02*
X66571904Y-83272380D01*
X66952857Y-83272380D01*
X67048095Y-83320000D01*
X67095714Y-83367619D01*
X67143333Y-83462857D01*
X67143333Y-83605714D01*
X67095714Y-83700952D01*
X67048095Y-83748571D01*
X66952857Y-83796190D01*
X66571904Y-83796190D01*
X67619523Y-84272380D02*
X67810000Y-84272380D01*
X67905238Y-84224761D01*
X67952857Y-84177142D01*
X68048095Y-84034285D01*
X68095714Y-83843809D01*
X68095714Y-83462857D01*
X68048095Y-83367619D01*
X68000476Y-83320000D01*
X67905238Y-83272380D01*
X67714761Y-83272380D01*
X67619523Y-83320000D01*
X67571904Y-83367619D01*
X67524285Y-83462857D01*
X67524285Y-83700952D01*
X67571904Y-83796190D01*
X67619523Y-83843809D01*
X67714761Y-83891428D01*
X67905238Y-83891428D01*
X68000476Y-83843809D01*
X68048095Y-83796190D01*
X68095714Y-83700952D01*
X66667142Y-102052380D02*
X66333809Y-101576190D01*
X66095714Y-102052380D02*
X66095714Y-101052380D01*
X66476666Y-101052380D01*
X66571904Y-101100000D01*
X66619523Y-101147619D01*
X66667142Y-101242857D01*
X66667142Y-101385714D01*
X66619523Y-101480952D01*
X66571904Y-101528571D01*
X66476666Y-101576190D01*
X66095714Y-101576190D01*
X67619523Y-102052380D02*
X67048095Y-102052380D01*
X67333809Y-102052380D02*
X67333809Y-101052380D01*
X67238571Y-101195238D01*
X67143333Y-101290476D01*
X67048095Y-101338095D01*
X68238571Y-101052380D02*
X68333809Y-101052380D01*
X68429047Y-101100000D01*
X68476666Y-101147619D01*
X68524285Y-101242857D01*
X68571904Y-101433333D01*
X68571904Y-101671428D01*
X68524285Y-101861904D01*
X68476666Y-101957142D01*
X68429047Y-102004761D01*
X68333809Y-102052380D01*
X68238571Y-102052380D01*
X68143333Y-102004761D01*
X68095714Y-101957142D01*
X68048095Y-101861904D01*
X68000476Y-101671428D01*
X68000476Y-101433333D01*
X68048095Y-101242857D01*
X68095714Y-101147619D01*
X68143333Y-101100000D01*
X68238571Y-101052380D01*
X66667142Y-119832380D02*
X66333809Y-119356190D01*
X66095714Y-119832380D02*
X66095714Y-118832380D01*
X66476666Y-118832380D01*
X66571904Y-118880000D01*
X66619523Y-118927619D01*
X66667142Y-119022857D01*
X66667142Y-119165714D01*
X66619523Y-119260952D01*
X66571904Y-119308571D01*
X66476666Y-119356190D01*
X66095714Y-119356190D01*
X67619523Y-119832380D02*
X67048095Y-119832380D01*
X67333809Y-119832380D02*
X67333809Y-118832380D01*
X67238571Y-118975238D01*
X67143333Y-119070476D01*
X67048095Y-119118095D01*
X68571904Y-119832380D02*
X68000476Y-119832380D01*
X68286190Y-119832380D02*
X68286190Y-118832380D01*
X68190952Y-118975238D01*
X68095714Y-119070476D01*
X68000476Y-119118095D01*
X66667142Y-86812380D02*
X66333809Y-86336190D01*
X66095714Y-86812380D02*
X66095714Y-85812380D01*
X66476666Y-85812380D01*
X66571904Y-85860000D01*
X66619523Y-85907619D01*
X66667142Y-86002857D01*
X66667142Y-86145714D01*
X66619523Y-86240952D01*
X66571904Y-86288571D01*
X66476666Y-86336190D01*
X66095714Y-86336190D01*
X67619523Y-86812380D02*
X67048095Y-86812380D01*
X67333809Y-86812380D02*
X67333809Y-85812380D01*
X67238571Y-85955238D01*
X67143333Y-86050476D01*
X67048095Y-86098095D01*
X68000476Y-85907619D02*
X68048095Y-85860000D01*
X68143333Y-85812380D01*
X68381428Y-85812380D01*
X68476666Y-85860000D01*
X68524285Y-85907619D01*
X68571904Y-86002857D01*
X68571904Y-86098095D01*
X68524285Y-86240952D01*
X67952857Y-86812380D01*
X68571904Y-86812380D01*
X66667142Y-104592380D02*
X66333809Y-104116190D01*
X66095714Y-104592380D02*
X66095714Y-103592380D01*
X66476666Y-103592380D01*
X66571904Y-103640000D01*
X66619523Y-103687619D01*
X66667142Y-103782857D01*
X66667142Y-103925714D01*
X66619523Y-104020952D01*
X66571904Y-104068571D01*
X66476666Y-104116190D01*
X66095714Y-104116190D01*
X67619523Y-104592380D02*
X67048095Y-104592380D01*
X67333809Y-104592380D02*
X67333809Y-103592380D01*
X67238571Y-103735238D01*
X67143333Y-103830476D01*
X67048095Y-103878095D01*
X67952857Y-103592380D02*
X68571904Y-103592380D01*
X68238571Y-103973333D01*
X68381428Y-103973333D01*
X68476666Y-104020952D01*
X68524285Y-104068571D01*
X68571904Y-104163809D01*
X68571904Y-104401904D01*
X68524285Y-104497142D01*
X68476666Y-104544761D01*
X68381428Y-104592380D01*
X68095714Y-104592380D01*
X68000476Y-104544761D01*
X67952857Y-104497142D01*
X66667142Y-122372380D02*
X66333809Y-121896190D01*
X66095714Y-122372380D02*
X66095714Y-121372380D01*
X66476666Y-121372380D01*
X66571904Y-121420000D01*
X66619523Y-121467619D01*
X66667142Y-121562857D01*
X66667142Y-121705714D01*
X66619523Y-121800952D01*
X66571904Y-121848571D01*
X66476666Y-121896190D01*
X66095714Y-121896190D01*
X67619523Y-122372380D02*
X67048095Y-122372380D01*
X67333809Y-122372380D02*
X67333809Y-121372380D01*
X67238571Y-121515238D01*
X67143333Y-121610476D01*
X67048095Y-121658095D01*
X68476666Y-121705714D02*
X68476666Y-122372380D01*
X68238571Y-121324761D02*
X68000476Y-122039047D01*
X68619523Y-122039047D01*
X66667142Y-89352380D02*
X66333809Y-88876190D01*
X66095714Y-89352380D02*
X66095714Y-88352380D01*
X66476666Y-88352380D01*
X66571904Y-88400000D01*
X66619523Y-88447619D01*
X66667142Y-88542857D01*
X66667142Y-88685714D01*
X66619523Y-88780952D01*
X66571904Y-88828571D01*
X66476666Y-88876190D01*
X66095714Y-88876190D01*
X67619523Y-89352380D02*
X67048095Y-89352380D01*
X67333809Y-89352380D02*
X67333809Y-88352380D01*
X67238571Y-88495238D01*
X67143333Y-88590476D01*
X67048095Y-88638095D01*
X68524285Y-88352380D02*
X68048095Y-88352380D01*
X68000476Y-88828571D01*
X68048095Y-88780952D01*
X68143333Y-88733333D01*
X68381428Y-88733333D01*
X68476666Y-88780952D01*
X68524285Y-88828571D01*
X68571904Y-88923809D01*
X68571904Y-89161904D01*
X68524285Y-89257142D01*
X68476666Y-89304761D01*
X68381428Y-89352380D01*
X68143333Y-89352380D01*
X68048095Y-89304761D01*
X68000476Y-89257142D01*
X66667142Y-107132380D02*
X66333809Y-106656190D01*
X66095714Y-107132380D02*
X66095714Y-106132380D01*
X66476666Y-106132380D01*
X66571904Y-106180000D01*
X66619523Y-106227619D01*
X66667142Y-106322857D01*
X66667142Y-106465714D01*
X66619523Y-106560952D01*
X66571904Y-106608571D01*
X66476666Y-106656190D01*
X66095714Y-106656190D01*
X67619523Y-107132380D02*
X67048095Y-107132380D01*
X67333809Y-107132380D02*
X67333809Y-106132380D01*
X67238571Y-106275238D01*
X67143333Y-106370476D01*
X67048095Y-106418095D01*
X68476666Y-106132380D02*
X68286190Y-106132380D01*
X68190952Y-106180000D01*
X68143333Y-106227619D01*
X68048095Y-106370476D01*
X68000476Y-106560952D01*
X68000476Y-106941904D01*
X68048095Y-107037142D01*
X68095714Y-107084761D01*
X68190952Y-107132380D01*
X68381428Y-107132380D01*
X68476666Y-107084761D01*
X68524285Y-107037142D01*
X68571904Y-106941904D01*
X68571904Y-106703809D01*
X68524285Y-106608571D01*
X68476666Y-106560952D01*
X68381428Y-106513333D01*
X68190952Y-106513333D01*
X68095714Y-106560952D01*
X68048095Y-106608571D01*
X68000476Y-106703809D01*
X66667142Y-127452380D02*
X66333809Y-126976190D01*
X66095714Y-127452380D02*
X66095714Y-126452380D01*
X66476666Y-126452380D01*
X66571904Y-126500000D01*
X66619523Y-126547619D01*
X66667142Y-126642857D01*
X66667142Y-126785714D01*
X66619523Y-126880952D01*
X66571904Y-126928571D01*
X66476666Y-126976190D01*
X66095714Y-126976190D01*
X67619523Y-127452380D02*
X67048095Y-127452380D01*
X67333809Y-127452380D02*
X67333809Y-126452380D01*
X67238571Y-126595238D01*
X67143333Y-126690476D01*
X67048095Y-126738095D01*
X67952857Y-126452380D02*
X68619523Y-126452380D01*
X68190952Y-127452380D01*
X66667142Y-91892380D02*
X66333809Y-91416190D01*
X66095714Y-91892380D02*
X66095714Y-90892380D01*
X66476666Y-90892380D01*
X66571904Y-90940000D01*
X66619523Y-90987619D01*
X66667142Y-91082857D01*
X66667142Y-91225714D01*
X66619523Y-91320952D01*
X66571904Y-91368571D01*
X66476666Y-91416190D01*
X66095714Y-91416190D01*
X67619523Y-91892380D02*
X67048095Y-91892380D01*
X67333809Y-91892380D02*
X67333809Y-90892380D01*
X67238571Y-91035238D01*
X67143333Y-91130476D01*
X67048095Y-91178095D01*
X68190952Y-91320952D02*
X68095714Y-91273333D01*
X68048095Y-91225714D01*
X68000476Y-91130476D01*
X68000476Y-91082857D01*
X68048095Y-90987619D01*
X68095714Y-90940000D01*
X68190952Y-90892380D01*
X68381428Y-90892380D01*
X68476666Y-90940000D01*
X68524285Y-90987619D01*
X68571904Y-91082857D01*
X68571904Y-91130476D01*
X68524285Y-91225714D01*
X68476666Y-91273333D01*
X68381428Y-91320952D01*
X68190952Y-91320952D01*
X68095714Y-91368571D01*
X68048095Y-91416190D01*
X68000476Y-91511428D01*
X68000476Y-91701904D01*
X68048095Y-91797142D01*
X68095714Y-91844761D01*
X68190952Y-91892380D01*
X68381428Y-91892380D01*
X68476666Y-91844761D01*
X68524285Y-91797142D01*
X68571904Y-91701904D01*
X68571904Y-91511428D01*
X68524285Y-91416190D01*
X68476666Y-91368571D01*
X68381428Y-91320952D01*
X66667142Y-109672380D02*
X66333809Y-109196190D01*
X66095714Y-109672380D02*
X66095714Y-108672380D01*
X66476666Y-108672380D01*
X66571904Y-108720000D01*
X66619523Y-108767619D01*
X66667142Y-108862857D01*
X66667142Y-109005714D01*
X66619523Y-109100952D01*
X66571904Y-109148571D01*
X66476666Y-109196190D01*
X66095714Y-109196190D01*
X67619523Y-109672380D02*
X67048095Y-109672380D01*
X67333809Y-109672380D02*
X67333809Y-108672380D01*
X67238571Y-108815238D01*
X67143333Y-108910476D01*
X67048095Y-108958095D01*
X68095714Y-109672380D02*
X68286190Y-109672380D01*
X68381428Y-109624761D01*
X68429047Y-109577142D01*
X68524285Y-109434285D01*
X68571904Y-109243809D01*
X68571904Y-108862857D01*
X68524285Y-108767619D01*
X68476666Y-108720000D01*
X68381428Y-108672380D01*
X68190952Y-108672380D01*
X68095714Y-108720000D01*
X68048095Y-108767619D01*
X68000476Y-108862857D01*
X68000476Y-109100952D01*
X68048095Y-109196190D01*
X68095714Y-109243809D01*
X68190952Y-109291428D01*
X68381428Y-109291428D01*
X68476666Y-109243809D01*
X68524285Y-109196190D01*
X68571904Y-109100952D01*
X66667142Y-129992380D02*
X66333809Y-129516190D01*
X66095714Y-129992380D02*
X66095714Y-128992380D01*
X66476666Y-128992380D01*
X66571904Y-129040000D01*
X66619523Y-129087619D01*
X66667142Y-129182857D01*
X66667142Y-129325714D01*
X66619523Y-129420952D01*
X66571904Y-129468571D01*
X66476666Y-129516190D01*
X66095714Y-129516190D01*
X67048095Y-129087619D02*
X67095714Y-129040000D01*
X67190952Y-128992380D01*
X67429047Y-128992380D01*
X67524285Y-129040000D01*
X67571904Y-129087619D01*
X67619523Y-129182857D01*
X67619523Y-129278095D01*
X67571904Y-129420952D01*
X67000476Y-129992380D01*
X67619523Y-129992380D01*
X68238571Y-128992380D02*
X68333809Y-128992380D01*
X68429047Y-129040000D01*
X68476666Y-129087619D01*
X68524285Y-129182857D01*
X68571904Y-129373333D01*
X68571904Y-129611428D01*
X68524285Y-129801904D01*
X68476666Y-129897142D01*
X68429047Y-129944761D01*
X68333809Y-129992380D01*
X68238571Y-129992380D01*
X68143333Y-129944761D01*
X68095714Y-129897142D01*
X68048095Y-129801904D01*
X68000476Y-129611428D01*
X68000476Y-129373333D01*
X68048095Y-129182857D01*
X68095714Y-129087619D01*
X68143333Y-129040000D01*
X68238571Y-128992380D01*
X66667142Y-94432380D02*
X66333809Y-93956190D01*
X66095714Y-94432380D02*
X66095714Y-93432380D01*
X66476666Y-93432380D01*
X66571904Y-93480000D01*
X66619523Y-93527619D01*
X66667142Y-93622857D01*
X66667142Y-93765714D01*
X66619523Y-93860952D01*
X66571904Y-93908571D01*
X66476666Y-93956190D01*
X66095714Y-93956190D01*
X67048095Y-93527619D02*
X67095714Y-93480000D01*
X67190952Y-93432380D01*
X67429047Y-93432380D01*
X67524285Y-93480000D01*
X67571904Y-93527619D01*
X67619523Y-93622857D01*
X67619523Y-93718095D01*
X67571904Y-93860952D01*
X67000476Y-94432380D01*
X67619523Y-94432380D01*
X68571904Y-94432380D02*
X68000476Y-94432380D01*
X68286190Y-94432380D02*
X68286190Y-93432380D01*
X68190952Y-93575238D01*
X68095714Y-93670476D01*
X68000476Y-93718095D01*
X66667142Y-112212380D02*
X66333809Y-111736190D01*
X66095714Y-112212380D02*
X66095714Y-111212380D01*
X66476666Y-111212380D01*
X66571904Y-111260000D01*
X66619523Y-111307619D01*
X66667142Y-111402857D01*
X66667142Y-111545714D01*
X66619523Y-111640952D01*
X66571904Y-111688571D01*
X66476666Y-111736190D01*
X66095714Y-111736190D01*
X67048095Y-111307619D02*
X67095714Y-111260000D01*
X67190952Y-111212380D01*
X67429047Y-111212380D01*
X67524285Y-111260000D01*
X67571904Y-111307619D01*
X67619523Y-111402857D01*
X67619523Y-111498095D01*
X67571904Y-111640952D01*
X67000476Y-112212380D01*
X67619523Y-112212380D01*
X68000476Y-111307619D02*
X68048095Y-111260000D01*
X68143333Y-111212380D01*
X68381428Y-111212380D01*
X68476666Y-111260000D01*
X68524285Y-111307619D01*
X68571904Y-111402857D01*
X68571904Y-111498095D01*
X68524285Y-111640952D01*
X67952857Y-112212380D01*
X68571904Y-112212380D01*
X66667142Y-132532380D02*
X66333809Y-132056190D01*
X66095714Y-132532380D02*
X66095714Y-131532380D01*
X66476666Y-131532380D01*
X66571904Y-131580000D01*
X66619523Y-131627619D01*
X66667142Y-131722857D01*
X66667142Y-131865714D01*
X66619523Y-131960952D01*
X66571904Y-132008571D01*
X66476666Y-132056190D01*
X66095714Y-132056190D01*
X67048095Y-131627619D02*
X67095714Y-131580000D01*
X67190952Y-131532380D01*
X67429047Y-131532380D01*
X67524285Y-131580000D01*
X67571904Y-131627619D01*
X67619523Y-131722857D01*
X67619523Y-131818095D01*
X67571904Y-131960952D01*
X67000476Y-132532380D01*
X67619523Y-132532380D01*
X67952857Y-131532380D02*
X68571904Y-131532380D01*
X68238571Y-131913333D01*
X68381428Y-131913333D01*
X68476666Y-131960952D01*
X68524285Y-132008571D01*
X68571904Y-132103809D01*
X68571904Y-132341904D01*
X68524285Y-132437142D01*
X68476666Y-132484761D01*
X68381428Y-132532380D01*
X68095714Y-132532380D01*
X68000476Y-132484761D01*
X67952857Y-132437142D01*
X66667142Y-96972380D02*
X66333809Y-96496190D01*
X66095714Y-96972380D02*
X66095714Y-95972380D01*
X66476666Y-95972380D01*
X66571904Y-96020000D01*
X66619523Y-96067619D01*
X66667142Y-96162857D01*
X66667142Y-96305714D01*
X66619523Y-96400952D01*
X66571904Y-96448571D01*
X66476666Y-96496190D01*
X66095714Y-96496190D01*
X67048095Y-96067619D02*
X67095714Y-96020000D01*
X67190952Y-95972380D01*
X67429047Y-95972380D01*
X67524285Y-96020000D01*
X67571904Y-96067619D01*
X67619523Y-96162857D01*
X67619523Y-96258095D01*
X67571904Y-96400952D01*
X67000476Y-96972380D01*
X67619523Y-96972380D01*
X68476666Y-96305714D02*
X68476666Y-96972380D01*
X68238571Y-95924761D02*
X68000476Y-96639047D01*
X68619523Y-96639047D01*
X66667142Y-114752380D02*
X66333809Y-114276190D01*
X66095714Y-114752380D02*
X66095714Y-113752380D01*
X66476666Y-113752380D01*
X66571904Y-113800000D01*
X66619523Y-113847619D01*
X66667142Y-113942857D01*
X66667142Y-114085714D01*
X66619523Y-114180952D01*
X66571904Y-114228571D01*
X66476666Y-114276190D01*
X66095714Y-114276190D01*
X67048095Y-113847619D02*
X67095714Y-113800000D01*
X67190952Y-113752380D01*
X67429047Y-113752380D01*
X67524285Y-113800000D01*
X67571904Y-113847619D01*
X67619523Y-113942857D01*
X67619523Y-114038095D01*
X67571904Y-114180952D01*
X67000476Y-114752380D01*
X67619523Y-114752380D01*
X68524285Y-113752380D02*
X68048095Y-113752380D01*
X68000476Y-114228571D01*
X68048095Y-114180952D01*
X68143333Y-114133333D01*
X68381428Y-114133333D01*
X68476666Y-114180952D01*
X68524285Y-114228571D01*
X68571904Y-114323809D01*
X68571904Y-114561904D01*
X68524285Y-114657142D01*
X68476666Y-114704761D01*
X68381428Y-114752380D01*
X68143333Y-114752380D01*
X68048095Y-114704761D01*
X68000476Y-114657142D01*
X99687142Y-127452380D02*
X99353809Y-126976190D01*
X99115714Y-127452380D02*
X99115714Y-126452380D01*
X99496666Y-126452380D01*
X99591904Y-126500000D01*
X99639523Y-126547619D01*
X99687142Y-126642857D01*
X99687142Y-126785714D01*
X99639523Y-126880952D01*
X99591904Y-126928571D01*
X99496666Y-126976190D01*
X99115714Y-126976190D01*
X100068095Y-126547619D02*
X100115714Y-126500000D01*
X100210952Y-126452380D01*
X100449047Y-126452380D01*
X100544285Y-126500000D01*
X100591904Y-126547619D01*
X100639523Y-126642857D01*
X100639523Y-126738095D01*
X100591904Y-126880952D01*
X100020476Y-127452380D01*
X100639523Y-127452380D01*
X101496666Y-126452380D02*
X101306190Y-126452380D01*
X101210952Y-126500000D01*
X101163333Y-126547619D01*
X101068095Y-126690476D01*
X101020476Y-126880952D01*
X101020476Y-127261904D01*
X101068095Y-127357142D01*
X101115714Y-127404761D01*
X101210952Y-127452380D01*
X101401428Y-127452380D01*
X101496666Y-127404761D01*
X101544285Y-127357142D01*
X101591904Y-127261904D01*
X101591904Y-127023809D01*
X101544285Y-126928571D01*
X101496666Y-126880952D01*
X101401428Y-126833333D01*
X101210952Y-126833333D01*
X101115714Y-126880952D01*
X101068095Y-126928571D01*
X101020476Y-127023809D01*
X66667142Y-99512380D02*
X66333809Y-99036190D01*
X66095714Y-99512380D02*
X66095714Y-98512380D01*
X66476666Y-98512380D01*
X66571904Y-98560000D01*
X66619523Y-98607619D01*
X66667142Y-98702857D01*
X66667142Y-98845714D01*
X66619523Y-98940952D01*
X66571904Y-98988571D01*
X66476666Y-99036190D01*
X66095714Y-99036190D01*
X67048095Y-98607619D02*
X67095714Y-98560000D01*
X67190952Y-98512380D01*
X67429047Y-98512380D01*
X67524285Y-98560000D01*
X67571904Y-98607619D01*
X67619523Y-98702857D01*
X67619523Y-98798095D01*
X67571904Y-98940952D01*
X67000476Y-99512380D01*
X67619523Y-99512380D01*
X67952857Y-98512380D02*
X68619523Y-98512380D01*
X68190952Y-99512380D01*
X66667142Y-117292380D02*
X66333809Y-116816190D01*
X66095714Y-117292380D02*
X66095714Y-116292380D01*
X66476666Y-116292380D01*
X66571904Y-116340000D01*
X66619523Y-116387619D01*
X66667142Y-116482857D01*
X66667142Y-116625714D01*
X66619523Y-116720952D01*
X66571904Y-116768571D01*
X66476666Y-116816190D01*
X66095714Y-116816190D01*
X67048095Y-116387619D02*
X67095714Y-116340000D01*
X67190952Y-116292380D01*
X67429047Y-116292380D01*
X67524285Y-116340000D01*
X67571904Y-116387619D01*
X67619523Y-116482857D01*
X67619523Y-116578095D01*
X67571904Y-116720952D01*
X67000476Y-117292380D01*
X67619523Y-117292380D01*
X68190952Y-116720952D02*
X68095714Y-116673333D01*
X68048095Y-116625714D01*
X68000476Y-116530476D01*
X68000476Y-116482857D01*
X68048095Y-116387619D01*
X68095714Y-116340000D01*
X68190952Y-116292380D01*
X68381428Y-116292380D01*
X68476666Y-116340000D01*
X68524285Y-116387619D01*
X68571904Y-116482857D01*
X68571904Y-116530476D01*
X68524285Y-116625714D01*
X68476666Y-116673333D01*
X68381428Y-116720952D01*
X68190952Y-116720952D01*
X68095714Y-116768571D01*
X68048095Y-116816190D01*
X68000476Y-116911428D01*
X68000476Y-117101904D01*
X68048095Y-117197142D01*
X68095714Y-117244761D01*
X68190952Y-117292380D01*
X68381428Y-117292380D01*
X68476666Y-117244761D01*
X68524285Y-117197142D01*
X68571904Y-117101904D01*
X68571904Y-116911428D01*
X68524285Y-116816190D01*
X68476666Y-116768571D01*
X68381428Y-116720952D01*
X99687142Y-129992380D02*
X99353809Y-129516190D01*
X99115714Y-129992380D02*
X99115714Y-128992380D01*
X99496666Y-128992380D01*
X99591904Y-129040000D01*
X99639523Y-129087619D01*
X99687142Y-129182857D01*
X99687142Y-129325714D01*
X99639523Y-129420952D01*
X99591904Y-129468571D01*
X99496666Y-129516190D01*
X99115714Y-129516190D01*
X100068095Y-129087619D02*
X100115714Y-129040000D01*
X100210952Y-128992380D01*
X100449047Y-128992380D01*
X100544285Y-129040000D01*
X100591904Y-129087619D01*
X100639523Y-129182857D01*
X100639523Y-129278095D01*
X100591904Y-129420952D01*
X100020476Y-129992380D01*
X100639523Y-129992380D01*
X101115714Y-129992380D02*
X101306190Y-129992380D01*
X101401428Y-129944761D01*
X101449047Y-129897142D01*
X101544285Y-129754285D01*
X101591904Y-129563809D01*
X101591904Y-129182857D01*
X101544285Y-129087619D01*
X101496666Y-129040000D01*
X101401428Y-128992380D01*
X101210952Y-128992380D01*
X101115714Y-129040000D01*
X101068095Y-129087619D01*
X101020476Y-129182857D01*
X101020476Y-129420952D01*
X101068095Y-129516190D01*
X101115714Y-129563809D01*
X101210952Y-129611428D01*
X101401428Y-129611428D01*
X101496666Y-129563809D01*
X101544285Y-129516190D01*
X101591904Y-129420952D01*
X99687142Y-66492380D02*
X99353809Y-66016190D01*
X99115714Y-66492380D02*
X99115714Y-65492380D01*
X99496666Y-65492380D01*
X99591904Y-65540000D01*
X99639523Y-65587619D01*
X99687142Y-65682857D01*
X99687142Y-65825714D01*
X99639523Y-65920952D01*
X99591904Y-65968571D01*
X99496666Y-66016190D01*
X99115714Y-66016190D01*
X100020476Y-65492380D02*
X100639523Y-65492380D01*
X100306190Y-65873333D01*
X100449047Y-65873333D01*
X100544285Y-65920952D01*
X100591904Y-65968571D01*
X100639523Y-66063809D01*
X100639523Y-66301904D01*
X100591904Y-66397142D01*
X100544285Y-66444761D01*
X100449047Y-66492380D01*
X100163333Y-66492380D01*
X100068095Y-66444761D01*
X100020476Y-66397142D01*
X101258571Y-65492380D02*
X101353809Y-65492380D01*
X101449047Y-65540000D01*
X101496666Y-65587619D01*
X101544285Y-65682857D01*
X101591904Y-65873333D01*
X101591904Y-66111428D01*
X101544285Y-66301904D01*
X101496666Y-66397142D01*
X101449047Y-66444761D01*
X101353809Y-66492380D01*
X101258571Y-66492380D01*
X101163333Y-66444761D01*
X101115714Y-66397142D01*
X101068095Y-66301904D01*
X101020476Y-66111428D01*
X101020476Y-65873333D01*
X101068095Y-65682857D01*
X101115714Y-65587619D01*
X101163333Y-65540000D01*
X101258571Y-65492380D01*
X99687142Y-86812380D02*
X99353809Y-86336190D01*
X99115714Y-86812380D02*
X99115714Y-85812380D01*
X99496666Y-85812380D01*
X99591904Y-85860000D01*
X99639523Y-85907619D01*
X99687142Y-86002857D01*
X99687142Y-86145714D01*
X99639523Y-86240952D01*
X99591904Y-86288571D01*
X99496666Y-86336190D01*
X99115714Y-86336190D01*
X100020476Y-85812380D02*
X100639523Y-85812380D01*
X100306190Y-86193333D01*
X100449047Y-86193333D01*
X100544285Y-86240952D01*
X100591904Y-86288571D01*
X100639523Y-86383809D01*
X100639523Y-86621904D01*
X100591904Y-86717142D01*
X100544285Y-86764761D01*
X100449047Y-86812380D01*
X100163333Y-86812380D01*
X100068095Y-86764761D01*
X100020476Y-86717142D01*
X101591904Y-86812380D02*
X101020476Y-86812380D01*
X101306190Y-86812380D02*
X101306190Y-85812380D01*
X101210952Y-85955238D01*
X101115714Y-86050476D01*
X101020476Y-86098095D01*
X99687142Y-104592380D02*
X99353809Y-104116190D01*
X99115714Y-104592380D02*
X99115714Y-103592380D01*
X99496666Y-103592380D01*
X99591904Y-103640000D01*
X99639523Y-103687619D01*
X99687142Y-103782857D01*
X99687142Y-103925714D01*
X99639523Y-104020952D01*
X99591904Y-104068571D01*
X99496666Y-104116190D01*
X99115714Y-104116190D01*
X100020476Y-103592380D02*
X100639523Y-103592380D01*
X100306190Y-103973333D01*
X100449047Y-103973333D01*
X100544285Y-104020952D01*
X100591904Y-104068571D01*
X100639523Y-104163809D01*
X100639523Y-104401904D01*
X100591904Y-104497142D01*
X100544285Y-104544761D01*
X100449047Y-104592380D01*
X100163333Y-104592380D01*
X100068095Y-104544761D01*
X100020476Y-104497142D01*
X101020476Y-103687619D02*
X101068095Y-103640000D01*
X101163333Y-103592380D01*
X101401428Y-103592380D01*
X101496666Y-103640000D01*
X101544285Y-103687619D01*
X101591904Y-103782857D01*
X101591904Y-103878095D01*
X101544285Y-104020952D01*
X100972857Y-104592380D01*
X101591904Y-104592380D01*
X99687142Y-69032380D02*
X99353809Y-68556190D01*
X99115714Y-69032380D02*
X99115714Y-68032380D01*
X99496666Y-68032380D01*
X99591904Y-68080000D01*
X99639523Y-68127619D01*
X99687142Y-68222857D01*
X99687142Y-68365714D01*
X99639523Y-68460952D01*
X99591904Y-68508571D01*
X99496666Y-68556190D01*
X99115714Y-68556190D01*
X100020476Y-68032380D02*
X100639523Y-68032380D01*
X100306190Y-68413333D01*
X100449047Y-68413333D01*
X100544285Y-68460952D01*
X100591904Y-68508571D01*
X100639523Y-68603809D01*
X100639523Y-68841904D01*
X100591904Y-68937142D01*
X100544285Y-68984761D01*
X100449047Y-69032380D01*
X100163333Y-69032380D01*
X100068095Y-68984761D01*
X100020476Y-68937142D01*
X100972857Y-68032380D02*
X101591904Y-68032380D01*
X101258571Y-68413333D01*
X101401428Y-68413333D01*
X101496666Y-68460952D01*
X101544285Y-68508571D01*
X101591904Y-68603809D01*
X101591904Y-68841904D01*
X101544285Y-68937142D01*
X101496666Y-68984761D01*
X101401428Y-69032380D01*
X101115714Y-69032380D01*
X101020476Y-68984761D01*
X100972857Y-68937142D01*
X99687142Y-89352380D02*
X99353809Y-88876190D01*
X99115714Y-89352380D02*
X99115714Y-88352380D01*
X99496666Y-88352380D01*
X99591904Y-88400000D01*
X99639523Y-88447619D01*
X99687142Y-88542857D01*
X99687142Y-88685714D01*
X99639523Y-88780952D01*
X99591904Y-88828571D01*
X99496666Y-88876190D01*
X99115714Y-88876190D01*
X100020476Y-88352380D02*
X100639523Y-88352380D01*
X100306190Y-88733333D01*
X100449047Y-88733333D01*
X100544285Y-88780952D01*
X100591904Y-88828571D01*
X100639523Y-88923809D01*
X100639523Y-89161904D01*
X100591904Y-89257142D01*
X100544285Y-89304761D01*
X100449047Y-89352380D01*
X100163333Y-89352380D01*
X100068095Y-89304761D01*
X100020476Y-89257142D01*
X101496666Y-88685714D02*
X101496666Y-89352380D01*
X101258571Y-88304761D02*
X101020476Y-89019047D01*
X101639523Y-89019047D01*
X99687142Y-109672380D02*
X99353809Y-109196190D01*
X99115714Y-109672380D02*
X99115714Y-108672380D01*
X99496666Y-108672380D01*
X99591904Y-108720000D01*
X99639523Y-108767619D01*
X99687142Y-108862857D01*
X99687142Y-109005714D01*
X99639523Y-109100952D01*
X99591904Y-109148571D01*
X99496666Y-109196190D01*
X99115714Y-109196190D01*
X100020476Y-108672380D02*
X100639523Y-108672380D01*
X100306190Y-109053333D01*
X100449047Y-109053333D01*
X100544285Y-109100952D01*
X100591904Y-109148571D01*
X100639523Y-109243809D01*
X100639523Y-109481904D01*
X100591904Y-109577142D01*
X100544285Y-109624761D01*
X100449047Y-109672380D01*
X100163333Y-109672380D01*
X100068095Y-109624761D01*
X100020476Y-109577142D01*
X101544285Y-108672380D02*
X101068095Y-108672380D01*
X101020476Y-109148571D01*
X101068095Y-109100952D01*
X101163333Y-109053333D01*
X101401428Y-109053333D01*
X101496666Y-109100952D01*
X101544285Y-109148571D01*
X101591904Y-109243809D01*
X101591904Y-109481904D01*
X101544285Y-109577142D01*
X101496666Y-109624761D01*
X101401428Y-109672380D01*
X101163333Y-109672380D01*
X101068095Y-109624761D01*
X101020476Y-109577142D01*
X99687142Y-71572380D02*
X99353809Y-71096190D01*
X99115714Y-71572380D02*
X99115714Y-70572380D01*
X99496666Y-70572380D01*
X99591904Y-70620000D01*
X99639523Y-70667619D01*
X99687142Y-70762857D01*
X99687142Y-70905714D01*
X99639523Y-71000952D01*
X99591904Y-71048571D01*
X99496666Y-71096190D01*
X99115714Y-71096190D01*
X100020476Y-70572380D02*
X100639523Y-70572380D01*
X100306190Y-70953333D01*
X100449047Y-70953333D01*
X100544285Y-71000952D01*
X100591904Y-71048571D01*
X100639523Y-71143809D01*
X100639523Y-71381904D01*
X100591904Y-71477142D01*
X100544285Y-71524761D01*
X100449047Y-71572380D01*
X100163333Y-71572380D01*
X100068095Y-71524761D01*
X100020476Y-71477142D01*
X101496666Y-70572380D02*
X101306190Y-70572380D01*
X101210952Y-70620000D01*
X101163333Y-70667619D01*
X101068095Y-70810476D01*
X101020476Y-71000952D01*
X101020476Y-71381904D01*
X101068095Y-71477142D01*
X101115714Y-71524761D01*
X101210952Y-71572380D01*
X101401428Y-71572380D01*
X101496666Y-71524761D01*
X101544285Y-71477142D01*
X101591904Y-71381904D01*
X101591904Y-71143809D01*
X101544285Y-71048571D01*
X101496666Y-71000952D01*
X101401428Y-70953333D01*
X101210952Y-70953333D01*
X101115714Y-71000952D01*
X101068095Y-71048571D01*
X101020476Y-71143809D01*
X99687142Y-91892380D02*
X99353809Y-91416190D01*
X99115714Y-91892380D02*
X99115714Y-90892380D01*
X99496666Y-90892380D01*
X99591904Y-90940000D01*
X99639523Y-90987619D01*
X99687142Y-91082857D01*
X99687142Y-91225714D01*
X99639523Y-91320952D01*
X99591904Y-91368571D01*
X99496666Y-91416190D01*
X99115714Y-91416190D01*
X100020476Y-90892380D02*
X100639523Y-90892380D01*
X100306190Y-91273333D01*
X100449047Y-91273333D01*
X100544285Y-91320952D01*
X100591904Y-91368571D01*
X100639523Y-91463809D01*
X100639523Y-91701904D01*
X100591904Y-91797142D01*
X100544285Y-91844761D01*
X100449047Y-91892380D01*
X100163333Y-91892380D01*
X100068095Y-91844761D01*
X100020476Y-91797142D01*
X100972857Y-90892380D02*
X101639523Y-90892380D01*
X101210952Y-91892380D01*
X99687142Y-114752380D02*
X99353809Y-114276190D01*
X99115714Y-114752380D02*
X99115714Y-113752380D01*
X99496666Y-113752380D01*
X99591904Y-113800000D01*
X99639523Y-113847619D01*
X99687142Y-113942857D01*
X99687142Y-114085714D01*
X99639523Y-114180952D01*
X99591904Y-114228571D01*
X99496666Y-114276190D01*
X99115714Y-114276190D01*
X100020476Y-113752380D02*
X100639523Y-113752380D01*
X100306190Y-114133333D01*
X100449047Y-114133333D01*
X100544285Y-114180952D01*
X100591904Y-114228571D01*
X100639523Y-114323809D01*
X100639523Y-114561904D01*
X100591904Y-114657142D01*
X100544285Y-114704761D01*
X100449047Y-114752380D01*
X100163333Y-114752380D01*
X100068095Y-114704761D01*
X100020476Y-114657142D01*
X101210952Y-114180952D02*
X101115714Y-114133333D01*
X101068095Y-114085714D01*
X101020476Y-113990476D01*
X101020476Y-113942857D01*
X101068095Y-113847619D01*
X101115714Y-113800000D01*
X101210952Y-113752380D01*
X101401428Y-113752380D01*
X101496666Y-113800000D01*
X101544285Y-113847619D01*
X101591904Y-113942857D01*
X101591904Y-113990476D01*
X101544285Y-114085714D01*
X101496666Y-114133333D01*
X101401428Y-114180952D01*
X101210952Y-114180952D01*
X101115714Y-114228571D01*
X101068095Y-114276190D01*
X101020476Y-114371428D01*
X101020476Y-114561904D01*
X101068095Y-114657142D01*
X101115714Y-114704761D01*
X101210952Y-114752380D01*
X101401428Y-114752380D01*
X101496666Y-114704761D01*
X101544285Y-114657142D01*
X101591904Y-114561904D01*
X101591904Y-114371428D01*
X101544285Y-114276190D01*
X101496666Y-114228571D01*
X101401428Y-114180952D01*
X99687142Y-74112380D02*
X99353809Y-73636190D01*
X99115714Y-74112380D02*
X99115714Y-73112380D01*
X99496666Y-73112380D01*
X99591904Y-73160000D01*
X99639523Y-73207619D01*
X99687142Y-73302857D01*
X99687142Y-73445714D01*
X99639523Y-73540952D01*
X99591904Y-73588571D01*
X99496666Y-73636190D01*
X99115714Y-73636190D01*
X100020476Y-73112380D02*
X100639523Y-73112380D01*
X100306190Y-73493333D01*
X100449047Y-73493333D01*
X100544285Y-73540952D01*
X100591904Y-73588571D01*
X100639523Y-73683809D01*
X100639523Y-73921904D01*
X100591904Y-74017142D01*
X100544285Y-74064761D01*
X100449047Y-74112380D01*
X100163333Y-74112380D01*
X100068095Y-74064761D01*
X100020476Y-74017142D01*
X101115714Y-74112380D02*
X101306190Y-74112380D01*
X101401428Y-74064761D01*
X101449047Y-74017142D01*
X101544285Y-73874285D01*
X101591904Y-73683809D01*
X101591904Y-73302857D01*
X101544285Y-73207619D01*
X101496666Y-73160000D01*
X101401428Y-73112380D01*
X101210952Y-73112380D01*
X101115714Y-73160000D01*
X101068095Y-73207619D01*
X101020476Y-73302857D01*
X101020476Y-73540952D01*
X101068095Y-73636190D01*
X101115714Y-73683809D01*
X101210952Y-73731428D01*
X101401428Y-73731428D01*
X101496666Y-73683809D01*
X101544285Y-73636190D01*
X101591904Y-73540952D01*
X99687142Y-94432380D02*
X99353809Y-93956190D01*
X99115714Y-94432380D02*
X99115714Y-93432380D01*
X99496666Y-93432380D01*
X99591904Y-93480000D01*
X99639523Y-93527619D01*
X99687142Y-93622857D01*
X99687142Y-93765714D01*
X99639523Y-93860952D01*
X99591904Y-93908571D01*
X99496666Y-93956190D01*
X99115714Y-93956190D01*
X100544285Y-93765714D02*
X100544285Y-94432380D01*
X100306190Y-93384761D02*
X100068095Y-94099047D01*
X100687142Y-94099047D01*
X101258571Y-93432380D02*
X101353809Y-93432380D01*
X101449047Y-93480000D01*
X101496666Y-93527619D01*
X101544285Y-93622857D01*
X101591904Y-93813333D01*
X101591904Y-94051428D01*
X101544285Y-94241904D01*
X101496666Y-94337142D01*
X101449047Y-94384761D01*
X101353809Y-94432380D01*
X101258571Y-94432380D01*
X101163333Y-94384761D01*
X101115714Y-94337142D01*
X101068095Y-94241904D01*
X101020476Y-94051428D01*
X101020476Y-93813333D01*
X101068095Y-93622857D01*
X101115714Y-93527619D01*
X101163333Y-93480000D01*
X101258571Y-93432380D01*
X99687142Y-117292380D02*
X99353809Y-116816190D01*
X99115714Y-117292380D02*
X99115714Y-116292380D01*
X99496666Y-116292380D01*
X99591904Y-116340000D01*
X99639523Y-116387619D01*
X99687142Y-116482857D01*
X99687142Y-116625714D01*
X99639523Y-116720952D01*
X99591904Y-116768571D01*
X99496666Y-116816190D01*
X99115714Y-116816190D01*
X100544285Y-116625714D02*
X100544285Y-117292380D01*
X100306190Y-116244761D02*
X100068095Y-116959047D01*
X100687142Y-116959047D01*
X101591904Y-117292380D02*
X101020476Y-117292380D01*
X101306190Y-117292380D02*
X101306190Y-116292380D01*
X101210952Y-116435238D01*
X101115714Y-116530476D01*
X101020476Y-116578095D01*
X99687142Y-79192380D02*
X99353809Y-78716190D01*
X99115714Y-79192380D02*
X99115714Y-78192380D01*
X99496666Y-78192380D01*
X99591904Y-78240000D01*
X99639523Y-78287619D01*
X99687142Y-78382857D01*
X99687142Y-78525714D01*
X99639523Y-78620952D01*
X99591904Y-78668571D01*
X99496666Y-78716190D01*
X99115714Y-78716190D01*
X100544285Y-78525714D02*
X100544285Y-79192380D01*
X100306190Y-78144761D02*
X100068095Y-78859047D01*
X100687142Y-78859047D01*
X101020476Y-78287619D02*
X101068095Y-78240000D01*
X101163333Y-78192380D01*
X101401428Y-78192380D01*
X101496666Y-78240000D01*
X101544285Y-78287619D01*
X101591904Y-78382857D01*
X101591904Y-78478095D01*
X101544285Y-78620952D01*
X100972857Y-79192380D01*
X101591904Y-79192380D01*
X99687142Y-96972380D02*
X99353809Y-96496190D01*
X99115714Y-96972380D02*
X99115714Y-95972380D01*
X99496666Y-95972380D01*
X99591904Y-96020000D01*
X99639523Y-96067619D01*
X99687142Y-96162857D01*
X99687142Y-96305714D01*
X99639523Y-96400952D01*
X99591904Y-96448571D01*
X99496666Y-96496190D01*
X99115714Y-96496190D01*
X100544285Y-96305714D02*
X100544285Y-96972380D01*
X100306190Y-95924761D02*
X100068095Y-96639047D01*
X100687142Y-96639047D01*
X100972857Y-95972380D02*
X101591904Y-95972380D01*
X101258571Y-96353333D01*
X101401428Y-96353333D01*
X101496666Y-96400952D01*
X101544285Y-96448571D01*
X101591904Y-96543809D01*
X101591904Y-96781904D01*
X101544285Y-96877142D01*
X101496666Y-96924761D01*
X101401428Y-96972380D01*
X101115714Y-96972380D01*
X101020476Y-96924761D01*
X100972857Y-96877142D01*
X99687142Y-119832380D02*
X99353809Y-119356190D01*
X99115714Y-119832380D02*
X99115714Y-118832380D01*
X99496666Y-118832380D01*
X99591904Y-118880000D01*
X99639523Y-118927619D01*
X99687142Y-119022857D01*
X99687142Y-119165714D01*
X99639523Y-119260952D01*
X99591904Y-119308571D01*
X99496666Y-119356190D01*
X99115714Y-119356190D01*
X100544285Y-119165714D02*
X100544285Y-119832380D01*
X100306190Y-118784761D02*
X100068095Y-119499047D01*
X100687142Y-119499047D01*
X101496666Y-119165714D02*
X101496666Y-119832380D01*
X101258571Y-118784761D02*
X101020476Y-119499047D01*
X101639523Y-119499047D01*
X99687142Y-81732380D02*
X99353809Y-81256190D01*
X99115714Y-81732380D02*
X99115714Y-80732380D01*
X99496666Y-80732380D01*
X99591904Y-80780000D01*
X99639523Y-80827619D01*
X99687142Y-80922857D01*
X99687142Y-81065714D01*
X99639523Y-81160952D01*
X99591904Y-81208571D01*
X99496666Y-81256190D01*
X99115714Y-81256190D01*
X100544285Y-81065714D02*
X100544285Y-81732380D01*
X100306190Y-80684761D02*
X100068095Y-81399047D01*
X100687142Y-81399047D01*
X101544285Y-80732380D02*
X101068095Y-80732380D01*
X101020476Y-81208571D01*
X101068095Y-81160952D01*
X101163333Y-81113333D01*
X101401428Y-81113333D01*
X101496666Y-81160952D01*
X101544285Y-81208571D01*
X101591904Y-81303809D01*
X101591904Y-81541904D01*
X101544285Y-81637142D01*
X101496666Y-81684761D01*
X101401428Y-81732380D01*
X101163333Y-81732380D01*
X101068095Y-81684761D01*
X101020476Y-81637142D01*
X99687142Y-99512380D02*
X99353809Y-99036190D01*
X99115714Y-99512380D02*
X99115714Y-98512380D01*
X99496666Y-98512380D01*
X99591904Y-98560000D01*
X99639523Y-98607619D01*
X99687142Y-98702857D01*
X99687142Y-98845714D01*
X99639523Y-98940952D01*
X99591904Y-98988571D01*
X99496666Y-99036190D01*
X99115714Y-99036190D01*
X100544285Y-98845714D02*
X100544285Y-99512380D01*
X100306190Y-98464761D02*
X100068095Y-99179047D01*
X100687142Y-99179047D01*
X101496666Y-98512380D02*
X101306190Y-98512380D01*
X101210952Y-98560000D01*
X101163333Y-98607619D01*
X101068095Y-98750476D01*
X101020476Y-98940952D01*
X101020476Y-99321904D01*
X101068095Y-99417142D01*
X101115714Y-99464761D01*
X101210952Y-99512380D01*
X101401428Y-99512380D01*
X101496666Y-99464761D01*
X101544285Y-99417142D01*
X101591904Y-99321904D01*
X101591904Y-99083809D01*
X101544285Y-98988571D01*
X101496666Y-98940952D01*
X101401428Y-98893333D01*
X101210952Y-98893333D01*
X101115714Y-98940952D01*
X101068095Y-98988571D01*
X101020476Y-99083809D01*
X99687142Y-122372380D02*
X99353809Y-121896190D01*
X99115714Y-122372380D02*
X99115714Y-121372380D01*
X99496666Y-121372380D01*
X99591904Y-121420000D01*
X99639523Y-121467619D01*
X99687142Y-121562857D01*
X99687142Y-121705714D01*
X99639523Y-121800952D01*
X99591904Y-121848571D01*
X99496666Y-121896190D01*
X99115714Y-121896190D01*
X100544285Y-121705714D02*
X100544285Y-122372380D01*
X100306190Y-121324761D02*
X100068095Y-122039047D01*
X100687142Y-122039047D01*
X100972857Y-121372380D02*
X101639523Y-121372380D01*
X101210952Y-122372380D01*
X99687142Y-84272380D02*
X99353809Y-83796190D01*
X99115714Y-84272380D02*
X99115714Y-83272380D01*
X99496666Y-83272380D01*
X99591904Y-83320000D01*
X99639523Y-83367619D01*
X99687142Y-83462857D01*
X99687142Y-83605714D01*
X99639523Y-83700952D01*
X99591904Y-83748571D01*
X99496666Y-83796190D01*
X99115714Y-83796190D01*
X100544285Y-83605714D02*
X100544285Y-84272380D01*
X100306190Y-83224761D02*
X100068095Y-83939047D01*
X100687142Y-83939047D01*
X101210952Y-83700952D02*
X101115714Y-83653333D01*
X101068095Y-83605714D01*
X101020476Y-83510476D01*
X101020476Y-83462857D01*
X101068095Y-83367619D01*
X101115714Y-83320000D01*
X101210952Y-83272380D01*
X101401428Y-83272380D01*
X101496666Y-83320000D01*
X101544285Y-83367619D01*
X101591904Y-83462857D01*
X101591904Y-83510476D01*
X101544285Y-83605714D01*
X101496666Y-83653333D01*
X101401428Y-83700952D01*
X101210952Y-83700952D01*
X101115714Y-83748571D01*
X101068095Y-83796190D01*
X101020476Y-83891428D01*
X101020476Y-84081904D01*
X101068095Y-84177142D01*
X101115714Y-84224761D01*
X101210952Y-84272380D01*
X101401428Y-84272380D01*
X101496666Y-84224761D01*
X101544285Y-84177142D01*
X101591904Y-84081904D01*
X101591904Y-83891428D01*
X101544285Y-83796190D01*
X101496666Y-83748571D01*
X101401428Y-83700952D01*
X99687142Y-102052380D02*
X99353809Y-101576190D01*
X99115714Y-102052380D02*
X99115714Y-101052380D01*
X99496666Y-101052380D01*
X99591904Y-101100000D01*
X99639523Y-101147619D01*
X99687142Y-101242857D01*
X99687142Y-101385714D01*
X99639523Y-101480952D01*
X99591904Y-101528571D01*
X99496666Y-101576190D01*
X99115714Y-101576190D01*
X100544285Y-101385714D02*
X100544285Y-102052380D01*
X100306190Y-101004761D02*
X100068095Y-101719047D01*
X100687142Y-101719047D01*
X101115714Y-102052380D02*
X101306190Y-102052380D01*
X101401428Y-102004761D01*
X101449047Y-101957142D01*
X101544285Y-101814285D01*
X101591904Y-101623809D01*
X101591904Y-101242857D01*
X101544285Y-101147619D01*
X101496666Y-101100000D01*
X101401428Y-101052380D01*
X101210952Y-101052380D01*
X101115714Y-101100000D01*
X101068095Y-101147619D01*
X101020476Y-101242857D01*
X101020476Y-101480952D01*
X101068095Y-101576190D01*
X101115714Y-101623809D01*
X101210952Y-101671428D01*
X101401428Y-101671428D01*
X101496666Y-101623809D01*
X101544285Y-101576190D01*
X101591904Y-101480952D01*
X99687142Y-124912380D02*
X99353809Y-124436190D01*
X99115714Y-124912380D02*
X99115714Y-123912380D01*
X99496666Y-123912380D01*
X99591904Y-123960000D01*
X99639523Y-124007619D01*
X99687142Y-124102857D01*
X99687142Y-124245714D01*
X99639523Y-124340952D01*
X99591904Y-124388571D01*
X99496666Y-124436190D01*
X99115714Y-124436190D01*
X100591904Y-123912380D02*
X100115714Y-123912380D01*
X100068095Y-124388571D01*
X100115714Y-124340952D01*
X100210952Y-124293333D01*
X100449047Y-124293333D01*
X100544285Y-124340952D01*
X100591904Y-124388571D01*
X100639523Y-124483809D01*
X100639523Y-124721904D01*
X100591904Y-124817142D01*
X100544285Y-124864761D01*
X100449047Y-124912380D01*
X100210952Y-124912380D01*
X100115714Y-124864761D01*
X100068095Y-124817142D01*
X101258571Y-123912380D02*
X101353809Y-123912380D01*
X101449047Y-123960000D01*
X101496666Y-124007619D01*
X101544285Y-124102857D01*
X101591904Y-124293333D01*
X101591904Y-124531428D01*
X101544285Y-124721904D01*
X101496666Y-124817142D01*
X101449047Y-124864761D01*
X101353809Y-124912380D01*
X101258571Y-124912380D01*
X101163333Y-124864761D01*
X101115714Y-124817142D01*
X101068095Y-124721904D01*
X101020476Y-124531428D01*
X101020476Y-124293333D01*
X101068095Y-124102857D01*
X101115714Y-124007619D01*
X101163333Y-123960000D01*
X101258571Y-123912380D01*
X67143333Y-124817142D02*
X67095714Y-124864761D01*
X66952857Y-124912380D01*
X66857619Y-124912380D01*
X66714761Y-124864761D01*
X66619523Y-124769523D01*
X66571904Y-124674285D01*
X66524285Y-124483809D01*
X66524285Y-124340952D01*
X66571904Y-124150476D01*
X66619523Y-124055238D01*
X66714761Y-123960000D01*
X66857619Y-123912380D01*
X66952857Y-123912380D01*
X67095714Y-123960000D01*
X67143333Y-124007619D01*
X68000476Y-124245714D02*
X68000476Y-124912380D01*
X67762380Y-123864761D02*
X67524285Y-124579047D01*
X68143333Y-124579047D01*
X99528333Y-107037142D02*
X99480714Y-107084761D01*
X99337857Y-107132380D01*
X99242619Y-107132380D01*
X99099761Y-107084761D01*
X99004523Y-106989523D01*
X98956904Y-106894285D01*
X98909285Y-106703809D01*
X98909285Y-106560952D01*
X98956904Y-106370476D01*
X99004523Y-106275238D01*
X99099761Y-106180000D01*
X99242619Y-106132380D01*
X99337857Y-106132380D01*
X99480714Y-106180000D01*
X99528333Y-106227619D01*
X100433095Y-106132380D02*
X99956904Y-106132380D01*
X99909285Y-106608571D01*
X99956904Y-106560952D01*
X100052142Y-106513333D01*
X100290238Y-106513333D01*
X100385476Y-106560952D01*
X100433095Y-106608571D01*
X100480714Y-106703809D01*
X100480714Y-106941904D01*
X100433095Y-107037142D01*
X100385476Y-107084761D01*
X100290238Y-107132380D01*
X100052142Y-107132380D01*
X99956904Y-107084761D01*
X99909285Y-107037142D01*
X67143333Y-63857142D02*
X67095714Y-63904761D01*
X66952857Y-63952380D01*
X66857619Y-63952380D01*
X66714761Y-63904761D01*
X66619523Y-63809523D01*
X66571904Y-63714285D01*
X66524285Y-63523809D01*
X66524285Y-63380952D01*
X66571904Y-63190476D01*
X66619523Y-63095238D01*
X66714761Y-63000000D01*
X66857619Y-62952380D01*
X66952857Y-62952380D01*
X67095714Y-63000000D01*
X67143333Y-63047619D01*
X68000476Y-62952380D02*
X67810000Y-62952380D01*
X67714761Y-63000000D01*
X67667142Y-63047619D01*
X67571904Y-63190476D01*
X67524285Y-63380952D01*
X67524285Y-63761904D01*
X67571904Y-63857142D01*
X67619523Y-63904761D01*
X67714761Y-63952380D01*
X67905238Y-63952380D01*
X68000476Y-63904761D01*
X68048095Y-63857142D01*
X68095714Y-63761904D01*
X68095714Y-63523809D01*
X68048095Y-63428571D01*
X68000476Y-63380952D01*
X67905238Y-63333333D01*
X67714761Y-63333333D01*
X67619523Y-63380952D01*
X67571904Y-63428571D01*
X67524285Y-63523809D01*
X100163333Y-76557142D02*
X100115714Y-76604761D01*
X99972857Y-76652380D01*
X99877619Y-76652380D01*
X99734761Y-76604761D01*
X99639523Y-76509523D01*
X99591904Y-76414285D01*
X99544285Y-76223809D01*
X99544285Y-76080952D01*
X99591904Y-75890476D01*
X99639523Y-75795238D01*
X99734761Y-75700000D01*
X99877619Y-75652380D01*
X99972857Y-75652380D01*
X100115714Y-75700000D01*
X100163333Y-75747619D01*
X100496666Y-75652380D02*
X101163333Y-75652380D01*
X100734761Y-76652380D01*
X203922380Y-101933333D02*
X204636666Y-101933333D01*
X204779523Y-101980952D01*
X204874761Y-102076190D01*
X204922380Y-102219047D01*
X204922380Y-102314285D01*
X203922380Y-101028571D02*
X203922380Y-101219047D01*
X203970000Y-101314285D01*
X204017619Y-101361904D01*
X204160476Y-101457142D01*
X204350952Y-101504761D01*
X204731904Y-101504761D01*
X204827142Y-101457142D01*
X204874761Y-101409523D01*
X204922380Y-101314285D01*
X204922380Y-101123809D01*
X204874761Y-101028571D01*
X204827142Y-100980952D01*
X204731904Y-100933333D01*
X204493809Y-100933333D01*
X204398571Y-100980952D01*
X204350952Y-101028571D01*
X204303333Y-101123809D01*
X204303333Y-101314285D01*
X204350952Y-101409523D01*
X204398571Y-101457142D01*
X204493809Y-101504761D01*
X204612380Y-133413333D02*
X205326666Y-133413333D01*
X205469523Y-133460952D01*
X205564761Y-133556190D01*
X205612380Y-133699047D01*
X205612380Y-133794285D01*
X204612380Y-133032380D02*
X204612380Y-132365714D01*
X205612380Y-132794285D01*
X203922380Y-120983333D02*
X204636666Y-120983333D01*
X204779523Y-121030952D01*
X204874761Y-121126190D01*
X204922380Y-121269047D01*
X204922380Y-121364285D01*
X204350952Y-120364285D02*
X204303333Y-120459523D01*
X204255714Y-120507142D01*
X204160476Y-120554761D01*
X204112857Y-120554761D01*
X204017619Y-120507142D01*
X203970000Y-120459523D01*
X203922380Y-120364285D01*
X203922380Y-120173809D01*
X203970000Y-120078571D01*
X204017619Y-120030952D01*
X204112857Y-119983333D01*
X204160476Y-119983333D01*
X204255714Y-120030952D01*
X204303333Y-120078571D01*
X204350952Y-120173809D01*
X204350952Y-120364285D01*
X204398571Y-120459523D01*
X204446190Y-120507142D01*
X204541428Y-120554761D01*
X204731904Y-120554761D01*
X204827142Y-120507142D01*
X204874761Y-120459523D01*
X204922380Y-120364285D01*
X204922380Y-120173809D01*
X204874761Y-120078571D01*
X204827142Y-120030952D01*
X204731904Y-119983333D01*
X204541428Y-119983333D01*
X204446190Y-120030952D01*
X204398571Y-120078571D01*
X204350952Y-120173809D01*
X73668095Y-52792380D02*
X74239523Y-52792380D01*
X73953809Y-53792380D02*
X73953809Y-52792380D01*
X74572857Y-53792380D02*
X74572857Y-52792380D01*
X74953809Y-52792380D01*
X75049047Y-52840000D01*
X75096666Y-52887619D01*
X75144285Y-52982857D01*
X75144285Y-53125714D01*
X75096666Y-53220952D01*
X75049047Y-53268571D01*
X74953809Y-53316190D01*
X74572857Y-53316190D01*
X76096666Y-53792380D02*
X75525238Y-53792380D01*
X75810952Y-53792380D02*
X75810952Y-52792380D01*
X75715714Y-52935238D01*
X75620476Y-53030476D01*
X75525238Y-53078095D01*
X199398095Y-65492380D02*
X199969523Y-65492380D01*
X199683809Y-66492380D02*
X199683809Y-65492380D01*
X200302857Y-66492380D02*
X200302857Y-65492380D01*
X200683809Y-65492380D01*
X200779047Y-65540000D01*
X200826666Y-65587619D01*
X200874285Y-65682857D01*
X200874285Y-65825714D01*
X200826666Y-65920952D01*
X200779047Y-65968571D01*
X200683809Y-66016190D01*
X200302857Y-66016190D01*
X201255238Y-65587619D02*
X201302857Y-65540000D01*
X201398095Y-65492380D01*
X201636190Y-65492380D01*
X201731428Y-65540000D01*
X201779047Y-65587619D01*
X201826666Y-65682857D01*
X201826666Y-65778095D01*
X201779047Y-65920952D01*
X201207619Y-66492380D01*
X201826666Y-66492380D01*
X76922380Y-145113333D02*
X77636666Y-145113333D01*
X77779523Y-145160952D01*
X77874761Y-145256190D01*
X77922380Y-145399047D01*
X77922380Y-145494285D01*
X77922380Y-144113333D02*
X77922380Y-144684761D01*
X77922380Y-144399047D02*
X76922380Y-144399047D01*
X77065238Y-144494285D01*
X77160476Y-144589523D01*
X77208095Y-144684761D01*
X102322380Y-145113333D02*
X103036666Y-145113333D01*
X103179523Y-145160952D01*
X103274761Y-145256190D01*
X103322380Y-145399047D01*
X103322380Y-145494285D01*
X102417619Y-144684761D02*
X102370000Y-144637142D01*
X102322380Y-144541904D01*
X102322380Y-144303809D01*
X102370000Y-144208571D01*
X102417619Y-144160952D01*
X102512857Y-144113333D01*
X102608095Y-144113333D01*
X102750952Y-144160952D01*
X103322380Y-144732380D01*
X103322380Y-144113333D01*
X127722380Y-145113333D02*
X128436666Y-145113333D01*
X128579523Y-145160952D01*
X128674761Y-145256190D01*
X128722380Y-145399047D01*
X128722380Y-145494285D01*
X127722380Y-144732380D02*
X127722380Y-144113333D01*
X128103333Y-144446666D01*
X128103333Y-144303809D01*
X128150952Y-144208571D01*
X128198571Y-144160952D01*
X128293809Y-144113333D01*
X128531904Y-144113333D01*
X128627142Y-144160952D01*
X128674761Y-144208571D01*
X128722380Y-144303809D01*
X128722380Y-144589523D01*
X128674761Y-144684761D01*
X128627142Y-144732380D01*
X153122380Y-145113333D02*
X153836666Y-145113333D01*
X153979523Y-145160952D01*
X154074761Y-145256190D01*
X154122380Y-145399047D01*
X154122380Y-145494285D01*
X153455714Y-144208571D02*
X154122380Y-144208571D01*
X153074761Y-144446666D02*
X153789047Y-144684761D01*
X153789047Y-144065714D01*
X178522380Y-145113333D02*
X179236666Y-145113333D01*
X179379523Y-145160952D01*
X179474761Y-145256190D01*
X179522380Y-145399047D01*
X179522380Y-145494285D01*
X178522380Y-144160952D02*
X178522380Y-144637142D01*
X178998571Y-144684761D01*
X178950952Y-144637142D01*
X178903333Y-144541904D01*
X178903333Y-144303809D01*
X178950952Y-144208571D01*
X178998571Y-144160952D01*
X179093809Y-144113333D01*
X179331904Y-144113333D01*
X179427142Y-144160952D01*
X179474761Y-144208571D01*
X179522380Y-144303809D01*
X179522380Y-144541904D01*
X179474761Y-144637142D01*
X179427142Y-144684761D01*
M02*
