G04 #@! TF.GenerationSoftware,KiCad,Pcbnew,(5.1.4)-1*
G04 #@! TF.CreationDate,2019-10-27T15:44:07+01:00*
G04 #@! TF.ProjectId,stebus,73746562-7573-42e6-9b69-6361645f7063,rev?*
G04 #@! TF.SameCoordinates,Original*
G04 #@! TF.FileFunction,Legend,Bot*
G04 #@! TF.FilePolarity,Positive*
%FSLAX46Y46*%
G04 Gerber Fmt 4.6, Leading zero omitted, Abs format (unit mm)*
G04 Created by KiCad (PCBNEW (5.1.4)-1) date 2019-10-27 15:44:07*
%MOMM*%
%LPD*%
G04 APERTURE LIST*
%ADD10C,0.120000*%
%ADD11C,0.150000*%
G04 APERTURE END LIST*
D10*
X71930000Y-138230000D02*
X73930000Y-138230000D01*
X73930000Y-136090000D02*
X71930000Y-136090000D01*
X70010000Y-80380000D02*
X70010000Y-86390000D01*
X76830000Y-82630000D02*
X76830000Y-86390000D01*
X70010000Y-86390000D02*
X71270000Y-86390000D01*
X76830000Y-86390000D02*
X75570000Y-86390000D01*
X73930000Y-67520000D02*
X71930000Y-67520000D01*
X71930000Y-64560000D02*
X73930000Y-64560000D01*
X73930000Y-72140000D02*
X71930000Y-72140000D01*
X71930000Y-70100000D02*
X73930000Y-70100000D01*
X71930000Y-75180000D02*
X73930000Y-75180000D01*
X73930000Y-77220000D02*
X71930000Y-77220000D01*
X71930000Y-72640000D02*
X73930000Y-72640000D01*
X73930000Y-74680000D02*
X71930000Y-74680000D01*
X73930000Y-129290000D02*
X71930000Y-129290000D01*
X71930000Y-127250000D02*
X73930000Y-127250000D01*
X74730000Y-93170000D02*
X71130000Y-93170000D01*
X71130000Y-89710000D02*
X74730000Y-89710000D01*
X76395000Y-102490000D02*
X76395000Y-105790000D01*
X76395000Y-105790000D02*
X70995000Y-105790000D01*
X76395000Y-102490000D02*
X70995000Y-102490000D01*
X76395000Y-110110000D02*
X70995000Y-110110000D01*
X76395000Y-113410000D02*
X70995000Y-113410000D01*
X76395000Y-110110000D02*
X76395000Y-113410000D01*
X76395000Y-106300000D02*
X70995000Y-106300000D01*
X76395000Y-109600000D02*
X70995000Y-109600000D01*
X76395000Y-106300000D02*
X76395000Y-109600000D01*
X76395000Y-113920000D02*
X76395000Y-117220000D01*
X76395000Y-117220000D02*
X70995000Y-117220000D01*
X76395000Y-113920000D02*
X70995000Y-113920000D01*
X76395000Y-130430000D02*
X70995000Y-130430000D01*
X76395000Y-133730000D02*
X70995000Y-133730000D01*
X76395000Y-130430000D02*
X76395000Y-133730000D01*
X77170000Y-125460000D02*
X69870000Y-125460000D01*
X77170000Y-123460000D02*
X77170000Y-125460000D01*
X69870000Y-123460000D02*
X77170000Y-123460000D01*
D11*
X68746666Y-137612380D02*
X69080000Y-137136190D01*
X69318095Y-137612380D02*
X69318095Y-136612380D01*
X68937142Y-136612380D01*
X68841904Y-136660000D01*
X68794285Y-136707619D01*
X68746666Y-136802857D01*
X68746666Y-136945714D01*
X68794285Y-137040952D01*
X68841904Y-137088571D01*
X68937142Y-137136190D01*
X69318095Y-137136190D01*
X67794285Y-137612380D02*
X68365714Y-137612380D01*
X68080000Y-137612380D02*
X68080000Y-136612380D01*
X68175238Y-136755238D01*
X68270476Y-136850476D01*
X68365714Y-136898095D01*
X68372380Y-83718095D02*
X69181904Y-83718095D01*
X69277142Y-83765714D01*
X69324761Y-83813333D01*
X69372380Y-83908571D01*
X69372380Y-84099047D01*
X69324761Y-84194285D01*
X69277142Y-84241904D01*
X69181904Y-84289523D01*
X68372380Y-84289523D01*
X69372380Y-85289523D02*
X69372380Y-84718095D01*
X69372380Y-85003809D02*
X68372380Y-85003809D01*
X68515238Y-84908571D01*
X68610476Y-84813333D01*
X68658095Y-84718095D01*
X67476666Y-66397142D02*
X67524285Y-66444761D01*
X67667142Y-66492380D01*
X67762380Y-66492380D01*
X67905238Y-66444761D01*
X68000476Y-66349523D01*
X68048095Y-66254285D01*
X68095714Y-66063809D01*
X68095714Y-65920952D01*
X68048095Y-65730476D01*
X68000476Y-65635238D01*
X67905238Y-65540000D01*
X67762380Y-65492380D01*
X67667142Y-65492380D01*
X67524285Y-65540000D01*
X67476666Y-65587619D01*
X66524285Y-66492380D02*
X67095714Y-66492380D01*
X66810000Y-66492380D02*
X66810000Y-65492380D01*
X66905238Y-65635238D01*
X67000476Y-65730476D01*
X67095714Y-65778095D01*
X67476666Y-71477142D02*
X67524285Y-71524761D01*
X67667142Y-71572380D01*
X67762380Y-71572380D01*
X67905238Y-71524761D01*
X68000476Y-71429523D01*
X68048095Y-71334285D01*
X68095714Y-71143809D01*
X68095714Y-71000952D01*
X68048095Y-70810476D01*
X68000476Y-70715238D01*
X67905238Y-70620000D01*
X67762380Y-70572380D01*
X67667142Y-70572380D01*
X67524285Y-70620000D01*
X67476666Y-70667619D01*
X67095714Y-70667619D02*
X67048095Y-70620000D01*
X66952857Y-70572380D01*
X66714761Y-70572380D01*
X66619523Y-70620000D01*
X66571904Y-70667619D01*
X66524285Y-70762857D01*
X66524285Y-70858095D01*
X66571904Y-71000952D01*
X67143333Y-71572380D01*
X66524285Y-71572380D01*
X67952857Y-76652380D02*
X68286190Y-76176190D01*
X68524285Y-76652380D02*
X68524285Y-75652380D01*
X68143333Y-75652380D01*
X68048095Y-75700000D01*
X68000476Y-75747619D01*
X67952857Y-75842857D01*
X67952857Y-75985714D01*
X68000476Y-76080952D01*
X68048095Y-76128571D01*
X68143333Y-76176190D01*
X68524285Y-76176190D01*
X67048095Y-75652380D02*
X67524285Y-75652380D01*
X67571904Y-76128571D01*
X67524285Y-76080952D01*
X67429047Y-76033333D01*
X67190952Y-76033333D01*
X67095714Y-76080952D01*
X67048095Y-76128571D01*
X67000476Y-76223809D01*
X67000476Y-76461904D01*
X67048095Y-76557142D01*
X67095714Y-76604761D01*
X67190952Y-76652380D01*
X67429047Y-76652380D01*
X67524285Y-76604761D01*
X67571904Y-76557142D01*
X66048095Y-76652380D02*
X66619523Y-76652380D01*
X66333809Y-76652380D02*
X66333809Y-75652380D01*
X66429047Y-75795238D01*
X66524285Y-75890476D01*
X66619523Y-75938095D01*
X67952857Y-74112380D02*
X68286190Y-73636190D01*
X68524285Y-74112380D02*
X68524285Y-73112380D01*
X68143333Y-73112380D01*
X68048095Y-73160000D01*
X68000476Y-73207619D01*
X67952857Y-73302857D01*
X67952857Y-73445714D01*
X68000476Y-73540952D01*
X68048095Y-73588571D01*
X68143333Y-73636190D01*
X68524285Y-73636190D01*
X67048095Y-73112380D02*
X67524285Y-73112380D01*
X67571904Y-73588571D01*
X67524285Y-73540952D01*
X67429047Y-73493333D01*
X67190952Y-73493333D01*
X67095714Y-73540952D01*
X67048095Y-73588571D01*
X67000476Y-73683809D01*
X67000476Y-73921904D01*
X67048095Y-74017142D01*
X67095714Y-74064761D01*
X67190952Y-74112380D01*
X67429047Y-74112380D01*
X67524285Y-74064761D01*
X67571904Y-74017142D01*
X66619523Y-73207619D02*
X66571904Y-73160000D01*
X66476666Y-73112380D01*
X66238571Y-73112380D01*
X66143333Y-73160000D01*
X66095714Y-73207619D01*
X66048095Y-73302857D01*
X66048095Y-73398095D01*
X66095714Y-73540952D01*
X66667142Y-74112380D01*
X66048095Y-74112380D01*
X68746666Y-128627142D02*
X68794285Y-128674761D01*
X68937142Y-128722380D01*
X69032380Y-128722380D01*
X69175238Y-128674761D01*
X69270476Y-128579523D01*
X69318095Y-128484285D01*
X69365714Y-128293809D01*
X69365714Y-128150952D01*
X69318095Y-127960476D01*
X69270476Y-127865238D01*
X69175238Y-127770000D01*
X69032380Y-127722380D01*
X68937142Y-127722380D01*
X68794285Y-127770000D01*
X68746666Y-127817619D01*
X68175238Y-128150952D02*
X68270476Y-128103333D01*
X68318095Y-128055714D01*
X68365714Y-127960476D01*
X68365714Y-127912857D01*
X68318095Y-127817619D01*
X68270476Y-127770000D01*
X68175238Y-127722380D01*
X67984761Y-127722380D01*
X67889523Y-127770000D01*
X67841904Y-127817619D01*
X67794285Y-127912857D01*
X67794285Y-127960476D01*
X67841904Y-128055714D01*
X67889523Y-128103333D01*
X67984761Y-128150952D01*
X68175238Y-128150952D01*
X68270476Y-128198571D01*
X68318095Y-128246190D01*
X68365714Y-128341428D01*
X68365714Y-128531904D01*
X68318095Y-128627142D01*
X68270476Y-128674761D01*
X68175238Y-128722380D01*
X67984761Y-128722380D01*
X67889523Y-128674761D01*
X67841904Y-128627142D01*
X67794285Y-128531904D01*
X67794285Y-128341428D01*
X67841904Y-128246190D01*
X67889523Y-128198571D01*
X67984761Y-128150952D01*
X67476666Y-93067142D02*
X67524285Y-93114761D01*
X67667142Y-93162380D01*
X67762380Y-93162380D01*
X67905238Y-93114761D01*
X68000476Y-93019523D01*
X68048095Y-92924285D01*
X68095714Y-92733809D01*
X68095714Y-92590952D01*
X68048095Y-92400476D01*
X68000476Y-92305238D01*
X67905238Y-92210000D01*
X67762380Y-92162380D01*
X67667142Y-92162380D01*
X67524285Y-92210000D01*
X67476666Y-92257619D01*
X67143333Y-92162380D02*
X66524285Y-92162380D01*
X66857619Y-92543333D01*
X66714761Y-92543333D01*
X66619523Y-92590952D01*
X66571904Y-92638571D01*
X66524285Y-92733809D01*
X66524285Y-92971904D01*
X66571904Y-93067142D01*
X66619523Y-93114761D01*
X66714761Y-93162380D01*
X67000476Y-93162380D01*
X67095714Y-93114761D01*
X67143333Y-93067142D01*
X68048095Y-104592380D02*
X68048095Y-103592380D01*
X67810000Y-103592380D01*
X67667142Y-103640000D01*
X67571904Y-103735238D01*
X67524285Y-103830476D01*
X67476666Y-104020952D01*
X67476666Y-104163809D01*
X67524285Y-104354285D01*
X67571904Y-104449523D01*
X67667142Y-104544761D01*
X67810000Y-104592380D01*
X68048095Y-104592380D01*
X66524285Y-104592380D02*
X67095714Y-104592380D01*
X66810000Y-104592380D02*
X66810000Y-103592380D01*
X66905238Y-103735238D01*
X67000476Y-103830476D01*
X67095714Y-103878095D01*
X68048095Y-112212380D02*
X68048095Y-111212380D01*
X67810000Y-111212380D01*
X67667142Y-111260000D01*
X67571904Y-111355238D01*
X67524285Y-111450476D01*
X67476666Y-111640952D01*
X67476666Y-111783809D01*
X67524285Y-111974285D01*
X67571904Y-112069523D01*
X67667142Y-112164761D01*
X67810000Y-112212380D01*
X68048095Y-112212380D01*
X67095714Y-111307619D02*
X67048095Y-111260000D01*
X66952857Y-111212380D01*
X66714761Y-111212380D01*
X66619523Y-111260000D01*
X66571904Y-111307619D01*
X66524285Y-111402857D01*
X66524285Y-111498095D01*
X66571904Y-111640952D01*
X67143333Y-112212380D01*
X66524285Y-112212380D01*
X68048095Y-108402380D02*
X68048095Y-107402380D01*
X67810000Y-107402380D01*
X67667142Y-107450000D01*
X67571904Y-107545238D01*
X67524285Y-107640476D01*
X67476666Y-107830952D01*
X67476666Y-107973809D01*
X67524285Y-108164285D01*
X67571904Y-108259523D01*
X67667142Y-108354761D01*
X67810000Y-108402380D01*
X68048095Y-108402380D01*
X67143333Y-107402380D02*
X66524285Y-107402380D01*
X66857619Y-107783333D01*
X66714761Y-107783333D01*
X66619523Y-107830952D01*
X66571904Y-107878571D01*
X66524285Y-107973809D01*
X66524285Y-108211904D01*
X66571904Y-108307142D01*
X66619523Y-108354761D01*
X66714761Y-108402380D01*
X67000476Y-108402380D01*
X67095714Y-108354761D01*
X67143333Y-108307142D01*
X68048095Y-116022380D02*
X68048095Y-115022380D01*
X67810000Y-115022380D01*
X67667142Y-115070000D01*
X67571904Y-115165238D01*
X67524285Y-115260476D01*
X67476666Y-115450952D01*
X67476666Y-115593809D01*
X67524285Y-115784285D01*
X67571904Y-115879523D01*
X67667142Y-115974761D01*
X67810000Y-116022380D01*
X68048095Y-116022380D01*
X66619523Y-115355714D02*
X66619523Y-116022380D01*
X66857619Y-114974761D02*
X67095714Y-115689047D01*
X66476666Y-115689047D01*
X68048095Y-132532380D02*
X68048095Y-131532380D01*
X67810000Y-131532380D01*
X67667142Y-131580000D01*
X67571904Y-131675238D01*
X67524285Y-131770476D01*
X67476666Y-131960952D01*
X67476666Y-132103809D01*
X67524285Y-132294285D01*
X67571904Y-132389523D01*
X67667142Y-132484761D01*
X67810000Y-132532380D01*
X68048095Y-132532380D01*
X66571904Y-131532380D02*
X67048095Y-131532380D01*
X67095714Y-132008571D01*
X67048095Y-131960952D01*
X66952857Y-131913333D01*
X66714761Y-131913333D01*
X66619523Y-131960952D01*
X66571904Y-132008571D01*
X66524285Y-132103809D01*
X66524285Y-132341904D01*
X66571904Y-132437142D01*
X66619523Y-132484761D01*
X66714761Y-132532380D01*
X66952857Y-132532380D01*
X67048095Y-132484761D01*
X67095714Y-132437142D01*
X73358095Y-123162380D02*
X73358095Y-122162380D01*
X73120000Y-122162380D01*
X72977142Y-122210000D01*
X72881904Y-122305238D01*
X72834285Y-122400476D01*
X72786666Y-122590952D01*
X72786666Y-122733809D01*
X72834285Y-122924285D01*
X72881904Y-123019523D01*
X72977142Y-123114761D01*
X73120000Y-123162380D01*
X73358095Y-123162380D01*
X71929523Y-122162380D02*
X72120000Y-122162380D01*
X72215238Y-122210000D01*
X72262857Y-122257619D01*
X72358095Y-122400476D01*
X72405714Y-122590952D01*
X72405714Y-122971904D01*
X72358095Y-123067142D01*
X72310476Y-123114761D01*
X72215238Y-123162380D01*
X72024761Y-123162380D01*
X71929523Y-123114761D01*
X71881904Y-123067142D01*
X71834285Y-122971904D01*
X71834285Y-122733809D01*
X71881904Y-122638571D01*
X71929523Y-122590952D01*
X72024761Y-122543333D01*
X72215238Y-122543333D01*
X72310476Y-122590952D01*
X72358095Y-122638571D01*
X72405714Y-122733809D01*
M02*
